<?xml version="1.0" encoding="UTF-8"?>
<svg id="Layer_30" data-name="Layer 30" xmlns="http://www.w3.org/2000/svg" viewBox="0 0 860.62 220.76">
  <defs>
    <style>
      .cls-1 {
        fill: #52fff8;
      }
    </style>
  </defs>
  <path class="cls-1" d="M36.68,176.03c-11.14-9.41-22.32-18.85-29.78-35.74-12.98-29.38-4.49-58.2,0-73.46,5.28-17.93,14.45-35.72,17.87-34.74,5.53,1.58-7.45,51.1,0,53.61,6.93,2.33,29.35-36.76,36.74-49.63,10.41-18.15,12.49-24.72,20.85-27.79,12.99-4.77,22.38,5.8,39.71,0,10.73-3.59,13.44-9.74,17.87-7.94,7.95,3.24,10.75,27.75,0,37.72-10.15,9.42-24.82-1.16-34.75,7.94-12.07,11.06-5.97,40.98,1.98,42.69,7.15,1.53,15.65-19.82,20.85-17.87,4.72,1.77-3.28,19.01,4.96,31.77,8.25,12.77,23.25,6.31,34.74,17.87,13.6,13.69,12.82,43.1,0,62.54-13.46,20.4-36.73,24.56-43.68,25.81-40.08,7.17-73.1-20.72-87.36-32.77Z"/>
  <path class="cls-1" d="M714.26,22.39c-2.01-.21-19.62-2.06-26.01,7.58-7.27,10.97,7.27,25.77,0,35.77-5.9,8.1-17.85,1.68-24.93,9.75-8.41,9.59-3.2,31.95,8.67,45.52,12.96,14.82,32.04,17.05,31.43,19.51-.9,3.64-41.35-6.55-44.44,1.08-1.8,4.43,10.99,10.08,28.18,29.27,17.49,19.52,15.69,26.44,26.01,30.35,15.58,5.89,25.02-7.84,44.44-2.16,11.55,3.38,11.73,9.27,22.76,15.18,24.72,13.23,64.56,5.41,76.95-15.17,6.46-10.73,2.01-19.19-1.08-44.44-7.03-57.45,5.94-96.2,0-97.54-7.13-1.62-23.2,55.03-31.44,53.1-5.44-1.27-5.44-27.55-5.42-31.43.1-15.19,2.82-20.82,0-22.76-7.92-5.47-35.71,34.68-52.03,28.17-9.74-3.88-3.87-19.8-19.51-40.1-3.65-4.73-15.2-19.74-33.6-21.68Z"/>
</svg>