<?xml version="1.0" encoding="UTF-8"?>
<svg xmlns="http://www.w3.org/2000/svg" xmlns:xlink="http://www.w3.org/1999/xlink" viewBox="0 0 848.13 1084.89">
  <defs>
    <style>
      .cls-1 {
        fill: #e6afe5;
      }

      .cls-2 {
        fill: #a168a3;
      }

      .cls-3 {
        fill: #db9ce3;
      }

      .cls-4 {
        fill: #aecdf4;
      }

      .cls-5 {
        fill: #be73c5;
      }

      .cls-6 {
        fill: url(#linear-gradient);
      }

      .cls-7 {
        fill: #855083;
      }

      .cls-8 {
        fill: #c993c8;
      }

      .cls-9 {
        fill: #fff;
      }

      .cls-10 {
        fill: #efb47f;
      }

      .cls-11 {
        opacity: .81;
      }

      .cls-12 {
        fill: #9e4ca5;
      }

      .cls-13 {
        fill: #dcecf4;
      }

      .cls-14 {
        fill: #6696ff;
      }

      .cls-15 {
        fill: #dce8f4;
      }

      .cls-16 {
        fill: #f7ff4f;
      }
    </style>
    <linearGradient id="linear-gradient" x1="478.77" y1="742.13" x2="398.14" y2="770.78" gradientUnits="userSpaceOnUse">
      <stop offset="0" stop-color="#c67ccd"/>
      <stop offset=".24" stop-color="#e3a4ea"/>
      <stop offset=".51" stop-color="#e9aff0"/>
      <stop offset=".81" stop-color="#d392dd"/>
      <stop offset="1" stop-color="#b05db8"/>
    </linearGradient>
  </defs>
  <g id="Layer_13" data-name="Layer 13">
    <g>
      <g>
        <path d="M101.62,900.95c-10.44,16.08-7.08,43.25,6.59,56.41,23.22,22.34,72.32.55,77.65,13.92,2.45,6.14-7.72,11.22-21.98,38.83-9.48,18.36-11.21,28.19-11.72,31.5-1.62,10.55-4.17,27.12,5.86,36.63,9.7,9.19,25.42,6.34,27.84,5.86,14.43-2.85,16.8-12.34,31.5-17.58,12.72-4.54,23.8-2.03,31.5-.73,22.84,3.85,47.71,1.1,97.43-4.4,43.98-4.86,39.92-15.32,100.36-30.04,28.63-6.97,62.8-11,131.13-19.05,41.38-4.88,61.35-6.4,90.11-17.58,13.98-5.44,62.95-24.48,61.54-43.96-.64-8.76-11.72-21.22-85.71-37.36-71.53-15.6-127.11-18.33-214.65-21.25-210.26-7-131.19.71-188.28-2.93-78.87-5.03-123.18-12.94-139.19,11.72Z"/>
        <g>
          <path class="cls-14" d="M370.11,366.44c-69.86,1.62-95.02,15.95-102.01,20.16-26.43,15.95-41.14,36.99-45.67,43.89-13.75,20.94-12.68,31.81-24.32,72.35-17.69,61.65-42.11,115.65-42.11,115.65-12.65,27.98-20.08,39.57-20.76,61.08-.12,3.82,6.79,34,15.42,58.71.97,2.78,3.74,10.54.26,14.33-3.14,3.42-9.81,1.94-11.62,1.6-18.37-3.45-67.52,9.82-95,30.06-3.5,2.58-43.23,32.74-43.69,77.77-.47,45.25,39.04,75.16,68.95,97.81,20.7,15.67,69.35,52.51,121.28,37.98,8.77-2.45,15.73-13.16,31.56-15.78,13.05-2.16,19.95,1.63,35.65,4.09,27.76,4.35,55.73.28,56.11-3.51.46-4.66-40.26-16.06-82.4-20.45-40.29-4.2-72.15-.98-102.86-21.62-11.79-7.93-12.11-11.77-11.69-13.44,2.05-8.12,32.31-7.1,59.54-5.76,70.07,3.44,123.64,9.13,125.52,9.33,50.43,5.35,98.26,10.42,157.74,7.63,63.54-2.98,61.25-11.22,100.07-7.63,51.9,4.8,66.54,20.51,116.19,16.11,15.19-1.34,33.77-4.58,36.47,1.7,3.13,7.27-17.14,22.4-21.2,25.44-52.71,39.38-123.83,33.66-123.82,33.92.01.25,66.09,11.23,145.02-19.51,64.57-25.14,91.89-60.33,99.23-70.39,12.36-16.94,28.21-38.67,25.44-67-3.78-38.65-39.45-61.23-52.58-69.54-10.94-6.92-46.36-29.35-74.05-16.75-8.59,3.91-14.45,10.28-18.02,8.01-6.04-3.83,3.65-26.42,8.01-43.06,6.93-26.47.78-39.53-19.03-123.17-18.7-78.99-17.04-83.47-28.04-111.15-12.69-31.93-21.94-54.47-44.06-74.1-7.41-6.58-23.08-18.87-81.11-34.05-35.47-9.28-87.16-22.38-158.41-20.73Z"/>
          <path class="cls-13" d="M346.91,181.66c-16.93,11.05-25.42,23.78-27.14,26.43-11.82,18.19-21.68,48.9-10,73.57,8.49,17.94,21.18,17.54,23.57,33.57,2.91,19.52-13.48,36.38-16.43,39.29-12.57,12.42-27.38,14.96-32.14,15.71-14.76,2.33-26.65-1.5-32.86-3.57-20.92-6.99-28.4-18.94-33.57-15.71-6.11,3.81,4.34,20.46-4.29,41.43-2.93,7.12-5.21,7.82-5,12.14.64,13.23,22.41,15.32,25.72,29.29,2.21,9.36-6.58,12.57-12.86,30-8.05,22.33-3.13,43.44-1.43,50.72,2.6,11.13,4.99,12.15,18.57,42.14,11.6,25.61,10.16,25.56,15,35,6.17,12.04,24.66,48.12,60.72,60,15.55,5.12,49.12,10.6,60.72-7.86,8.4-13.37,3.23-36.03-10-45.72-10.61-7.76-25.22-6.32-31.43-5.71-14.18,1.39-17.37,6.72-22.86,4.29-11.08-4.9-14.64-33.86-4.29-55.72,3.1-6.54,14.69-17.22,37.86-38.57,8.48-7.81,16.14-14.88,27.25-24.1,19.05-15.81,19.63-14.24,23.09-18.89,17.2-23.16.98-59.8,4.9-60.86,2.44-.66,11.14,12.97,13.99,31.48,4.69,30.44-9.87,51.65-4.31,55.29,1.64,1.07,7.38,2.15,34.11-25.69,24.84-25.88,41.06-42.77,55.03-70.09,24.05-47.02,23.97-90.8,24.98-90.62.72.13-3.38,21.96-8.13,57.51-3.51,26.26-3.89,33.93-8.71,45.89-5.5,13.64-13.09,23.52-24.98,36.6-36.7,40.37-47.91,37.33-62.74,58.09-21.55,30.17-27.09,77.5-6.97,109.8,3.15,5.06,18.83,30.23,47.06,33.11,20.85,2.13,36.29-9.15,39.5-11.62,3.18-2.44,26.08-20,20.33-37.76-3.86-11.93-19.94-21.75-30.79-16.85-8.99,4.07-13.76,17.97-9.88,23.24,2.48,3.36,8.02,2.55,8.13,4.07.15,2.04-9.6,6.1-18.01,5.23-13.63-1.42-25.95-15.34-29.05-29.05-6.48-28.64,26.34-60.96,44.73-57.51,9.09,1.7,9.35,11.14,26.72,20.91,7.56,4.25,17.45,9.82,28.47,8.13,11.96-1.83,13.56-10.44,31.95-24.98,17.74-14.03,36.81-22.28,36.6-22.66-.14-.25-7.11,5.48-15.69,4.65,0,0-8.26-.81-15.1-8.71-12.25-14.15-.23-46.9,15.1-89.46,15.83-43.93,23.75-65.9,24.4-68.55,5.67-23.17,16.82-68.79-1.74-117.35-6.15-16.08-21.38-55.91-58.67-70.87-22.02-8.84-44.45-6.08-70.29-2.9-20.54,2.52-18.6,4.95-52.86,12.2-51.17,10.82-64.3,7.26-86.26,21.6Z"/>
          <path class="cls-10" d="M407.81,211.98c-6.86,7.31-10.88,21.35-18.91,49.43-8.39,29.33-7.73,38.51-3.01,45.13,2.42,3.4,5.68,5.79,15.9,9.89,14.73,5.9,31.37,12.57,56.74,12.89,20.17.26,38.31.5,52.44-12.04,6.35-5.64,9.78-11.98,11.18-14.61,7.8-14.73,6.76-28.88,6.02-37.4-.66-7.61-2.85-32.82-23.64-52.87-5.28-5.09-19.69-18.58-42.55-20.63-1.61-.14-32.92-2.45-54.16,20.2Z"/>
          <path class="cls-10" d="M418.95,724.64c-7.7,6.77-14.77,10.44-19.88,12.54-18.83,7.75-30.59,10.09-30.59,10.09-1.25.25-4.08.78-6.93,2.83-3.69,2.65-3.92,5.34-6.28,8.55-4.15,5.62-7.74,3.19-19.6,10.56-5.3,3.29-6.24,4.81-10.81,6.53-5.45,2.06-7.57,1.21-10.81,2.26-11.49,3.72-19.87,25.81-12.57,37.45,1.94,3.09,4.62,4.86,8.29,7.29,6.14,4.06,10.77,4.84,17.59,7.04,4.62,1.48,10.45,4.17,22.12,9.55,14.82,6.83,17.51,9.02,22.87,8.04,3.67-.67,6.45-2.44,10.05-1.01,3.49,1.39,3.74,4.2,7.29,6.03,3.68,1.9,7.28.87,11.06.25,2.46-.4,8.59-.1,20.86.5,15.59.77,14.97,4.54,36.95,7.54,11.65,1.59,17.47,2.39,23.18,1.47,1.21-.2,3.67-.67,6.93-.26,4.86.61,5.86,2.47,10.02,3.34,3.85.81,10.89.88,13.1-3.08,1.38-2.47.72-6.22-1.28-8.48-3.72-4.19-10.77-1.76-11.56-3.85-.99-2.63,9.31-8.82,13.1-11.04,19.33-11.32,25.83-10.92,33.39-19.01,1.7-1.81,7.22-7.87,9.25-17.21,3.71-17.13-7.44-31.1-12.39-37.3-3.53-4.42-9.71-11.95-17.97-12.13-2.07-.05-2.23.42-4.9.58-8.22.5-13.79-3.43-19.9-6.35-10.13-4.84-9.83-1.23-23.36-6.35-10.82-4.08-20.04-9.79-22.79-11.54-9.86-6.26-14.95-11.33-17.88-9.52-2.87,1.78-1.54,8.88-2.31,8.94-.35.03.59-6.11-2.02-7.79-1.61-1.04-4.16-.11-6.56,1.25"/>
          <path class="cls-10" d="M135.23,919.48c22.22-28.89,113.46,19.53,245.47,19.56,23.68,0,58.83-1.54,59.95,5.05.71,4.19-12.63,9.78-35.97,19.56-23.9,10.02-36.17,15.06-51.74,16.41-12.86,1.11-22.42-.5-41.02-3.79-28.72-5.07-33.21-8.96-56.16-13.88-31.07-6.66-37.99-2.77-84.56-11.36-22.8-4.21-38.08-8.26-40.39-17.67-1.51-6.17,3.15-12.23,4.42-13.88Z"/>
          <path class="cls-10" d="M199.38,1001.72c-12.42,8.82-14.5,5.79-24.7,13.33-3.79,2.8-21.45,15.85-19.21,29.79.1.6,1.41,8.15,6.66,10.19,5.61,2.18,10.36-4.01,23.13-11.37,4-2.31,18.4-10.26,36.45-12.54,8.49-1.07,16.39-.71,16.46,0,.09.91-12.7.88-28.62,6.27-17.23,5.84-13.42,9.67-36.06,19.6-6.77,2.97-14.65,5.93-15.95,12.25-.18.9-.69,4.07,1.08,5.76,4.9,4.69,22.41-6.55,23.4-7.2,12.35-8.04,12.42-13.58,22.32-17.64,10.21-4.19,19.76-2.25,19.8-1.8.04.51-12.29-.88-24.12,6.48-6.51,4.05-5.43,6.11-12.97,11.63-11.84,8.66-23.43,10.08-23.03,12.3.23,1.29,4.28,1.54,4.7,1.57,6.24.35,11.62-3.05,22.14-12.3,9.33-8.2,14.43-13.72,14.76-13.42.34.3-4.7,6.22-8.72,10.96-5.77,6.79-8.3,9.26-12.03,11.4-2.93,1.68-5.33,2.42-5.27,2.57.1.26,7.42-1.36,14.33-5.14,9.73-5.32,10.59-10.53,17.33-14.67,8.62-5.29,18.35-3.58,25.7-2.51,30.53,4.44,63.18,4.17,75.6,3.51,17.17-.9,30.98-4.9,58.58-12.89,24.69-7.15,35.46-12.29,52.14-18.16,34.38-12.09,61.25-15.77,100.18-21.09,53.92-7.37,72.92-4.13,105.45-14.65,14.2-4.59,27.24-11.85,53.31-26.36,10.14-5.65,13.17-7.72,12.89-9.96-.85-6.6-29.54-6.21-87.29-10.54-67.01-5.03-81.43-6.44-81.43-6.44-32.24-3.16-52.05-5.89-76.16,3.51-10.79,4.21-12.52,6.98-25.19,14.06-34.78,19.45-67.26,24.04-100.18,28.71-43.66,6.18-65.49,9.27-82.02,2.93-3.73-1.43-13.57-5.68-24.02-2.34-7.51,2.4-8.78,6.63-19.46,14.21Z"/>
          <path class="cls-10" d="M441.88,339.74c-1.83.49-2.9,1.41-4.55,2.71-4.87,3.82-5.81,3.89-5.81,4.84,0,.65.45,1.73,6.49,4.36,4.13,1.8,7.16,3.11,11.91,4.07,3.31.66,7.46,1.46,12.87.87,6.18-.67,10.22-2.75,12-3.78,2.66-1.54,5.71-3.3,5.61-5.52-.11-2.53-4.22-4.22-6.68-5.23-.97-.4-3.58-1.41-11.81-2.23-9.36-.93-9.84-.01-16.94-.39-.53-.03-1.68-.09-3.1.29Z"/>
          <path class="cls-14" d="M431.3,731.91c-4.66.11-4.12,9.18-13.04,17.06-4.65,4.11-5.86,2.58-19.73,11.04-7.55,4.6-9.73,6.6-10.7,9.7-1.13,3.61-.57,8.59,1.65,12.23,1.7,2.78,3.49,3.3,4.71,6.84.63,1.83.81,3.59,2.01,4.01,1.04.37,2.18-.52,2.91-1.01,4.8-3.19,12.58-2.55,17.01-.45,2.01.96,2.35,1.75,4.7,2.46,3.04.93,5.61.56,6.49.45,1.56-.19,6.63.39,16.78,1.57,13.61,1.57,13.75,2.72,23.05,3.36,9.52.65,14.81.94,17.01-2.24,1.18-1.71.5-5.64-.9-13.43-1.03-5.75-1.55-8.63-2.69-11.41-1.17-2.86-3.35-8.22-8.28-12.08-4.79-3.75-6.84-1.91-14.77-5.59-7.11-3.3-11.9-7.77-14.1-9.85-8.08-7.65-8.61-12.73-12.1-12.65Z"/>
          <path class="cls-14" d="M304.82,10.84c-9.56,3.97-17.34,9.49-16.82,10.67.67,1.52,13.82-7.02,29.11-5.17,13.1,1.58,28.49,10.86,34.61,24.9,9.12,20.92-10.71,33.14-1.62,57.89,4.99,13.57,13.63,17.2,13.26,30.73-.2,7.58-3.15,15.06-6.15,22.64-1.4,3.54-3.02,7.1-8.73,20.38-4.2,9.77-5.23,12.27-4.2,13.26,2.39,2.3,13.53-6.01,19.08-9.7,5.78-3.85,15.11-9.08,74.39-18.44,41.8-6.6,52.75-6.45,70.18-16.49,10.6-6.11,25.68-17.18,23.61-23.29-.74-2.16-3-1.86-7.44-4.85-9.61-6.48-7.22-13.44-15.52-20.38-7.93-6.62-14.39-3.86-17.46-10.03-2.61-5.24,1.58-8.16-.32-13.58-3.97-11.3-27.27-13.06-34.28-13.58-13.92-1.05-14.08,1.88-23.93.97-5.8-.54-15.97-2.5-47.54-26.2-24.65-18.5-22.92-20.66-32.02-23.61-21.8-7.07-42.93,1.7-48.19,3.88Z"/>
          <path d="M474.55,272.2c.11-3.05,3.94-5.1,6.43-6.43,9.33-5,18.87-3.36,24.47-2.32,5.07.94,8.45,1.62,9.64,4.29,1.82,4.08-2.97,9.5-3.57,10.18-5,5.65-12.36,6.11-14.64,6.25-8.65.54-14.62-3.7-16.97-5.36-2.52-1.78-5.46-3.87-5.36-6.61Z"/>
          <path d="M438.46,271.29c.03-3.76-5.84-6.5-9.49-8.21-8.48-3.96-15.62-3.49-25.68-2.83-4.38.29-6.55.75-7.77,2.45-2.65,3.71,1.4,10.3,1.68,10.75,3.61,5.73,9.88,7.47,12.46,8.19,11.3,3.13,20.5-2.48,22.66-3.8,2.79-1.7,6.11-3.73,6.14-6.55Z"/>
          <path d="M438.43,192.26c-3.77.96-17.51,4.68-27.62,11.73-21.68,15.12-25.01,44.41-29.51,84-2.92,25.69-4.71,41.38.38,62.05,4.93,20.03,10.13,19.65,20.81,51.84,7.65,23.06,12.27,37.47,10.59,56.38-1.74,19.66-9.42,34.4-7.57,35.19,1.5.64,7.87-8.51,11.73-18.54,5.93-15.4,5.85-32.63-1.14-57.51-10.54-37.53-20.67-35.06-28-63.94-6.38-25.14-3.52-46.03.38-74.54,3.04-22.23,4.79-34.04,13.24-47.67,4.82-7.77,17.61-28.4,42-33.3,23.61-4.74,42.66,8.34,51.46,14.38,6.44,4.42,22.93,15.74,29.51,36.32,3.05,9.54,3.04,18.14-3.03,49.19-6.68,34.19-10.02,51.28-15.13,64.32-7.44,18.98-17.84,45.51-42.38,67.73-10.97,9.93-15.48,10.59-28,23.46-17.6,18.09-30.8,39.5-28.38,41.62,2.2,1.93,17.41-12.04,25.73-19.67,10.89-10,18.37-18.33,32.92-34.81,18.44-20.9,27.66-31.35,28.76-32.92,16.11-23.15,22.58-45.01,25.73-56,5.49-19.12,6.71-33.79,7.95-49.57,3.06-39.17,4.59-58.75-5.68-76.43-10.71-18.44-30.98-33.01-52.59-35.94-14.14-1.92-27.13,1.37-32.16,2.65Z"/>
          <path d="M437.77,283.41c.3.42-3.65,4.34-8.74,7.36-8,4.75-16.39,5.83-16.56,5.29-.11-.34,3.07-1.21,9.77-4.42,9.93-4.75,15.2-8.7,15.53-8.23Z"/>
          <path d="M477.5,282.16c-.35.37,2.6,4.96,7.59,8.13,7.63,4.84,16.44,4.05,16.53,3.52.07-.44-5.74-.52-13.27-4.33-6.86-3.48-10.48-7.69-10.84-7.31Z"/>
          <path d="M475.96,239.34c-1.65,1.24-4.05,3.58-3.48,4.88.54,1.24,3.57,1.04,4.6.98,4.81-.32,8.33-2.68,8.92-3.06,9.52-6.32,20.87-7.64,20.62-8.5-.18-.6-5.18,1.46-14.91,2.37-7.34.69-11.5.17-15.74,3.34Z"/>
          <path d="M501.02,239.69c.3-.58.97-1.68,2.46-2.79,2.77-2.06,6-2.4,6.09-2.09.09.32-3.26.76-6.22,3.9-1.99,2.11-2.78,4.34-3.11,4.18-.27-.14.06-1.82.78-3.2Z"/>
          <path d="M504.47,241.79c-.23-.47,1.51-1.93,3.2-2.79,2.22-1.12,4.93-1.51,5.15-.98.22.53-1.98,1.98-3.76,2.79-1.84.83-4.35,1.48-4.6.98Z"/>
          <path d="M466.47,243.14c-.3-.24.86-2.68,2.72-4.68,3.57-3.84,8.7-4.95,8.91-4.53.14.29-2.13,1.2-6.04,4.38-3.61,2.93-5.28,5.08-5.59,4.83Z"/>
          <path d="M445.17,248.26c1.32,1.24,3.24,3.58,2.79,4.88-.43,1.24-2.86,1.04-3.68.98-3.85-.32-6.67-2.68-7.14-3.06-7.62-6.32-16.71-7.64-16.51-8.5.14-.6,4.15,1.46,11.93,2.37,5.88.69,9.21.17,12.6,3.34Z"/>
          <path d="M419.97,245.33c-.26-.58-.83-1.68-2.12-2.79-2.38-2.06-5.16-2.4-5.24-2.09-.08.32,2.8.76,5.35,3.9,1.71,2.11,2.39,4.34,2.68,4.18.24-.14-.05-1.82-.67-3.2Z"/>
          <path d="M417.4,246.87c.19-.47-1.21-1.93-2.57-2.79-1.77-1.12-3.95-1.51-4.13-.98-.17.53,1.59,1.98,3.01,2.79,1.47.83,3.48,1.48,3.68.98Z"/>
          <path d="M449.89,250.74c.24-.24-.69-2.68-2.18-4.68-2.86-3.84-6.97-4.95-7.13-4.53-.11.29,1.7,1.2,4.84,4.38,2.89,2.93,4.23,5.08,4.47,4.83Z"/>
          <path d="M486.39,348.92c-.06.35-8.69-1.07-25.66-2.42-11.32-.9-16.1-.95-22.03.13-5.07.92-9.84,2.46-9.94,2.15-.09-.27,3.44-1.89,7.39-2.96,2.64-.71,6.37-1.43,17.2-1.21,4.81.1,8.31.17,13.3.67,10.57,1.06,19.81,3.26,19.75,3.63Z"/>
          <path d="M435.45,350.15c-.17.44,7.09,4.77,16.62,6.4,3.6.61,9.56,1.57,16.37-.62,4.57-1.46,8.14-3.89,8-4.19-.15-.32-4.5,2.38-10.96,3.32-5.57.81-10.06-.07-16.86-1.48-8.55-1.76-13.04-3.78-13.17-3.45Z"/>
          <path d="M438.54,340.87c3.71-1.92,7.32-1.77,9.94-1.67,16.02.59,17.18,0,22.43,1.48,3.67,1.04,7.28,2.51,7.18,2.85-.13.46-6.78-1.73-16.92-2.75-8.11-.82-14.99-1.45-21.74,1.18-1.21.47-4.07,1.69-4.23,1.38-.14-.27,1.71-1.62,3.35-2.46Z"/>
          <path d="M381.91,174.23c23.29-7,27.71-4.22,61.04-9.86,42.93-7.27,64.71-11.23,80.29-27.7,17.76-18.77,21.62-45.61,19.72-46.48-1.29-.59-5.53,10.61-15.02,22.07-7.14,8.62-21.78,22.83-65.73,36.15-38.16,11.56-37.89,4.08-75.59,15.49-48.59,14.71-60.42,30.65-65.26,40.38-4.91,9.85-6.97,22-5.63,22.54,1.41.56,5.52-12.18,14.55-23.48,4.17-5.21,16.02-18.4,51.65-29.11Z"/>
          <path d="M348.11,183.15c-2.51-.2-5.27-8.57-4.23-16.9,1.57-12.53,10.52-15,11.74-26.29.8-7.37-2.65-9.66-5.16-19.25-3.89-14.84.78-23.06,1.88-36.62,1.61-19.84-4.49-50.18-23.48-59.63-11.65-5.8-29.42-4.36-37.56,6.1-6.95,8.94-6.6,24.11-.47,28.17,6.24,4.13,17.97-3.58,18.78-1.88.46.96-2.91,4.18-7.04,5.63-7.59,2.66-17.24-.84-21.6-6.57-7.8-10.26-.84-30.52,11.74-40.38,14.22-11.15,35.61-8.98,48.36.47,17.75,13.16,17.81,39.71,17.84,50.71.04,14.16-3.44,19.52-1.88,38.5,1.76,21.34,7.09,25.97,9.86,27.7,6.03,3.78,13.69,2.45,19.72,1.41,12.79-2.21,19.97-8.49,20.66-7.51.85,1.2-9.17,11.84-23.94,20.66-12.86,7.68-16.37,6.24-22.54,12.68-9.96,10.4-9.53,23.26-12.68,23.01Z"/>
          <path d="M523.27,121.94c-1.2.47-3.35-7.7-10.56-14.62-11.49-11.02-27.94-11.32-38.98-11.37-24.05-.11-27.82,7.4-57.65,11.37-22.03,2.93-42.05,1.77-42.22,0-.14-1.44,12.92-2.64,33.83-8.23,26.55-7.09,26.76-10.84,43.89-14.63,16.09-3.56,44.82-9.92,60.8,5.49,11.95,11.53,12.67,31.29,10.88,31.99Z"/>
          <path d="M494.1,84.92c2.45-1.35.71-15.01-7.77-23.32-9.59-9.4-20.48-4.8-42.52-8.69-24.97-4.4-43.02-15.96-49.37-20.12-22.81-14.91-20.93-24.57-37.03-30.17-26.43-9.2-54.86,8.7-54.86,8.69,0,0,14.84-9.8,33.37-6.86,14.02,2.23,18.69,9.92,44.8,28.34,16.48,11.63,24.72,17.44,31.54,20.12,27.78,10.89,42-.83,61.72,12.34,13,8.69,17.64,21.02,20.12,19.66Z"/>
          <path d="M333.84,209.3c-2.55,4.93-10.76,21.99-10.04,45.8.88,28.92,13.95,35.32,20.7,62.11,6.58,26.1,5.74,65.88-15.06,89.72-28.99,33.22-88.2,25.64-87.84,31.37.18,2.94,15.72,4.88,28.23,4.39,6.88-.27,42.14-1.64,67.13-30.74,25.87-30.13,20.94-66.93,20.08-73.41-3.11-23.2-12.07-21.86-19.96-54.02-4.24-17.31-10.22-43.02-.69-69.16,8.58-23.53,25.7-36.34,24.77-37.16-.89-.79-16.98,11.05-27.34,31.09Z"/>
          <path d="M383.09,173.01c-3.19-1.23-15.53,15.92-22.9,37.75-4.18,12.38-11.5,40.36,3.71,116.96,10.06,50.63,17.68,60.69,9.9,79.21-10.57,25.18-37.82,37.93-51.98,44.56-37.59,17.59-53.98,5.64-73.02,22.9-25.54,23.16-19.67,66.09-19.18,69.31,7.63,50.65,58.72,82.37,58.79,82.3.05-.04-19.95-13.27-33.42-40.84-5.17-10.59-22.45-45.97-8.04-73.02,3.24-6.08,8.38-12.31,62.5-38.37,44.79-21.56,51.07-22.01,59.41-32.8,15.55-20.12,14.54-45.51,13.61-68.69-1.5-37.62-11.88-45.3-16.71-76.73-10.24-66.66,22.89-120.38,17.33-122.53Z"/>
          <path d="M396.34,415.86c-1.89.04,3.88,20.18-6.3,40.64-14.84,29.84-44.58,22.08-74.42,53.24-3.23,3.37-31.8,34.09-28.62,73.84.57,7.18,2.41,26.65,17.17,41.22,13.72,13.54,33.04,17.34,34.35,14.88,1.43-2.69-20.74-9.3-32.06-29.77-12.73-23.03-8.13-57.13,8.01-79,8.82-11.94,22.48-20.75,49.8-38.35,18.15-11.7,23.57-13.24,29.19-21.75,14.97-22.65,5.26-55,2.86-54.95Z"/>
          <path d="M445.32,161.6c-1.04-.97-15.95,12.96-27.79,25.31-19.08,19.88-28.62,29.82-34.94,42.46-11.63,23.29-11.26,45.77-10.91,67.34.37,23.05,4.41,41.59,5.06,41.52.65-.07-2.84-19.07-1.6-45.52,1.12-23.8,2.05-43.76,13.58-63.35,6.09-10.36,7.27-7.23,32.47-36.73,4.21-4.93,25.46-29.8,24.13-31.03Z"/>
          <path d="M413.2,166.02c-.97-.85-9.14,6.12-15.7,13.58-15.01,17.02-22.04,36.94-20.5,37.8.27.15.88-.26,19.17-25.82,15.13-21.15,17.67-24.99,17.04-25.55Z"/>
          <path d="M360.49,178.26c-1.53-.64-22.45,26.88-24.49,65.22-2.04,38.29,15.75,69,16.77,68.68.81-.25-9.08-20.08-10.65-49.24-2.61-48.66,20.06-83.93,18.37-84.65Z"/>
          <path d="M337.47,425.18c-6.44,5.98-13.17,8.78-26.36,14.12-34.64,14.03-44.43,7.59-62.14,18.52-24.06,14.84-32.18,42.89-32.01,43,.11.07,4.82-11.39,16.63-22.6,14.28-13.54,30.65-18.84,42.68-22.6,23.77-7.43,24.61-1.88,39.86-8.47,6.86-2.97,28.57-13.56,38.92-37.35,7.47-17.17,5.73-33.68,4.39-33.9-1.83-.3-1.14,29.92-21.97,49.27Z"/>
          <path d="M335.1,306.5c-.89-.09,0,13.88-7.59,31.48-7.29,16.91-23.7,40.19-41.34,39.44-8.18-.35-15.69-5.83-16.69-4.17-.69,1.14,2.3,4.74,5.69,6.83,10.11,6.22,24.31-.65,27.69-2.28,15.15-7.33,22.19-20.89,25.41-27.31,10.95-21.82,7.94-43.88,6.83-43.99Z"/>
          <path d="M338.89,350.49c-.94-.43-4.84,13.79-18.58,28.44-7.28,7.76-22.99,24.52-46.27,24.65-2.18.01-24.1-.18-36.79-15.55-11.12-13.47-8.75-30.84-10.62-30.72-1.8.12-6.09,16.3,1.14,29.96,8.36,15.81,27.57,19.57,34.13,20.86,17.41,3.41,38.66-.24,54.99-14.41,20.17-17.5,23.21-42.68,22-43.24Z"/>
          <path d="M319.24,407.9c-.22-.43-8.28,5.02-22.85,9.35-10.23,3.04-32.32,9.6-55.05,2.42-19.04-6.01-29.19-18.72-30.81-16.96-1.41,1.53,5.11,12.37,15.58,19.39,16.13,10.8,35.07,8.12,45.01,6.58,28.07-4.36,48.47-20.08,48.12-20.77Z"/>
          <path d="M381.65,442.81c.9,1.09-18.08,24.64-49,41.79-34.14,18.94-48.62,11.11-61.61,27.38-19.57,24.51-5.13,65.36-.72,77.82,4.52,12.79,17.01,48.11,49,58.73,3.05,1.01,32.25,10.7,45.76-5.76,8.76-10.68,8.93-29.96-1.8-40.35-9.65-9.34-27.62-11.03-33.51-3.6-3.47,4.38-3.44,12.82,1.08,16.93,4.2,3.83,12.18,3.83,14.05.72,1.09-1.81.32-5-1.55-6.38-3.05-2.24-8.25.94-8.7,0-.32-.67,2.02-3.08,5.02-3.67,3.52-.7,7.7,1.14,9.08,4.25,1.9,4.28-1.91,10.07-5.99,11.98-7.72,3.62-21.65-4.21-23.77-14.3-2.39-11.36,10.56-23.78,22.8-25.12,13.06-1.43,22.64,10.05,28.6,17.2,4.07,4.88,18.52,22.21,13.08,36.77-6.53,17.47-37.91,20.89-58.5,16.71-21.24-4.31-34.62-17.43-42.2-25.07-34.18-34.43-31.64-79.88-30.92-92.77.6-10.71,2.45-17.24,5.91-23.02,5.98-9.99,14.62-14.18,36.11-23.64,37.94-16.7,40.61-16.67,52.73-23.33,22.53-12.39,34.37-24.09,35.04-23.28Z"/>
          <path d="M389.69,377.96c-.87.16,1.01,7.28.43,19.93-.76,16.61-5.02,26.47-3.9,26.86,1.14.39,7.39-9.13,8.66-21.23,1.45-13.73-4.04-25.77-5.2-25.56Z"/>
          <path d="M312.31,243.9c-.75-.1-8.7,18.83-1.88,39.01,5.05,14.92,16.07,24.32,16.5,24,.38-.28-7.52-8.14-12.38-21-8.3-21.96-1.48-41.9-2.25-42.01Z"/>
          <path d="M455.58,161.62c1.04.34.62,4.9,0,7.92-4.32,21.17-31.68,34.56-32.55,33.43-.54-.71,9.95-6,20.23-21.11,7.23-10.64,10.7-20.76,12.31-20.23Z"/>
          <path d="M453.88,163.52c2.02-1.17,8.73,16.98,28.63,30.45,20.02,13.55,32.36,8.12,44.53,17.27,18.86,14.17,15.98,47.3,12.72,79.98-3.94,39.61-9.57,96.09-51.35,148.14-28.12,35.03-41.66,29.48-58.16,60.89-18.24,34.73-27.6,90.82,1.36,118.15,15.16,14.31,42.09,21.92,61.34,11.36,14.17-7.78,26.67-26.77,20.9-39.99-3.68-8.44-14.98-14.95-24.08-12.72-.62.15-9.19,2.38-10.45,9.09-.62,3.29.54,7.51,3.94,9.86,3.48,2.39,8.75,2.43,10.7,0,3.03-3.77-2.93-12.24-1.69-12.95.88-.5,5.15,2.99,5.63,7.6.6,5.68-4.66,11.86-10.42,12.11-6.6.28-11.42-7.35-11.83-13.23-.62-8.98,8.88-15.94,16.05-18.3,9.02-2.97,19.92-.48,25.91,6.19,10.66,11.89,2.42,33.35-4.51,43.93-14.52,22.18-41.5,24.33-44.21,24.5-31.7,2.02-53.09-23.22-55.75-26.47-27.38-33.36-17.79-86.02.52-116.88,7-11.8,18.66-23.25,41.99-46.14,25.62-25.14,33.74-28.44,45.62-44.58,12.96-17.61,17.43-32.88,25.4-60.14,12.07-41.26,24.62-84.15,5.18-117.68-3.74-6.45-9.48-16.35-21.01-23.28-15.62-9.38-25.73-3.64-38.9-12.78-16.12-11.18-20.2-33.11-18.08-34.34Z"/>
          <path d="M410.86,480.61c-2.79,1.6-3.74,4.74-4.1,5.85-3.14,9.66-12.36,21.01-14.92,23.88-7.09,7.94-19.76,14.31-25.47,10.38-4.26-2.93-5.38-12.1-1.26-16.04,3.24-3.1,9.83-3.06,11.32-.63.89,1.45.2,4.11-1.21,4.84-1.58.81-3.45-1.11-4.23-.4-.88.79.09,4.43,2.02,5.04,2.45.77,7.07-3.16,7.26-7.46.17-3.97-3.49-7.44-6.85-8.47-7.44-2.27-19,5.69-19.15,14.92-.12,7.48,7.27,14.13,14.31,15.52,10.56,2.09,20.47-7.63,33.26-20.16,3.35-3.29,7.54-8.24,15.92-18.14,17.9-21.15,18.06-23.09,17.94-23.18-.37-.31-8.85,13.92-18.34,13.3-1.55-.1-4.05-.66-6.5.75Z"/>
          <path d="M384.53,305.81c.48-.89,7.91,2.83,25.7,9.25,13.35,4.82,20.03,7.22,26.99,8.48,9.7,1.75,17.09,1.34,31.87.51,16.78-.94,25.18-1.41,33.93-5.4,10.84-4.94,17.05-12.01,17.99-11.05.93.95-4.06,9.08-11.05,14.91-14.31,11.93-33.02,10.9-53.72,9.77-11.31-.62-29.17-1.77-49.1-11.31-12.52-6-23.22-14.04-22.62-15.17Z"/>
          <path d="M389.9,317.62c-.44.1,1.22,13.73,6.06,28.96,7.46,23.47,12.4,24.94,20.88,49.17,5.17,14.77,9.04,26.17,8.76,41.76-.19,10.4-2.17,19.82-1.35,19.98.84.16,4.37-9.35,5.61-19.08,2.31-18.12-3.69-32.71-11.9-51.86-9.15-21.36-13.08-22.41-20.21-42.66-5.12-14.55-7.45-26.37-7.86-26.27Z"/>
          <path d="M413.25,332.66c-1.37.53,1.2,15.02,8.31,29.86,9.68,20.21,17.56,19.72,21.55,35.25,4.2,16.34-.65,31.98-1.12,33.45-2.81,8.7-7.16,14.92-6.29,15.49.95.62,7.36-5.78,11.67-13.7,1.67-3.06,9.25-17.77,5.39-34.8-2.7-11.93-8.14-12.28-21.33-32.78-12.44-19.33-16.81-33.31-18.19-32.78Z"/>
          <path d="M403.82,328.17c-.36.03-1.57,7.42.67,17.06,3.4,14.64,11.03,18.45,19.17,32.27,1.86,3.16,10.79,18.81,11.99,40.17.4,7.1,1.01,20.79-5.7,35.22-3.44,7.39-7.99,13.25-7.64,13.49.37.25,6.06-5.91,10.19-13.79,6.57-12.54,6.63-24.59,6.59-29.98-.06-8.61-3.14-18.03-9.29-36.87-2.55-7.81-5.01-14.25-10.19-20.98-3.69-4.8-4.61-4.34-7.49-8.24-9.33-12.63-7.78-28.39-8.3-28.35Z"/>
          <path d="M457.88,428.78c1.12.65,10.67-13.72,16.19-22.52,8.15-12.99,14.1-24.32,19-34.25,8.43-17.09,20.54-43.78,19-44.57-1.62-.83-17.68,27.55-20.41,32.38-7.98,14.1-13.09,24.48-21.58,41.76-8.3,16.91-13.09,26.7-12.2,27.21Z"/>
          <path d="M461.17,398.28c1.35.21,1.09-12.02,9.38-25.81,5.37-8.92,8.71-9.17,20.65-24.87,2.47-3.24,10.69-14.05,9.62-15.01-.81-.73-6.7,4.33-10.79,8.45-6.05,6.09-7.25,9.19-15.48,20.41-8.44,11.51-9.57,11.49-11.5,16.19-4.15,10.13-3.11,20.45-1.88,20.65Z"/>
          <path d="M431.88,354.73c-.61.73,4.55,4.41,12.42,15.35,5.85,8.14,8.19,13.33,9.14,12.93.99-.41.02-6.71-2.76-12.24-5.74-11.43-17.92-17.09-18.8-16.04Z"/>
          <path d="M453.57,361.44c-.35.57,2.27,1.89,3.74,5.51.51,1.25.68,2.28.76,2.85.66,4.24-.91,7.71-.76,7.76.25.08,1.66-10.3,8.94-16.53,3.72-3.18,7.28-3.84,7.07-4.47-.29-.86-7.43-.85-11.23,3.33-2.08,2.29-2.97,5.62-3.74,5.41-.47-.13-.15-1.37-1.06-2.53-1.13-1.45-3.42-1.8-3.72-1.32Z"/>
          <path d="M421.87,325.42c-.56.06-.87,4.85-.22,9.47.54,3.87,1.73,7,4.12,13.26,1.14,2.99,2.29,5.99,2.56,5.91.34-.1-.97-4.71-2.79-12.71-2.52-11.14-3.11-16-3.68-15.94Z"/>
          <path d="M430.56,326.64c-.62-.06-1.99,2.93-1.45,5.8.2,1.07.48,1.14,1.89,4.46,1.03,2.43,1.4,3.61,1.56,3.57.2-.05-.18-1.91-.56-4.24-1.13-6.91-.88-9.53-1.45-9.59Z"/>
          <path d="M487.88,325.69c-.33-.15-1.91,5.49-7.51,10.1-1.84,1.51-3.66,2.54-3.55,2.73.13.22,2.99-.78,5.32-2.59,4.9-3.81,6.07-10.08,5.73-10.23Z"/>
          <path d="M441.59,329.73c-.35.05-.62,2.11,0,4.07.69,2.18,2.34,3.8,2.64,3.63.14-.08-.04-.52-.88-2.97-1.39-4.07-1.55-4.75-1.76-4.72Z"/>
          <path d="M454.45,329.29c-.38-.04-2.09,3.47-.44,5.49,1.3,1.59,4.02,1.44,4.13,1.11.08-.25-1.35-.46-2.43-1.77-1.68-2.03-.92-4.8-1.26-4.83Z"/>
          <path d="M461.9,330.43c-.11.12,3.32,2.32,3.17,5.31-.08,1.54-1.07,2.6-.81,2.8.3.23,2.03-.83,2.36-2.28.64-2.89-4.58-5.97-4.72-5.82Z"/>
          <path d="M470.08,329.83c-.73.49,1.27,2.9.25,5.52-.92,2.36-3.59,3.09-3.37,3.56.18.41,2.32.13,4.11-.98.8-.5,3.18-1.98,3.07-4.23-.13-2.53-3.3-4.37-4.05-3.86Z"/>
          <path d="M398.84,314.78c-1.49.82-1.08,2.93-1.98,9.52-.7,5.1-1.07,4.8-1.06,6.87.04,5.89,3.07,10.77,3.7,10.58.79-.24-3.76-8.02-.66-15.86,1.97-4.99,5.93-7.22,4.89-9.52-.71-1.57-3.4-2.41-4.89-1.59Z"/>
          <path d="M406.77,318.22c-1.91,1.85-1.89,5.14.13,13.35,2.93,11.88,7.23,22.68,7.8,22.47.43-.16-3.07-5.89-3.44-14.94-.49-12.12,5.09-19.3,1.98-21.81-1.64-1.32-4.84-.66-6.48.93Z"/>
          <path d="M390.38,310.95c.78.54-2.3,5.22-3.83,9.52-2.73,7.63-1.28,15.94,9.52,39.92,8.41,18.67,14.22,28.5,13.48,28.95-.71.43-7.16-7.96-12.56-17.45-7.29-12.79-9.83-22.61-12.56-33.44-2.81-11.19-2.97-16.67-.26-21.41,1.99-3.49,5.51-6.56,6.21-6.08Z"/>
          <path d="M495.6,379.05c-.47-.23-3.13,5.75-10.7,17.66-10.08,15.85-17.46,24.27-16.89,24.75.54.45,7.81-6.19,14.18-14.96,9.69-13.31,14.11-27.12,13.41-27.46Z"/>
          <path d="M475.97,371.45c-2.29,2.82-3.67,5.71-5.09,9.81-3.34,9.64-1.97,11.61-4.3,18.58-3.42,10.21-9.8,16.26-9.06,16.86.43.35,2.85-1.54,4.91-3.9,5.48-6.28,4.51-11.38,8.81-23.15,1.04-2.85,2.78-7.55,6.04-13.21,4.11-7.14,7.77-10.86,7.17-11.45-.6-.59-5.1,2.31-8.48,6.47Z"/>
          <path d="M455.16,167.06c.84.04,3.18,9.31-.89,17.83-4.19,8.77-13.32,12.84-13.82,12.26-.41-.48,5.28-3.93,9.58-11.81,5.26-9.64,4.31-18.31,5.13-18.28Z"/>
          <path d="M456.28,161.49c-1.57,2.22,9.01,15.23,24.29,23.18,13.36,6.95,19.37,4.34,32.54,10.25,0,0,17.48,7.85,29.42,24.74,8.26,11.68,12.26,26.46,9.81,65.08-2.97,46.7-4.62,72.62-19.26,104.37-10.19,22.11-25.27,41.33-55.42,79.78-20.27,25.85-30.41,35.92-37.34,57.77-3.17,10-12.97,40.95,2.75,62.88,10.15,14.16,27.28,19.43,27.9,18.47.67-1.02-18.17-7.87-26.73-24.37-13.72-26.47,6.67-63.07,17.29-82.14,15.42-27.67,24.45-29.88,48.73-63.28,15.21-20.91,30.16-41.49,41.27-69.96,3.47-8.89,24.18-64.14,8.25-128.12-5.07-20.39-10.47-40.84-27.9-51.49-10.38-6.33-16.06-3.72-41.66-13.36-22.07-8.32-32.56-15.8-33.96-13.82Z"/>
          <path d="M480.8,152.91c-.17,1.02,27.47-.07,54.24,17.69,28.74,19.06,40.19,49.03,44.41,60.52,21.05,57.31.16,113.02-9.04,137.56-16,42.68-28.16,75.09-56.59,108.47-9.66,11.34-24.99,27.24-22.4,46.38,1.72,12.74,11.33,26.57,25.94,30.66,23.4,6.54,43.05-16.59,42.45-17.69-.57-1.03-20.09,15.46-33.8,8.65-10.85-5.39-14.84-23.79-11.79-38.12,3.53-16.6,15.82-24.44,25.94-34.59,15.36-15.4,21.77-37.38,34.59-81.35,14-48.02,24.3-83.36,20.04-130.09-2.94-32.24-5.74-62.99-29.08-84.89-32.61-30.59-84.66-24.58-84.89-23.19Z"/>
          <path d="M511.85,141.12c-.15,1.09,22.38-.72,44.8,11,42.4,22.17,54.32,76.96,56.99,89.21,15.24,70.04-16.09,135.83-19.26,142.27-10.03,20.39-29.5,51.72-32.62,92.75-.66,8.72-.81,20.76,7.07,28.69,10.98,11.06,34.72,11.29,42.84,0,6.09-8.47,2.45-22.11,0-22.4-2.83-.34-3.3,17.26-12.18,20.04-7.05,2.21-17.6-5.46-22.4-14.15-8.86-16.03,2.46-34.54,16.11-67.6,2.76-6.7,19.35-47.27,27.9-87.64,5.62-26.53,11.12-53.83,4.72-88.43-2.68-14.51-9.37-48.23-35.76-74.67-8.5-8.51-16.08-13.31-18.08-14.54-28.53-17.64-59.95-15.83-60.13-14.54Z"/>
          <path d="M492.3,93.16c-2.4-.92-5.39,8.24-14.09,15.86-15.92,13.93-37.7,11.07-37.59,12.63.09,1.25,14.02,2.33,29.36-1.47,8.75-2.16,16.26-4.14,20.55-10.86,4.13-6.47,3.97-15.3,1.76-16.15Z"/>
          <path d="M357.22,78.48c.61-2.61,11.98,0,27.6-2.06,27.68-3.65,42.47-18.56,43.75-16.74,1.7,2.42-22.07,32.23-49.62,29.36-11.45-1.19-22.35-7.91-21.73-10.57Z"/>
          <path d="M452.03,243.29c-.18.11,3.1,3.38,4.18,9.19,1.26,6.81-1.41,12.18-.84,12.37.47.15,2.9-3.21,3.18-7.52.5-7.76-6.26-14.2-6.52-14.04Z"/>
          <path d="M463.83,247.43c.47-.12-.98-3.18,0-6.95,1.41-5.42,6.7-7.98,6.27-8.59-.31-.44-3.19.66-5.32,2.73-.71.69-2.8,2.77-3.14,6-.39,3.67,1.69,6.95,2.18,6.82Z"/>
          <path d="M440.81,260.6c.28-.33,5.8,2.07,8.68,7.31,3.79,6.9.92,14.97.69,14.96-.17-.01.88-4.56-1.14-10.05-.88-2.38-2.06-4.2-2.97-5.59-2.91-4.46-5.46-6.38-5.25-6.62Z"/>
          <path d="M468.29,278.43c-.7-.11-.96-3.97-.11-7.32.23-.89.92-3.31,2.68-5.53,4.77-6,13.94-6.21,14.07-5.74.1.36-5.34.49-9.87,4.77-5.91,5.59-5.74,13.98-6.77,13.82Z"/>
          <path d="M458.23,319.15c2.06.34,3.86-.82,4.81-1.42,2.22-1.42,2.03-2.37,3.86-3.12,1.43-.58,3.54-.82,4.2.14.47.68.16,1.94-.34,2.1-.47.15-.8-.76-1.69-.95-.96-.2-1.73.61-2.91,1.49-.5.37-2.5,1.86-4.54,2.44-2.6.74-4.92-.11-5.35-.27-1.01-.39-2.01-1.18-4-2.78-2.66-2.13-2.98-2.78-4.27-2.98-.52-.08-1.89-.2-3.39.34-1.05.38-1.65.9-1.9.68-.29-.25,0-1.39.68-2.03,1.35-1.28,4.3-.64,6.23.34,2.27,1.14,2.37,2.34,6.17,4.88,1.1.73,1.68,1.03,2.44,1.15Z"/>
          <path d="M434.65,310.55c-.82-3.95,2.41-7.48,2.78-7.86.68-.72,2.88-3.05,6.03-2.98,1.87.04,4.4.93,4.81,2.57.27,1.08-.43,2.27-.61,2.24-.19-.04.38-1.49-.27-2.44-.91-1.32-3.89-1.19-5.96-.27-3.53,1.57-4.51,5.5-4.68,6.17-.2.8-.88,3.96.75,6.64.6,1,1.3,1.55,1.29,1.56-.02.02-3.43-2.23-4.13-5.62Z"/>
          <path d="M470.91,304.64c-.12.06-1.89-1.9-1.34-3.16.59-1.37,3.78-1.67,5.68-.41,1.72,1.14,1.95,3.29,2.31,6.67.35,3.3.68,6.45-1.24,9.06-1.47,2-3.67,2.9-3.77,2.75-.11-.15,2.21-1.34,3.69-3.9,2.54-4.41.59-9.43.28-10.22-.52-1.34-1.29-3.32-3.05-3.83-1.08-.32-2.54-.09-2.98.71-.51.92.52,2.3.43,2.34Z"/>
          <path d="M215.67,424.87c-.98-.24-3.47,3.49-15.8,40.45-24.92,74.71-21.71,80.35-34.76,115.03-23.22,61.68-42.87,69.09-40.45,105.55.44,6.61,2.48,32.38,20.23,55.62,27.47,35.97,55.45,17.29,98.6,55.62,20.65,18.34,31,37.51,60.04,46.14,12.28,3.65,25.19,4.61,26.55,1.26,1.62-4.01-15.46-9.17-20.86-24.02-6.86-18.88,9.78-40.76,12.01-43.61,12.33-15.79,32.52-25.4,44.24-30.97,10.35-4.92,16.62-6.68,16.43-9.48-.33-5.08-21.31-5.81-44.87-10.74-28.14-5.9-59.68-12.51-79-34.13-12.13-13.57-15.46-32.86-22.12-71.42-7.15-41.4-6.4-72.03-8.85-72.05-1.8-.02-3.62,16.63-4.42,29.71-2.45,39.96-4.14,67.51,10.74,96.07,3.25,6.23,16.46,30.11,43.61,46.14,33.82,19.96,69.31,15.95,69.52,22.75.16,4.99-19.04,4.46-39.19,20.86-5.28,4.3-23.16,18.84-22.75,37.29.28,12.85,9.3,21.33,7.58,22.75-2.31,1.92-17.1-14.73-32.23-27.18-37.04-30.48-56.17-19.4-83.43-43.61-1.53-1.36-33.81-30.84-34.76-72.05-.5-21.56,8.04-26.5,27.81-73.32,1.29-3.05,20.15-48.17,33.5-102.39,9.4-38.17,15.74-79.51,12.64-80.27Z"/>
          <path d="M603.41,416.45c3.19-1.88,23.63,23.78,39.42,50.56,22.62,38.35,28.37,66.55,47.99,156.82,23.4,107.68,27.7,125.06,14.57,139.68-19.58,21.8-51.16,7.67-82.27,39.42-16.19,16.53-10.87,23.66-27.42,44.56-34.69,43.8-91.71,54.95-92.55,53.13-.54-1.17,22.98-6.11,47.13-28.28,35.2-32.31,25.33-58.63,55.7-81.41,28.35-21.27,49-7.37,66.84-27.42,11.34-12.75,13.51-30.17,6-86.55-9.19-68.99-14.83-111.39-38.56-173.1-19.95-51.89-40.35-85.35-36.85-87.41Z"/>
          <path d="M628.57,548.11c-1.88-1.08-21.15,25.57-37.42,56.85-25.73,49.47-36.94,96.99-34.54,97.86,1.53.56,8.09-18.15,32.76-71.12,26.58-57.06,40.98-82.57,39.2-83.59Z"/>
          <path d="M517.7,743.72c-.52-2.74,23.24-2.67,34.2-19.62,8.73-13.5,4.75-30.66,7.29-30.84,1.67-.12,4,7.27,4.49,14.02.18,2.51,1.38,19.34-10.65,30.28-13.61,12.37-34.84,8.72-35.32,6.17Z"/>
          <path d="M504.72,900.33c-1.23.71-7.91-7.38-12.38-16.3-3.93-7.82-6.39-16.73-5.21-17.27,1.43-.66,8.12,11.18,8.8,12.38,4.71,8.34,10.18,20.38,8.8,21.18Z"/>
          <path d="M505.7,870.67c-.14,3.19,8.28,7.81,16.3,7.5,19.58-.77,32.54-30.8,36.83-40.74,6.57-15.22,12.86-29.79,8.47-45.95-7.66-28.25-42.86-42.77-43.67-41.72-.42.55,8.49,5.16,16.95,16.95,3.72,5.19,18.89,26.33,13.36,54.1-.69,3.44-6.36,29.99-27.38,41.06-10.27,5.41-20.71,5.28-20.86,8.8Z"/>
          <path d="M151.09,754.71c-.39-2.11-30.5-1.54-65.81,9.97-32.36,10.55-61.94,20.19-76.78,47.86-11.87,22.14-8.67,45.32-5.98,64.81,2.67,19.35,5.86,42.51,20.94,55.84,24.3,21.48,66.52,5.99,102.7-1.99,36.39-8.03,35.22-1.53,195.43,7.98,250.74,14.88,200.5-4.19,321.07,8.97,83.23,9.08,130.79,20.75,168.51-10.97,25.2-21.19,43.22-59.41,34.9-95.72-12.24-53.42-74.31-71.46-85.75-74.78-56.8-16.51-107.98,8.35-107.69,9.97.28,1.54,47.69-15.47,103.7,1,19.83,5.83,44.67,13.13,59.83,36.89,16.78,26.3,15.95,63.76-1.99,88.74-3.73,5.2-19.78,25.97-78.77,33.9-56.33,7.57-90.26-4.85-136.6-11.97-70.71-10.86-64.11,6.94-173.5,3.99-84.16-2.27-187.08-15.47-206.4-17.95-56.39-7.23-85-13.08-119.65,1.99-19.3,8.39-33.96,20.44-51.85,14.96-20.72-6.35-31.93-31.95-34.9-49.86-5.52-33.24,13.88-60.92,22.93-71.79,41.3-49.59,116.28-48.53,115.67-51.85Z"/>
          <path d="M24.61,930.5c-1.6,2.35,16.35,18.98,34.24,31.13,61.91,42.05,136.24,39.42,136.97,35.28.56-3.19-42.87-5.28-107.91-35.28-35.79-16.51-61.48-33.78-63.29-31.13Z"/>
          <path d="M815.28,923.24c1.85,2.62-30.1,34.43-75.75,58.11-12.51,6.49-48.41,23.96-99.61,31.13-56.37,7.89-103.81-.55-103.76-3.11.05-2.44,43.13,3.11,103.76-10.38,43.9-9.76,78.11-25.3,97.54-34.24,50-23.02,76.22-43.78,77.82-41.5Z"/>
          <path d="M309.96,822.84c-.15.37,11.73,5.58,35.48,16.01,14.56,6.39,21.12,9.17,27.87,8.92,1.43-.05,5.19-.33,9.76,1.11,4.81,1.52,5,3.21,8.92,4.46,5.23,1.67,7.62-.46,15.33-.56,3.54-.05,5.47.37,12.54,1.67,27.42,5.04,23.33,3.34,34.29,5.85,5.56,1.28,11.48,2.83,18.12,2.79.89,0,3.48-.05,7.25,0,4.4.06,6.6.09,8.64.28,7.81.71,8.19,2.9,13.84,2.96,2.78.03,8.66.08,10.89-3.63,2-3.34.43-8.68-2.67-11.46-3.54-3.18-7.98-2.05-17.19-2.1-6.33-.04-12.6-1.18-18.91-1.72-20.41-1.76-23-3.49-49.85-6.49-11.38-1.27-17.02-1.65-17-2.1.02-.58,9.36-1.67,19.86-.19,6.53.92,9.12,2.21,16.23,2.29,3.45.04,4.77-.25,8.4,0,5.78.39,9.91,1.6,12.41,2.29,13.6,3.73,25.96,7.11,31.32,1.91,1.44-1.4,2.58-3.62,2.29-5.73-.64-4.69-8.13-7.17-10.69-8.02-6.25-2.07-7.96-.4-13.75-2.67-4.53-1.78-3.76-2.91-8.79-5.35-5.64-2.73-7.66-1.81-17-4.58-4.34-1.29-3.73-1.44-9.74-3.44-10.31-3.43-11.84-2.91-17.57-4.97-6.5-2.33-13.83-4.96-19.1-11.65-4.17-5.29-2.83-7.77-9.17-16.23-1.88-2.51-3.08-3.74-3.44-6.11-1-6.59,5.91-12.47,6.3-12.8,4.86-4.02,9.87-4.06,9.74-4.97-.14-.99-6.3-1.96-12.22.19-6.94,2.52-10.79,8.3-10.69,8.4.07.07,2.37-2.43,6.68-4.77,2.23-1.21,5.54-2.68,5.92-2.1.51.77-5.29,3.54-7.26,8.98-.9,2.48-.93,5.34,1.91,13.37,4.24,11.99,6.37,17.98,11.65,22.54,5.83,5.02,12.5,6.51,17.57,7.64,10.95,2.44,15.59-.29,20.63,4.01,4.69,4.01,5.69,10.7,7.45,10.31,1.3-.28.49-3.88,2.67-5.35,2.63-1.77,8.4.38,11.65,4.2,3.59,4.22,3.08,9.26,5.35,9.55,1.28.16,1.82-1.4,3.82-2.48,2.97-1.61,6.32-.64,10.69.76,11.44,3.68,17.16,5.56,17.19,7.26.04,2.36-4.77,5.35-8.02,4.2-1.43-.51-2.66-1.85-3.25-3.25-.92-2.19-.06-4.07-.74-4.35-.59-.24-1.87.89-2.4,2.28-.86,2.22.63,3.88,0,4.69-.97,1.23-5.42-1.41-9.78-2.95-11.06-3.9-21.42-.71-22.7-4.43-.19-.55-.1-1.01-.55-2.58-.56-1.94-1.58-4.35-2.03-4.24-.74.17.53,7.03-.23,7.21-.79.19-3.04-6.94-3.61-6.77-.46.13.77,4.83,0,5.12-.89.33-3.81-5.53-4.37-5.27-.51.23,2.02,4.99.45,6.47-.55.52-1.53.4-3.46.15-4.17-.54-6.26-.82-6.62-.9-6.32-1.5-8.16.67-14.3-.75-5.59-1.29-9.41-4.33-10.69-5.42-4.91-4.2-6.77-9.27-7.23-9.03-.46.24,2.89,4.82,3.01,11.44.07,3.87-1.03,5.21,0,7.07,1.78,3.24,7.35,3.31,10.18,3.39,9.13.26,18.08,2.68,27.19,3.32,12.76.91,19.21,1.36,28.09,2.57,14.98,2.03,13.71,3.04,19.64,2.87,9.47-.28,16.2-2.97,21.15,1.06.59.48,2.59,2.16,3.02,4.83.53,3.32-1.59,6.79-2.72,6.65-.95-.12-.36-2.71-2.11-4.38-3.09-2.95-10.28-.03-10.27,0,0,.02,2.51-.85,5.75-.18,1.38.29,2.95.64,3.72,2,.46.82.73,2.18.1,2.95-.26.32-1.13,1.1-5.91-.19-4.06-1.09-5.12-2.11-7.62-2.86-3.32-.99-5.23-.33-9.34-.1-3.3.19-6.97-.32-14.29-1.33-6.68-.92-10.28-1.75-20.94-3.93-9.06-1.85-15.51-3.1-21.56-4.22-16.7-3.07-19.82-3.16-23.44-1.87-1.53.54-3.78,1.56-6.72,1.09-4.01-.63-4.81-3.3-8.59-5.16-4.85-2.37-7.19.21-14.69-.62-3.21-.36-4.71-1.05-13.59-4.69-5.93-2.43-11.91-4.72-17.81-7.19-13.67-5.72-30.08-11.6-30.34-10.99Z"/>
          <path d="M329.06,772.66c-.48-.89,5.83-6,12.38-9.48,8.18-4.35,13.04-4.2,16.6-9.48,1.81-2.7,1.35-3.93,3.46-5.76,3.07-2.68,6.4-2.11,12.19-3.13,1.74-.31,5-1.41,11.53-3.62,9.96-3.38,14.95-5.06,19.6-7.57,6.46-3.49,9.69-5.23,12.52-7.9,2.09-1.97,4.18-4.43,7.9-5.27,1.21-.27,3.98-.9,5.93.49,3.54,2.52,2.43,10.3.16,15.31-.61,1.35-2.25,4.58-9.72,10.54-9.11,7.28-18.35,11.79-18.61,11.36-.18-.3,4.17-2.69,11.36-8.56,7.86-6.42,11.83-9.74,14-15.31,2.45-6.32,1.26-11.86,1.32-11.86.05,0,.79,5.31-2.14,7.9-1.85,1.63-4.31,1.46-4.68,1.42-3.18-.28-5.33-2.91-5.13-3.22.23-.36,3.33,2.54,6.33,1.55,2.01-.66,3.94-3.06,3.46-5.25-.05-.24-.4-1.7-1.55-2.15-1.51-.59-3.07,1.06-6.92,4.06-4.6,3.58-6.89,5.37-9.91,7.04-2.54,1.41-4.55,2.2-4.42,3.1.1.73,1.49.78,3.82,1.91,2.94,1.43,5.23,3.55,5.01,3.94-.16.28-1.59-.42-5.25-1.43-2.73-.76-4.46-1.23-4.66-.84-.3.61,3.26,3.1,3.94,3.58,1.99,1.39,2.82,1.66,2.75,2.03-.15.73-3.76,1.31-6.92,0-3.99-1.66-5.08-5.42-6.09-5.01-.96.39-1.16,4.27.84,6.21,2.24,2.18,6.13.82,6.33,1.67.17.74-2.57,2.7-5.37,2.27-2.17-.34-4-2.05-4.66-3.94-.91-2.61.7-4.7-.24-5.49-.85-.72-2.83.46-4.54,1.31-7.59,3.81-16.04,4.34-17.31,4.42-3.47.22-5.18-.21-7.28,1.19-1.8,1.2-2.23,2.63-3.7,4.77-1.69,2.46-3.51,3.91-7.16,6.8-8.31,6.6-24.44,13.72-25.15,12.4Z"/>
          <path d="M329.26,772.79c-.12-.16-.76.29-2.15.84-4.48,1.77-7.81,1.1-7.88,1.67-.06.5,2.38,1.7,4.89,1.31,3.27-.5,5.38-3.49,5.13-3.82Z"/>
          <path d="M396.4,792.54c.03.08,2.27-1.12,6.04-1.66,1.07-.15,12.22-1.64,15.52,3.67,1.17,1.88,1.05,4.12,2.13,4.27.83.11,1.29-1.15,2.37-2.13,3-2.72,9.7-2.2,13.74.83,2.95,2.21,3.23,4.81,5.33,4.86,1.89.04,2.16-2.06,4.62-3.44,4.56-2.56,12.05-.07,16.47,2.72,2.43,1.54,4.64,3.62,5.92,2.84.91-.55.31-1.9,1.42-2.96,1.44-1.37,4.6-1.17,6.63.12,1.41.89,2.02,2.13,2.61,1.9.71-.28.14-2.19,1.07-2.72.89-.51,2.1.89,2.96.36.72-.44.13-1.58.95-2.49.85-.94,2.51-.84,3.44-.59,1.06.29,1.71.92,1.99,1.2,1.33,1.33,1.57,3.07,1.57,3.07,0,0-.72-4.9-3.67-11.73-2.91-6.72-5.56-9.67-4.5-10.9,1.11-1.28,5.19.57,6.28,1.07,7.07,3.21,10.4,9.23,10.54,9.12.17-.13-2.99-8.88-10.19-11.37-1.78-.62-4.22-.99-5.92-3.2-1.04-1.34-.91-2.19-1.66-4.27-1.94-5.35-5.66-7.5-5.09-8.29.49-.69,3.54.66,7.35,2.37,6.51,2.93,7.65,4.15,11.26,4.86,3.74.74,6.97.31,6.99,0,.03-.4-5.48-.11-11.97-2.84-4.55-1.92-5.07-3.43-9.95-5.81-4.56-2.22-7.64-2.62-11.26-3.55-10.61-2.74-18.97-8.32-22.99-11.51-9.74-7.73-13.63-17.05-14.31-16.62-.49.31,1.66,5.11,4.5,9.26,1.99,2.93,5.2,6.82,10.22,10.49,5.28,3.86,6.65,3.14,20.03,10.08,5.51,2.86,7.51,4.15,9.4,6.54,1.38,1.75,1.06,2.02,4.5,10.76,2.73,6.95,4.07,9.68,3.68,13.9-.16,1.77-.28,3.07-1.23,4.36-2.26,3.08-7.12,3.2-12.13,3.27-3.78.05-6.6-.36-6.95-.41-7.64-1.1-15.35-1.69-23.03-2.59-14.9-1.74-15.2-1.26-19.07-2.59-5.49-1.88-6.79-3.49-11.31-3.81-7.77-.56-14.34,3.45-14.29,3.58Z"/>
          <path d="M436.95,814.76c-.23.06-1.69-2.24-1.3-4.87.38-2.62,2.42-4.44,2.61-4.32.15.1-1.04,1.48-1.51,3.91-.58,3.01.43,5.22.21,5.28Z"/>
          <path d="M440.38,815.38c-.15-.03-.03-.5-.07-2.81-.05-3.41-.35-4.84,0-4.94.31-.09.98.94,1.3,1.92.92,2.82-.83,5.92-1.23,5.83Z"/>
          <path d="M443.94,819.57c.21.12,2.99-2.28,3.16-5.76.18-3.74-2.73-6.88-3.29-6.65-.43.17.1,2.48.34,3.57.54,2.36,1.05,2.67,1.17,4.05.23,2.75-1.55,4.69-1.37,4.8Z"/>
          <path d="M492.58,824.96c.25-.63,3.03.99,5.47,0,3.94-1.6,3.72-8.71,5.33-8.67.86.02,1.67,2.06,1.6,3.73-.08,1.95-1.32,3.19-2.27,4.13-.4.4-4.11,4.01-7.73,2.8-1.39-.46-2.57-1.57-2.4-2Z"/>
          <path d="M493.11,831.1c.06-.69,3.53.15,7.33-1.73,4.45-2.2,6.1-6.52,6.8-6.13.49.26-.05,2.46-.93,4.13-.18.34-2.64,4.83-7.47,5.33-2.93.3-5.79-.97-5.73-1.6Z"/>
          <path d="M397.72,836.21c-.92-1.42-5.86,2.37-10.07.19-3.87-2.01-4.03-7.46-5.03-7.27-.96.18-1.97,5.33.56,9.13,1.87,2.81,5.81,5.07,9.51,3.91,3.44-1.08,5.77-4.83,5.03-5.96Z"/>
          <path d="M523.88,753.4c-.01-.29-2.59-.11-7.23-.82-.93-.14-5.25-.83-10.52-2.63-3.83-1.31-4.85-2.07-8.22-3.45-5.79-2.38-9.42-2.87-13.65-3.95-8.95-2.28-15.44-5.88-24.99-11.18-5.3-2.94-10.79-5.54-15.95-8.71-4.3-2.65-7.46-4.86-8.88-3.78-1.26.95-.82,4.24.49,6.58,3.82,6.81,15.62,6.75,15.62,6.74,0,0-5.41-.03-9.86-3.95-2.28-2-4.2-4.92-3.62-5.59.72-.83,5.08,2.07,10.03,5.1,8.79,5.38,19.08,11.67,30.09,15.62,11.41,4.1,12.06,1.53,21.37,5.92,4.49,2.11,8.02,4.44,14.14,5.1,5.81.62,11.19-.57,11.18-.99Z"/>
          <path d="M551.42,803.88c-.78-.27-1.97,8.32-9.3,15.58-2.93,2.9-3.55,2.33-21.86,11.86-4.99,2.6-9.42,4.97-14.65,9.07-3.34,2.62-7.86,6.62-7.44,7.21.49.7,7.22-4.25,17.68-9.54,17.97-9.08,23.52-7.33,29.54-14.65,6.79-8.26,6.91-19.24,6.05-19.54Z"/>
          <path class="cls-4" d="M427.44,264.86c-1.52-.5-5.21-1.63-13.78-2.39-2.45-.22-7.58-.61-13.89.57-2.61.49-3.52.89-3.98,1.71-1.54,2.71,2.64,8.58,7.17,11.73,6.17,4.28,13.28,3.71,15.6,3.53,2.06-.16,3.47-.52,5.92-1.14,4.98-1.26,11-2.78,11.5-5.92.18-1.15-.44-2.12-1.14-3.19-1.78-2.73-4.58-3.97-7.4-4.9Z"/>
          <path class="cls-4" d="M478.21,270.69c.76-3.72,8.95-4.74,14.15-5.4,3.16-.4,9.5-.84,16.19,2.04,3.84,1.65,4.34,2.9,4.48,3.36,1.04,3.4-3.91,8.36-8.65,10.49-8.01,3.59-16.06-.61-17.62-1.43-.72-.38-9.38-4.99-8.55-9.06Z"/>
          <path class="cls-15" d="M397.44,266.96c.75-1.72,5.73-1.11,15.66.2,10.06,1.32,18.54,2.44,18.69,4.75.14,2.2-7.33,4.32-10,4.95-2.96.7-7.85,1.84-13.34,0-6.28-2.1-11.99-7.66-11.01-9.9Z"/>
          <path class="cls-15" d="M480.64,271.33c.32-1.26,3.56-1.51,10.06-2.01.49-.04,7.75-.54,16.98,1.51,1.96.44,3.2.81,3.4,1.64.42,1.75-4,4.54-7.67,5.79-1.32.45-5.03,1.54-10.06.63-6.53-1.18-13.25-5.37-12.71-7.55Z"/>
          <polygon class="cls-16" points="424.31 680.99 409.25 671.15 395.24 682.44 399.94 665.07 384.88 655.23 402.84 654.34 407.55 636.97 413.95 653.78 431.92 652.89 417.91 664.18 424.31 680.99"/>
          <polygon class="cls-16" points="498.77 677.24 504.89 665.84 495.94 656.5 508.67 658.79 514.79 647.39 516.54 660.21 529.27 662.51 517.62 668.13 519.37 680.95 510.42 671.61 498.77 677.24"/>
          <polygon class="cls-16" points="573.76 570.11 567.1 572.27 567.1 579.28 562.98 573.61 556.32 575.77 560.44 570.11 556.32 564.44 562.98 566.6 567.1 560.93 567.1 567.94 573.76 570.11"/>
          <polygon class="cls-16" points="637.51 627.96 637.73 614.79 625.28 610.51 637.87 606.65 638.09 593.48 645.65 604.27 658.24 600.41 650.32 610.93 657.88 621.72 645.43 617.44 637.51 627.96"/>
          <polygon class="cls-16" points="608.05 690.63 601.65 689.84 598.93 695.68 597.7 689.36 591.31 688.57 596.94 685.45 595.71 679.12 600.43 683.52 606.06 680.4 603.34 686.24 608.05 690.63"/>
          <polygon class="cls-16" points="641.26 735.63 633.27 717.35 613.43 719.3 628.34 706.06 620.35 687.78 637.56 697.87 652.47 684.63 648.19 704.11 665.39 714.2 645.54 716.15 641.26 735.63"/>
          <polygon class="cls-16" points="574.83 753.3 568.71 749.56 563.26 754.24 564.92 747.25 558.8 743.52 565.95 742.94 567.61 735.96 570.37 742.58 577.53 742.01 572.08 746.68 574.83 753.3"/>
          <polygon class="cls-16" points="590.9 775.8 596.49 770.31 592.98 763.3 599.93 766.91 605.51 761.41 604.23 769.14 611.18 772.75 603.44 773.91 602.15 781.64 598.65 774.64 590.9 775.8"/>
          <polygon class="cls-16" points="552.57 624.07 541.83 619.71 534.35 628.58 535.18 617.01 524.44 612.65 535.7 609.86 536.53 598.29 542.65 608.14 553.91 605.35 546.44 614.23 552.57 624.07"/>
          <polygon class="cls-16" points="598.85 543.74 599.62 538.57 594.95 536.24 600.1 535.38 600.88 530.22 603.29 534.85 608.44 534 604.77 537.72 607.18 542.35 602.51 540.02 598.85 543.74"/>
          <polygon class="cls-16" points="462.87 711.55 454.16 704.79 445.04 710.99 448.77 700.62 440.06 693.86 451.08 694.21 454.81 683.83 457.89 694.42 468.91 694.76 459.79 700.96 462.87 711.55"/>
          <polygon class="cls-16" points="176.77 661.86 176.38 652.4 167.26 649.84 176.14 646.55 175.75 637.09 181.62 644.51 190.5 641.22 185.25 649.1 191.13 656.53 182.01 653.97 176.77 661.86"/>
          <polygon class="cls-16" points="210.4 677.92 196.21 693.26 206.42 711.5 187.44 702.75 173.26 718.09 175.71 697.34 156.74 688.59 177.23 684.51 179.69 663.76 189.9 681.99 210.4 677.92"/>
          <polygon class="cls-16" points="233.99 723.59 233.68 719.09 229.3 718 233.48 716.31 233.17 711.81 236.07 715.27 240.25 713.58 237.86 717.41 240.76 720.86 236.38 719.77 233.99 723.59"/>
          <polygon class="cls-16" points="220.94 747.69 211.13 748.19 208.58 757.67 205.07 748.5 195.26 749 202.9 742.83 199.39 733.66 207.62 739.02 215.26 732.85 212.71 742.33 220.94 747.69"/>
          <polygon class="cls-16" points="276.15 751.7 275.83 748.36 272.55 747.63 275.63 746.29 275.31 742.94 277.54 745.46 280.62 744.12 278.91 747.02 281.14 749.54 277.86 748.81 276.15 751.7"/>
          <polygon class="cls-16" points="257.58 773.79 250.79 771.77 246.78 777.61 246.59 770.53 239.81 768.52 246.48 766.16 246.3 759.08 250.61 764.7 257.28 762.33 253.27 768.17 257.58 773.79"/>
          <polygon class="cls-16" points="209.39 555.45 207.82 550.59 202.71 550.59 206.84 547.59 205.26 542.73 209.39 545.74 213.52 542.73 211.95 547.59 216.08 550.59 210.97 550.59 209.39 555.45"/>
          <polygon class="cls-16" points="210.9 587.07 205.94 587.15 204.48 591.89 202.87 587.19 197.91 587.27 201.88 584.29 200.28 579.6 204.33 582.45 208.3 579.47 206.84 584.22 210.9 587.07"/>
          <polygon class="cls-16" points="261.09 657.34 269.88 653.71 269.16 644.23 275.32 651.48 284.11 647.85 279.13 655.95 285.29 663.19 276.05 660.96 271.06 669.06 270.34 659.57 261.09 657.34"/>
          <polygon class="cls-16" points="332.87 671.89 329.4 673.02 329.4 676.67 327.26 673.72 323.79 674.84 325.93 671.89 323.79 668.94 327.26 670.07 329.4 667.12 329.4 670.77 332.87 671.89"/>
          <polygon class="cls-16" points="351.44 689.96 353.35 681.68 346.05 677.3 354.53 676.55 356.44 668.26 359.76 676.09 368.24 675.34 361.82 680.93 365.15 688.76 357.86 684.38 351.44 689.96"/>
          <polygon class="cls-16" points="316.3 691.97 305.56 694.31 304.47 705.25 298.92 695.76 288.18 698.1 295.5 689.89 289.95 680.4 300.02 684.82 307.33 676.61 306.24 687.55 316.3 691.97"/>
          <polygon class="cls-16" points="368.51 551.93 357.87 555.77 358.23 567.08 351.29 558.15 340.65 561.99 347 552.63 340.06 543.69 350.93 546.84 357.28 537.48 357.64 548.79 368.51 551.93"/>
          <polygon class="cls-16" points="379.05 552.43 377.93 547.81 373.19 547.45 377.24 544.96 376.12 540.34 379.74 543.42 383.79 540.93 381.98 545.32 385.6 548.4 380.86 548.04 379.05 552.43"/>
          <polygon class="cls-16" points="384.57 575.02 379.02 576.82 379.02 582.66 375.59 577.94 370.04 579.74 373.47 575.02 370.04 570.3 375.59 572.1 379.02 567.38 379.02 573.22 384.57 575.02"/>
          <polygon class="cls-16" points="324.84 546.41 324.33 537.76 315.94 535.57 324.01 532.41 323.5 523.76 329 530.46 337.07 527.3 332.4 534.6 337.9 541.3 329.51 539.11 324.84 546.41"/>
          <polygon class="cls-16" points="326.85 570 320.73 570.07 318.91 575.91 316.95 570.11 310.84 570.18 315.75 566.53 313.79 560.74 318.78 564.28 323.68 560.63 321.86 566.47 326.85 570"/>
          <polygon class="cls-16" points="390.59 614.67 387.73 611.77 384.08 613.59 385.96 609.97 383.1 607.07 387.12 607.74 389 604.12 389.61 608.15 393.63 608.82 389.98 610.64 390.59 614.67"/>
          <polygon class="cls-16" points="463.37 550.93 464.91 545.06 459.81 541.78 465.87 541.43 467.41 535.56 469.61 541.22 475.67 540.87 470.97 544.71 473.18 550.37 468.07 547.09 463.37 550.93"/>
          <polygon class="cls-16" points="463.93 574.26 456.84 575.87 456.18 583.12 452.45 576.87 445.36 578.48 450.15 573.01 446.43 566.76 453.11 569.63 457.9 564.15 457.24 571.4 463.93 574.26"/>
          <polygon class="cls-16" points="487.49 553.42 483.44 552.66 481.46 556.28 480.93 552.19 476.88 551.43 480.6 549.66 480.07 545.57 482.91 548.57 486.63 546.8 484.66 550.42 487.49 553.42"/>
          <polygon class="cls-16" points="592.17 566.56 593.81 556.68 584.92 552.07 594.82 550.57 596.46 540.69 600.94 549.65 610.84 548.15 603.71 555.18 608.19 564.14 599.3 559.53 592.17 566.56"/>
          <polygon class="cls-16" points="579.94 602.81 572.11 605.35 572.11 613.59 567.27 606.93 559.44 609.47 564.28 602.81 559.44 596.15 567.27 598.7 572.11 592.04 572.11 600.27 579.94 602.81"/>
          <polygon class="cls-16" points="535.98 674.86 538.7 659.79 525.2 652.54 540.38 650.47 543.1 635.39 549.76 649.19 564.94 647.11 553.88 657.71 560.54 671.51 547.04 664.26 535.98 674.86"/>
          <polygon class="cls-16" points="517.85 715.2 504.49 719.88 504.82 734.04 496.23 722.78 482.87 727.47 490.93 715.82 482.34 704.56 495.9 708.62 503.96 696.98 504.29 711.13 517.85 715.2"/>
          <polygon class="cls-16" points="535.07 710.66 533.45 705.65 528.18 705.65 532.44 702.56 530.81 697.55 535.07 700.64 539.34 697.55 537.71 702.56 541.97 705.65 536.7 705.65 535.07 710.66"/>
          <polygon class="cls-16" points="381.45 707.49 379.72 702.17 374.12 702.17 378.65 698.88 376.92 693.56 381.45 696.85 385.98 693.56 384.25 698.88 388.78 702.17 383.18 702.17 381.45 707.49"/>
          <polygon class="cls-16" points="339.31 714.74 343.09 710.4 340.13 705.46 345.43 707.71 349.21 703.37 348.7 709.11 354 711.36 348.39 712.65 347.88 718.39 344.92 713.45 339.31 714.74"/>
          <polygon class="cls-16" points="626.03 648.18 618.91 646.54 615.15 652.8 614.5 645.52 607.38 643.88 614.11 641.02 613.47 633.74 618.26 639.26 624.99 636.4 621.23 642.66 626.03 648.18"/>
          <polygon class="cls-16" points="595.78 445.3 597.15 437.47 590.12 433.74 597.99 432.62 599.36 424.79 602.86 431.93 610.73 430.81 605.02 436.34 608.52 443.48 601.49 439.76 595.78 445.3"/>
          <polygon class="cls-16" points="605.03 466.23 597.92 467.47 596.9 474.61 593.53 468.23 586.42 469.47 591.44 464.29 588.07 457.92 594.55 461.09 599.57 455.92 598.55 463.06 605.03 466.23"/>
          <polygon class="cls-16" points="620.47 476.06 620.91 471.63 616.83 469.84 621.18 468.89 621.61 464.46 623.86 468.3 628.21 467.34 625.26 470.67 627.51 474.52 623.43 472.73 620.47 476.06"/>
          <polygon class="cls-16" points="633.81 500.63 628.47 502.36 628.47 507.97 625.17 503.43 619.84 505.17 623.13 500.63 619.84 496.09 625.17 497.82 628.47 493.28 628.47 498.89 633.81 500.63"/>
          <polygon class="cls-16" points="609.59 524.49 614.12 521.95 613.1 516.85 616.93 520.37 621.46 517.83 619.29 522.55 623.11 526.08 617.95 525.47 615.77 530.2 614.75 525.1 609.59 524.49"/>
          <polygon class="cls-16" points="126.51 798.02 137.53 783.32 126.96 768.3 144.34 774.24 155.37 759.54 155.09 777.91 172.47 783.85 154.92 789.26 154.64 807.63 144.07 792.61 126.51 798.02"/>
          <polygon class="cls-16" points="128.04 830.18 125.64 822.78 117.85 822.78 124.15 818.2 121.74 810.79 128.04 815.37 134.35 810.79 131.94 818.2 138.24 822.78 130.45 822.78 128.04 830.18"/>
          <polygon class="cls-16" points="87.45 803.38 92.92 802.19 93.47 796.63 96.3 801.45 101.76 800.26 98.04 804.44 100.86 809.27 95.74 807.02 92.02 811.19 92.57 805.63 87.45 803.38"/>
          <polygon class="cls-16" points="114.26 846.27 99.97 850.91 99.97 865.93 91.14 853.78 76.85 858.42 85.68 846.27 76.85 834.11 91.14 838.76 99.97 826.6 99.97 841.62 114.26 846.27"/>
          <polygon class="cls-16" points="194.67 858.52 181.48 857.54 176.47 869.78 173.33 856.93 160.14 855.95 171.39 849 168.24 836.15 178.34 844.69 189.58 837.73 184.58 849.97 194.67 858.52"/>
          <polygon class="cls-16" points="200.8 817.17 193.92 819.4 193.92 826.63 189.67 820.78 182.79 823.02 187.04 817.17 182.79 811.31 189.67 813.55 193.92 807.7 193.92 814.93 200.8 817.17"/>
          <polygon class="cls-16" points="218.41 845.5 223.73 840.26 220.39 833.59 227.02 837.03 232.34 831.79 231.11 839.15 237.74 842.59 230.36 843.7 229.13 851.07 225.79 844.39 218.41 845.5"/>
          <polygon class="cls-16" points="221.48 878.43 209.3 882.39 209.3 895.18 201.78 884.83 189.61 888.79 197.13 878.43 189.61 868.08 201.78 872.03 209.3 861.68 209.3 874.48 221.48 878.43"/>
          <polygon class="cls-16" points="122.68 871.54 131.9 862.11 125.78 850.42 137.6 856.28 146.82 846.85 144.91 859.9 156.73 865.75 143.72 867.96 141.81 881.01 135.69 869.33 122.68 871.54"/>
          <polygon class="cls-16" points="291.17 865.41 284.29 867.65 284.29 874.88 280.04 869.03 273.16 871.26 277.41 865.41 273.16 859.56 280.04 861.8 284.29 855.94 284.29 863.18 291.17 865.41"/>
          <polygon class="cls-16" points="252.87 861.58 249.42 876.16 262.22 883.95 247.29 885.17 243.83 899.75 238.06 885.93 223.13 887.15 234.49 877.38 228.71 863.56 241.51 871.35 252.87 861.58"/>
          <polygon class="cls-16" points="341.71 871.54 344.77 862.94 337.53 857.38 346.66 857.63 349.71 849.03 352.29 857.78 361.42 858.03 353.89 863.19 356.47 871.94 349.24 866.38 341.71 871.54"/>
          <polygon class="cls-16" points="315.67 879.2 310.82 893.06 322.5 901.96 307.82 901.63 302.96 915.49 298.74 901.42 284.05 901.09 296.13 892.73 291.91 878.66 303.6 887.56 315.67 879.2"/>
          <polygon class="cls-16" points="406.81 879.96 405.96 875.56 401.51 875 405.44 872.84 404.59 868.43 407.87 871.5 411.79 869.33 409.89 873.39 413.16 876.46 408.71 875.9 406.81 879.96"/>
          <polygon class="cls-16" points="370.81 889.15 377.36 884.1 374.58 876.31 381.41 880.98 387.96 875.92 385.63 883.86 392.46 888.53 384.19 888.77 381.86 896.7 379.08 888.91 370.81 889.15"/>
          <polygon class="cls-16" points="357.03 902.17 351.05 901.78 348.82 907.34 347.35 901.53 341.37 901.13 346.44 897.94 344.97 892.13 349.58 895.97 354.65 892.77 352.42 898.34 357.03 902.17"/>
          <polygon class="cls-16" points="445.1 893.75 438.62 890 433.05 895.01 434.61 887.69 428.13 883.95 435.57 883.16 437.13 875.84 440.17 882.68 447.62 881.9 442.06 886.91 445.1 893.75"/>
          <polygon class="cls-16" points="389.9 902.68 405.35 898.34 405.35 884.3 414.89 895.66 430.34 891.32 420.79 902.68 430.34 914.03 414.89 909.7 405.35 921.05 405.35 907.02 389.9 902.68"/>
          <polygon class="cls-16" points="663.41 810.71 673.75 802.47 669.11 790.09 680.14 797.38 690.48 789.14 686.96 801.88 697.99 809.17 684.78 809.76 681.26 822.5 676.62 810.12 663.41 810.71"/>
          <polygon class="cls-16" points="725.17 850.47 748.32 831.56 737.48 803.7 762.62 819.87 785.76 800.96 778.15 829.86 803.29 846.03 773.45 847.73 765.84 876.63 755.01 848.77 725.17 850.47"/>
          <polygon class="cls-16" points="676.9 866.09 658.44 869.37 655.86 887.94 647.03 871.4 628.58 874.69 641.58 861.18 632.75 844.64 649.61 852.83 662.61 839.33 660.03 857.89 676.9 866.09"/>
          <polygon class="cls-16" points="721.62 861.83 717.02 866.03 719.6 871.71 714.18 868.63 709.58 872.84 710.83 866.73 705.41 863.66 711.6 862.96 712.85 856.85 715.43 862.53 721.62 861.83"/>
          <polygon class="cls-16" points="747.18 887.38 756.01 884.51 756.01 875.23 761.47 882.74 770.3 879.87 764.84 887.38 770.3 894.89 761.47 892.03 756.01 899.54 756.01 890.25 747.18 887.38"/>
          <polygon class="cls-16" points="701.04 893.77 695.66 892.26 692.57 896.91 692.34 891.33 686.97 889.82 692.21 887.89 691.98 882.31 695.44 886.69 700.67 884.75 697.58 889.4 701.04 893.77"/>
          <polygon class="cls-16" points="581.77 880.99 596.51 872.95 593.41 856.44 605.62 867.98 620.36 859.94 613.16 875.11 625.37 886.64 608.71 884.48 601.51 899.66 598.42 883.15 581.77 880.99"/>
          <polygon class="cls-16" points="472.88 904.12 466.56 906.18 466.56 912.82 462.65 907.45 456.33 909.5 460.24 904.12 456.33 898.75 462.65 900.8 466.56 895.43 466.56 902.07 472.88 904.12"/>
          <polygon class="cls-16" points="488.56 908.04 491.08 905.56 489.5 902.4 492.64 904.03 495.16 901.54 494.58 905.04 497.72 906.67 494.22 907.19 493.64 910.68 492.06 907.52 488.56 908.04"/>
          <polygon class="cls-16" points="566.52 898.9 558.5 900.84 557.87 909.07 553.55 902.04 545.53 903.98 550.87 897.69 546.55 890.67 554.18 893.81 559.53 887.53 558.89 895.75 566.52 898.9"/>
          <polygon class="cls-16" points="110.73 956.27 109.54 951.81 104.93 951.57 108.8 949.06 107.6 944.6 111.19 947.51 115.06 944.99 113.4 949.3 116.99 952.2 112.38 951.96 110.73 956.27"/>
          <polygon class="cls-16" points="132.09 961.27 131.32 962.04 131.8 963.01 130.84 962.51 130.07 963.27 130.24 962.2 129.28 961.7 130.35 961.54 130.53 960.47 131.02 961.44 132.09 961.27"/>
          <polygon class="cls-16" points="154.78 965.95 153.88 963.18 150.97 963.18 153.33 961.47 152.43 958.7 154.78 960.41 157.14 958.7 156.24 961.47 158.59 963.18 155.68 963.18 154.78 965.95"/>
          <polygon class="cls-16" points="141.77 971.29 139.09 970.12 137.15 972.3 137.44 969.39 134.76 968.22 137.62 967.6 137.9 964.69 139.38 967.21 142.23 966.59 140.29 968.77 141.77 971.29"/>
          <polygon class="cls-16" points="184.49 963.28 183.07 967.56 186.71 970.23 182.2 970.21 180.79 974.49 179.41 970.2 174.9 970.18 178.56 967.54 177.19 963.24 180.82 965.91 184.49 963.28"/>
          <polygon class="cls-16" points="179.15 982.63 178.85 980.94 177.15 980.7 178.67 979.9 178.38 978.21 179.61 979.41 181.12 978.6 180.37 980.14 181.6 981.34 179.9 981.09 179.15 982.63"/>
          <polygon class="cls-16" points="229.21 972.96 223.44 974.83 223.44 980.89 219.88 975.99 214.11 977.86 217.68 972.96 214.11 968.05 219.88 969.92 223.44 965.02 223.44 971.08 229.21 972.96"/>
          <polygon class="cls-16" points="204.18 975.96 204.41 975.12 203.69 974.63 204.56 974.6 204.8 973.76 205.1 974.58 205.97 974.54 205.29 975.08 205.59 975.9 204.86 975.42 204.18 975.96"/>
          <polygon class="cls-16" points="724.81 965.6 719.45 967.34 719.45 972.98 716.13 968.42 710.77 970.16 714.08 965.6 710.77 961.03 716.13 962.78 719.45 958.21 719.45 963.86 724.81 965.6"/>
          <polygon class="cls-16" points="699.68 977.36 698.29 977.81 698.29 979.27 697.43 978.09 696.05 978.54 696.9 977.36 696.05 976.18 697.43 976.63 698.29 975.45 698.29 976.91 699.68 977.36"/>
          <polygon class="cls-16" points="428.87 124.22 425.01 122.43 422.12 125.54 422.63 121.32 418.77 119.53 422.94 118.71 423.45 114.49 425.52 118.21 429.69 117.39 426.8 120.5 428.87 124.22"/>
          <polygon class="cls-16" points="403.75 143.82 403.14 140.51 399.81 140.06 402.77 138.46 402.16 135.15 404.6 137.47 407.56 135.87 406.11 138.9 408.54 141.23 405.21 140.78 403.75 143.82"/>
          <polygon class="cls-16" points="462.86 135.24 457.57 136.96 457.57 142.52 454.3 138.02 449.01 139.74 452.28 135.24 449.01 130.74 454.3 132.46 457.57 127.96 457.57 133.52 462.86 135.24"/>
          <polygon class="cls-16" points="447.85 70.62 442.56 72.34 442.56 77.9 439.29 73.4 434 75.12 437.27 70.62 434 66.12 439.29 67.84 442.56 63.34 442.56 68.9 447.85 70.62"/>
          <polygon class="cls-16" points="367 97.27 364.89 97.25 364.22 99.25 363.59 97.24 361.47 97.22 363.19 96 362.55 93.98 364.25 95.24 365.97 94.01 365.3 96.01 367 97.27"/>
          <polygon class="cls-16" points="378.33 43.98 371.16 43.5 368.49 50.18 366.72 43.21 359.55 42.73 365.64 38.9 363.87 31.93 369.4 36.53 375.48 32.7 372.81 39.37 378.33 43.98"/>
          <polygon class="cls-16" points="396.1 59.6 393 59.43 391.89 62.32 391.09 59.33 387.99 59.17 390.59 57.48 389.79 54.49 392.2 56.44 394.8 54.75 393.69 57.64 396.1 59.6"/>
        </g>
      </g>
      <path d="M437.73,346.91c0,1.8,10.74,3.03,13.43,3.33,6.92.79,12.61.62,18.43-1.02,2.01-.57,4.87-1.37,4.82-2.22-.09-1.42-8.22-2.1-16.39-2.78-.69-.06-3.06-.25-6.21-.28-3.21-.03-5.25-.04-7.78.46-1.1.22-6.3,1.24-6.3,2.5Z"/>
    </g>
  </g>
  <g id="Layer_21" data-name="Layer 21">
    <g id="Generative_Object" data-name="Generative Object" class="cls-11">
      <path class="cls-8" d="M429.53,807.94l-7.85-4.1-.57-.71,1.2.49c-.3-.72-1.28-.46-1.13-1.27.33-.27.45.35.49.35.18,0,.24-.57.35-.71,1.68.74,4.38,1.29,5.73,1.98.33.17.92,1.1.99,1.13,6.18,3.28,12.56,3.96,19.23,1.56,1.02-.77,2.14-1.36,3.25-1.98.19-.1-.48-.2,0-.42,1.54-.73,4.4-1.23,6.22-1.98,2.13-.88,4.32-2.06,6.29-3.25.44,1.12-.94,1.22-1.48,1.7-1.79,1.58-2.76,3.03-4.95,4.38-7.54,4.66-19.14,4.44-27.79,2.83Z"/>
      <path class="cls-1" d="M420.76,801.43c.42.19.85.38,1.27.57-.11.13-.18.71-.35.71-.04,0-.17-.62-.49-.35-.14.81.83.56,1.13,1.27l-1.2-.49.57.71,7.85,4.1c-1.78-.33-3.45-.73-5.16-1.27-.14-.04,0-.38-.14-.42-.06-.02-.47.37-1.13.14l-4.38-2.12c.28-.29.95.32.64-.49-.37-.87-4.26-1.47-1.27-1.98.01-.22-3.31-2.42-2.55-3.18,1.68,1.04,3.43,2.01,5.23,2.83Z"/>
      <path class="cls-1" d="M485.82,762.11c-1.29-.04-.48-.82-1.27-.85.1-2.7-.07-5.12-.42-7.78l1.13.07-.07-1.34c.59-.1.67,9.2.64,9.9Z"/>
      <g>
        <g>
          <path class="cls-5" d="M482.57,746.42c.31,4.47,1.1,8.9.99,13.44-.44,18.11-11.2,35.45-28.57,41.58.24-.51.05-1.08-.42-1.41,22.5-8.28,32.62-33.67,26.73-56.14,0-.02.1-.11.14-.42.66.72.86,2.01,1.13,2.97Z"/>
          <path class="cls-8" d="M395.59,766.5c2.49,11.79,7.27,21.02,16.97,28.43,2.71,2.07,5.52,3.81,8.63,5.23-.39.43-.51.66-.42,1.27-1.8-.82-3.55-1.79-5.23-2.83-9.4-5.81-16.72-15.28-19.8-25.95-.43-1.5-1.92-8.29-1.56-9.48.05-.16.59-.62.71-.85.21,1.38.14,2.73.42,4.1.02.12.28.06.28.07Z"/>
          <path class="cls-5" d="M485.82,762.11c-.39,8.3-3.44,16.78-8.06,23.62-1.51,1.4-2.57,3.21-3.96,4.74-3.48,3.84-8.33,7.46-12.94,9.83-1.12.57-2.73,1.42-3.96,1.41l.21.21c-.51.97-1.79.49-2.47.64s-2.01,1.1-2.76.42c15.6-3.97,28.08-17.78,31.54-33.38.61-2.73,1.03-5.54,1.13-8.34.79.02-.01.8,1.27.85Z"/>
          <path class="cls-2" d="M484.12,753.49c.35,2.66.52,5.08.42,7.78s-.53,5.61-1.13,8.34c-.78-.72.29-2.26.42-3.04.14-.86.06-2.22.14-3.11.04-.51,0-.85,0-.99.07-1.02.54-1.95.42-2.97l-.85.35c.11-4.54-.68-8.97-.99-13.44.67,2.32,1.24,4.67,1.56,7.07Z"/>
          <path class="cls-8" d="M481.29,743.87c5.89,22.48-4.23,47.86-26.73,56.14-5.73,2.11-12.01,2.84-18.1,2.55l2.83-.21-.42-2.33c22.66-.35,42.17-20.04,42-42.71.71-4.85.44-7.78.14-12.52-.06-.99.28-.86.28-.92Z"/>
          <path class="cls-9" d="M438.87,800.02c-1.76.03-4.14-.06-5.87-.28-.37-.05-1.47-.15-1.63-.57,23.62,1.79,46.16-19.12,49.5-41.86.16,22.67-19.35,42.36-42,42.71Z"/>
          <path class="cls-12" d="M483.41,769.61c-3.46,15.59-15.94,29.41-31.54,33.38-10.46,2.66-20.91,1.67-30.69-2.83-3.1-1.43-5.92-3.17-8.63-5.23-.08-.43.12-.52.49-.42.17.04,2.35,1.68,2.9,1.98.04.02.1-.02.14,0,1.54,1.17,3.14,2.09,5.02,2.97,10.54,4.91,22.83,5.87,33.87,1.98,17.37-6.12,28.12-23.47,28.57-41.58l.85-.35c.11,1.02-.35,1.95-.42,2.97,0,.14.04.48,0,.99-.08.89,0,2.25-.14,3.11-.13.79-1.2,2.33-.42,3.04Z"/>
          <path class="cls-5" d="M431.37,799.17c.16.41,1.26.52,1.63.57,1.73.22,4.11.31,5.87.28l.42,2.33-2.83.21c-7.71-.38-13.68-2.5-20.36-6.08-.04-.02-.1.02-.14,0-.29-.92-1.16-.8-1.84-1.48-.04-.37.01-.36.35-.35.17,0,2.49,1.5,2.97,1.7.9.37,12.18,3.77,12.23,2.9.01-.17-1.37-.04-1.34-.49,1.01.18,2.01.35,3.04.42Z"/>
          <g>
            <path class="cls-2" d="M477.76,785.73c-3.55,5.25-8.57,10-14,13.29-1.97,1.19-4.17,2.37-6.29,3.25-1.82.75-4.68,1.25-6.22,1.98-.48.23.19.32,0,.42-1.12.62-2.23,1.21-3.25,1.98-6.68,2.4-13.05,1.73-19.23-1.56-.07-.04-.66-.96-.99-1.13-1.35-.69-4.05-1.24-5.73-1.98-.42-.19-.85-.37-1.27-.57-.08-.62.03-.84.42-1.27,9.78,4.5,20.23,5.49,30.69,2.83.74.67,2.06-.28,2.76-.42s1.97.33,2.47-.64l-.21-.21c1.23,0,2.84-.84,3.96-1.41,4.61-2.37,9.46-5.99,12.94-9.83,1.39-1.53,2.45-3.33,3.96-4.74Z"/>
            <path class="cls-7" d="M434.55,805.39l9.62.14c.51.99-1.41,1.29-2.12,1.41-2.44.43-5.23-.08-7.5-.99v-.57Z"/>
          </g>
          <path class="cls-2" d="M436.46,802.56c6.09.3,12.37-.44,18.1-2.55.48.34.66.9.42,1.41-11.04,3.89-23.33,2.94-33.87-1.98-1.88-.88-3.48-1.8-5.02-2.97,6.69,3.58,12.66,5.7,20.36,6.08Z"/>
        </g>
        <g>
          <path class="cls-6" d="M481.43,743.45c-.04.31-.14.4-.14.42,0,.06-.35-.07-.28.92.3,4.74.57,7.66-.14,12.52-3.34,22.74-25.88,43.65-49.5,41.86-1.03-.08-2.03-.24-3.04-.42-.02.45,1.35.32,1.34.49-.05.87-11.33-2.53-12.23-2.9-.48-.2-2.8-1.69-2.97-1.7-.34-.01-.39-.02-.35.35.68.68,1.54.56,1.84,1.48-.55-.3-2.73-1.94-2.9-1.98-.38-.09-.58,0-.49.42-9.7-7.41-14.48-16.63-16.97-28.43-3.2-19.94,8.08-39.78,26.38-47.8,20.55-9.01,45.5-1.42,56.64,18.17.6,1.05,2.95,5.65,2.83,6.58Z"/>
          <path class="cls-9" d="M399.55,745.29c.39-1.13.34-1.62.99-2.97,1.87-3.9,4.89-7.63,7.71-10.89l1.91,2.33c-2.83,2.31-5.51,4.9-7.78,7.78-.94,1.2-1.73,2.81-2.83,3.75Z"/>
          <path class="cls-1" d="M399.13,759.57s-.01.1,0,.14c-.38-.22-3.03-.78-3.11-.92-.15-.26.96-5.18,1.13-5.87.73.44,1.01-1.51,1.13-1.98.48-.06.46.08.42.49-.28,3-.3,5.09.42,8.13Z"/>
          <g>
            <path class="cls-3" d="M399.13,759.71s.01-.1,0-.14l3.11-7.85-3.46-2.47-.35.21c.17.42-.03,1.07-.14,1.48-.12.47-.4,2.42-1.13,1.98.65-2.58,1.54-5.13,2.4-7.64,1.1-.93,1.88-2.55,2.83-3.75,2.26-2.87,4.94-5.47,7.78-7.78l-1.91-2.33c-2.82,3.26-5.84,6.99-7.71,10.89,4.55-12.06,16.67-21.86,29.06-25.17,17.63-4.71,41.11,3.54,42.78,23.97,1.91,23.29-28.45,41.87-49.29,38.4-9.11-1.52-21.66-10.52-23.97-19.8Z"/>
            <path class="cls-9" d="M430.17,717.28c.84-.21,1.76,2.65,1.7,3.39-7.09,1.71-13.29,5.85-18.81,10.47l-2.05-2.33c5.27-5.06,11.56-8.61,18.46-10.96.26-.09.48-.51.71-.57Z"/>
            <path class="cls-9" d="M432.57,722.23c.51.02,1.15,1.95.85,2.26-6.23,2.3-11.88,5.97-16.97,10.18l-2.19-2.19c-.09-.83,8.46-6.35,9.69-7,1.5-.79,7.2-3.32,8.63-3.25Z"/>
            <path class="cls-9" d="M411.36,734.96l2.33,2.33c-3.82,3.47-6.96,7.5-9.97,11.67-.33-.31-2.74-2.15-2.76-2.33-.12-1.11,8.56-10.85,10.39-11.67Z"/>
          </g>
          <path class="cls-9" d="M399.13,759.57c-.73-3.04-.7-5.13-.42-8.13.04-.41.06-.56-.42-.49.11-.42.32-1.06.14-1.48l.35-.21,3.46,2.47-3.11,7.85Z"/>
        </g>
      </g>
    </g>
  </g>
</svg>