<?xml version="1.0" encoding="UTF-8"?>
<svg id="Layer_30" data-name="Layer 30" xmlns="http://www.w3.org/2000/svg" viewBox="0 0 1759.36 1918.59">
  <path d="M727.08,1037.78c10.79-45.81-75.51-102.52-108.88-124.45-91.64-60.23-161.97-65-303.32-97.25C86.99,764.1,21.61,719.91,3.77,746.05c-25.76,37.74,84.9,167.44,194.42,245.02,139.95,99.13,270.22,107.59,299.43,108.91,79.41,3.6,216.91-8.98,229.45-62.2Z"/>
  <path d="M929.3,1014.46c-16.07-68.02,95.2-155.09,186.68-194.43,91.83-39.48,124.08-13.82,295.56-34.97,198.03-24.44,298.75-76.4,315-46.64,17.07,31.26-79.71,114.8-108.9,139.99-28.16,24.31-80.31,65.44-221.68,132.2-137.72,65.04-208.06,97.47-280.01,93.31-64.05-3.71-172.5-29.53-186.66-89.46Z"/>
  <path d="M690.01,572.82c7.1,14.56-17.63,45.4-45.99,59.12-45.6,22.05-96.13-2.36-111.67-9.86-83.3-40.24-91.94-125.14-157.63-256.2-19.03-37.97-158.43-310.4-282.43-295.62C44.69,75.93,14.07,122.16,3.6,112.95-8.79,102.04,18.65,23.51,69.3,4.57c77.02-28.81,195.54,84.7,259.45,170.81,139.46,187.9,111.33,369.84,220.02,400.72,62.19,17.67,130.59-25.08,141.23-3.27Z"/>
  <path d="M814.82,520.28c8.36,1.2,15.14,48.38,0,91.96-22.82,65.65-84.14,90.7-95.26,95.24-52.64,21.5-105.38,12.41-105.82,7.55-.51-5.52,67.5,3.32,120.94-37.78,70.6-54.31,67.61-158.77,80.15-156.97Z"/>
  <path d="M947.11,375.03c-9.32,3.08-34.14-30.85-40.89-69.01-.63-3.57-12.73-78.3,35.79-109.9,41.42-26.98,99.75-4.77,99.68,2.56-.07,6.8-50.25-3.92-79.23,25.55-44.52,45.28.05,145.7-15.35,150.8Z"/>
  <path d="M1068.74,320.26c-4.62-2.31-12.24-5.41-22.07-6.31-2.24-.2-17.55-1.59-25.23,3.15-16.08,9.94-10.57,54.08,0,78.84,29.59,69.35,140.18,83.62,176.59,88.31,33.48,4.32,230.56,29.75,312.21-81.96,68.89-94.26-13.16-192.08,69.4-299.58,49.58-64.55,125.69-89.85,123-94.59-2.23-3.93-57,9.03-100.92,50.45-55.79,52.6-42.34,102.32-97.78,227.04-29.79,67.03-44.69,100.54-75.7,126.13-77.08,63.61-194.05,39.43-245.98,25.21"/>
  <path d="M190.49,1334.91c-107.6,57.56-131.18,250.38-75.95,291.7,42.73,31.97,108.59-44.7,175.82-11.97,84.55,41.15,46.75,194.7,115.86,223.78,74.26,31.25,146-134.21,275.73-131.84,147.58,2.69,192.26,219.31,315.66,211.81,122.79-7.46,128.53-224.96,283.74-267.71,167.04-46.01,296.84,168.34,403.58,111.92,84.48-44.65,99.63-229.89,32-355.64-83.37-155.01-289.41-213.84-327.66-171.86-25.73,28.24,24.64,101.93-.01,119.88-27.35,19.92-86.47-72.97-171.82-71.94-99.48,1.19-114.43,128.54-219.79,143.84-111.8,16.23-158.74-117.9-271.72-95.93-83.35,16.21-102.14,97.83-179.83,91.89-45.24-3.46-52.31-32.17-115.88-63.95-18.1-9.05-147.13-73.55-239.76-24Z"/>
</svg>