<?xml version="1.0" encoding="UTF-8"?>
<svg id="Layer_44" data-name="Layer 44" xmlns="http://www.w3.org/2000/svg" viewBox="0 0 526 594.96">
  <defs>
    <style>
      .cls-1 {
        fill: #ffa5e5;
      }
    </style>
  </defs>
  <path class="cls-1" d="M169.41,69.72c-30.89-11.39-74.8-15.28-105.03,0C-2.79,103.64-23.25,242.63,31.19,312.93c43.9,56.7,101.59,23.62,176.88,82.93,95.2,75,98.03,202.79,121.6,199.01,21.51-3.45-.82-106.7,49.77-210.05,32.96-67.34,85.2-110.88,127.15-138.19,42.85-108.63,9.61-210.47-49.73-237.7-40.73-18.69-104.57-7.19-143.57,26.24-36.1,30.94-37.15,68.88-66.5,73.24-25.37,3.78-34.89-23.03-77.39-38.7Z"/>
</svg>