<?xml version="1.0" encoding="UTF-8"?>
<svg id="Layer_10" data-name="Layer 10" xmlns="http://www.w3.org/2000/svg" viewBox="0 0 1749.7 1142.73">
  <defs>
    <style>
      .cls-1 {
        fill: #f8e2a5;
      }

      .cls-2 {
        fill: #be947a;
      }

      .cls-3 {
        fill: #7d9435;
      }

      .cls-4 {
        fill: #d4b697;
      }

      .cls-5 {
        fill: #4458ff;
      }

      .cls-6 {
        fill: #909ca4;
      }

      .cls-7 {
        fill: #96d0e5;
      }

      .cls-8 {
        fill: #996648;
      }

      .cls-9 {
        fill: #986655;
      }

      .cls-10 {
        fill: #e9cb78;
      }

      .cls-11 {
        fill: #7d5538;
      }

      .cls-12 {
        fill: #95c6ba;
      }

      .cls-13 {
        fill: #f5c586;
      }

      .cls-14 {
        fill: #597cff;
      }

      .cls-15 {
        fill: #85b3a7;
      }

      .cls-16 {
        fill: #90a348;
      }

      .cls-17 {
        fill: #fff;
      }

      .cls-18 {
        fill: #a67464;
      }

      .cls-19 {
        fill: #c6cccf;
      }

      .cls-20 {
        fill: #dfb656;
      }

      .cls-21 {
        fill: #4f6571;
      }

      .cls-22 {
        fill: #ebb061;
      }

      .cls-23 {
        fill: #5b7a2b;
      }

      .cls-24 {
        fill: #afb9be;
      }

      .cls-25 {
        fill: #fae1c4;
      }

      .cls-26 {
        fill: #74838c;
      }

      .cls-27 {
        fill: #d19679;
      }

      .cls-28 {
        fill: #6b8732;
      }

      .cls-29 {
        fill: #784130;
      }

      .cls-30 {
        fill: #e6e2ca;
      }

      .cls-31 {
        fill: #ab7e64;
      }

      .cls-32 {
        fill: #5e7581;
      }

      .cls-33 {
        fill: #f6e0cb;
      }

      .cls-34 {
        fill: #e9ece4;
      }

      .cls-35 {
        fill: #8d5746;
      }

      .cls-36 {
        fill: #e1f2fc;
      }

      .cls-37 {
        fill: #bddfd4;
      }

      .cls-38 {
        fill: #fcf5e2;
      }
    </style>
  </defs>
  <g>
    <rect class="cls-14" x="19.02" width="1623.33" height="1142.73"/>
    <path class="cls-5" d="M15.99,1139.17c47.8-59.8,125.04-142.51,238.58-212.69,342.77-211.87,725.91-130.02,875.84-97.99,117.52,25.11,296.81,78.45,493.7,202.94,6.08,37.1,12.16,74.2,18.23,111.3l-1626.36-3.56Z"/>
    <path d="M1746.08,703.57c-95.02-15.54-189.08-36.15-282.79-58.14.36-78.65.37-157.31.04-235.96-.09-22.35-.22-44.7-.37-67.04,63.18,24.03,126.32,48.19,192.63,62.1,12.63,2.65,25.35,4.87,38.13,6.71,6.29.9,9.01-8.73,2.66-9.64-81.06-11.65-157.3-41.01-233.5-69.9-.14-19.29-.29-38.57-.46-57.85-.06-6.43-10.06-6.45-10,0,.17,18.02.31,36.04.44,54.06-18.74-7.09-37.49-14.1-56.32-20.76-51-18.05-102.86-33.09-156.39-41.43-14.94-2.33-29.94-4.21-44.96-5.75-.7-28.26-1.5-56.52-2.43-84.78-1.04-31.83-2.25-63.66-3.59-95.48,49.6,3.01,99.07,7.49,148.17,14.79,108.67,16.15,214.7,45.89,319.88,76.98,13.03,3.85,26.06,7.73,39.09,11.6,6.18,1.84,8.82-7.81,2.66-9.64-105.68-31.43-211.68-62.95-320.39-82.27-62.83-11.17-126.23-17.23-189.82-21.06-.83-19.46-1.7-38.91-2.64-58.36-.31-6.41-10.31-6.44-10,0,.93,19.26,1.79,38.51,2.62,57.77-45.69-2.59-91.48-4.12-137.2-5.64-112.45-3.74-224.95-6.01-337.46-6.82-1.74-3.64-7.6-3.67-9.14-.07-108.84-.73-217.8-.71-326.51,5.23-49.05,2.68-98.1,6.62-146.92,12.31-.87-2.04-1.74-4.08-2.62-6.11-3.43-7.91-6.93-15.79-10.49-23.65-2.65-5.85-11.27-.78-8.63,5.05,3.9,8.61,7.71,17.26,11.45,25.94-56.5,6.88-112.69,16.17-168.24,28.68-13.18,2.97-26.31,6.13-39.4,9.45-6.23,1.58-3.59,11.23,2.66,9.64,68.79-17.45,138.69-29.7,209.08-38.2,21.28,50.18,40.06,101.41,56.58,153.35,6.58,20.69,12.81,41.5,18.7,62.4-80.75,17.77-161.05,37.67-242.28,53.21-13.71,2.62-27.45,5.11-41.21,7.47-6.33,1.08-3.65,10.72,2.66,9.64,95.32-16.32,189.12-39.95,283.53-60.71,11.25,40.63,21.26,81.61,30.18,122.81,5.61,25.89,10.78,51.87,15.58,77.92-93.7,7.25-187.03,19.42-279.44,36.51-14.18,2.62-28.34,5.37-42.47,8.22-6.3,1.27-3.64,10.91,2.66,9.64,106-21.34,213.25-36.23,321.06-44.51,6.69,37.08,12.61,74.29,17.89,111.59,3.93,27.78,7.48,55.62,10.74,83.49-41.63,11.06-82.8,23.9-123.37,38.37-66.07,23.56-130.62,51.36-193.35,82.74-7.72,3.86-15.41,7.78-23.07,11.74-5.72,2.96-.67,11.59,5.05,8.63,61.82-31.98,125.41-60.54,190.61-84.92,47.65-17.81,96.14-33.41,145.3-46.52,4.14,36.27,7.79,72.6,11.03,108.96,6,67.46,10.63,135.04,14.56,202.65.48,8.31.95,16.62,1.42,24.94.36,6.4,10.36,6.44,10,0-3.8-68.2-8.22-136.38-13.96-204.45-3.8-44.94-8.19-89.83-13.34-134.64,14.93-3.87,29.92-7.53,44.97-10.94,68.43-15.48,137.98-25.96,208-30.65,27.51-1.84,55.07-2.8,82.64-2.86.12,5.05.22,10.1.26,15.15.16,19.74-1.41,41.64-15.86,56.6-4.47,4.63,2.59,11.71,7.07,7.07,12.62-13.07,17.12-30.6,18.38-48.28.72-10.12.65-20.32.3-30.53,40.26.24,80.52,2.42,120.56,6.64,70.58,7.44,140.53,21.36,208.43,42.05,8.43,2.57,16.82,5.25,25.19,8.02,6.12,2.03,8.75-7.63,2.66-9.64-67.97-22.51-138.06-38.09-209.05-47.24-49.13-6.33-98.65-9.55-148.19-9.83-.34-7.5-.75-14.99-1-22.43-1.46-42.61-2.92-85.22-4.38-127.82,105.9,6.97,211.26,20.41,315.6,39.84,50.98,9.49,101.7,20.24,152.29,31.64.01,20.83.41,41.86-1.74,62.56-2.08,19.98-7.69,40.25-22.47,54.63-4.62,4.5,2.45,11.56,7.07,7.07,27.7-26.95,26.65-69.07,26.96-104.84.05-5.72.08-11.45.12-17.17,56.79,12.89,113.42,26.56,170.04,40.17,28.34,6.81,56.69,13.62,85.07,20.3-.16,33.73-.38,67.47-.67,101.2-.39,45.21-.89,90.42-1.51,135.63-.09,6.44,9.91,6.44,10,0,1.06-78.16,1.79-156.32,2.17-234.49,78.77,18.48,157.77,35.97,237.42,50.21,14.23,2.55,28.49,4.98,42.76,7.31,6.3,1.03,9-8.6,2.66-9.64ZM997.84,72.47c60.31,1.8,120.89,3.2,181.31,6.63,2.52,59.94,4.52,119.9,6.02,179.87-37.51-3.45-75.21-4.79-112.88-5.08-57.62-.44-115.23,1.46-172.84,1.71-58.23.25-116.44-.98-174.67-1.19-4.51-.02-9.02-.02-13.53-.03-.39-11.53-.79-23.07-1.18-34.6-1.74-50.92-3.49-101.84-5.23-152.76,97.69.71,195.36,2.52,293.01,5.44ZM288.36,257.94c-17.99-58.96-38.83-117.06-62.79-173.86,35.1-4.06,70.32-7.2,105.57-9.61,109.43-7.47,219.18-8.13,328.82-7.7,11.62.04,23.24.12,34.86.19,2.14,62.48,4.28,124.95,6.42,187.43-50.86.1-101.74,1.24-152.46,5.11-56.45,4.3-112.5,12.5-168.12,22.97-26.85,5.06-53.6,10.61-80.3,16.43-3.86-13.69-7.85-27.35-12.01-40.96ZM338.06,454.29c-10.1-48.94-21.68-97.59-35-145.76,12.53-2.73,25.07-5.4,37.63-7.99,55.23-11.38,110.84-21.22,166.93-27.27,57.75-6.23,115.86-8.33,173.92-8.79,6.68-.05,13.36-.08,20.05-.09l2.57,75.16c1.93,56.31,3.86,112.63,5.78,168.94-104.49-6.45-209.36-6.77-313.88-.92-15.69.88-31.37,1.91-47.04,3.06-3.45-18.82-7.09-37.61-10.96-56.35ZM658.74,670.8c-70.53,3.33-140.76,12.5-209.9,26.78-23.36,4.83-46.59,10.25-69.69,16.22-2.29-19.49-4.72-38.96-7.32-58.41-6.05-45.1-12.98-90.09-21.02-134.88,2.35-.17,4.7-.36,7.05-.52,112.87-7.93,226.24-8.7,339.2-2.27,4.41.25,8.81.53,13.22.81,1.16,33.83,2.32,67.67,3.47,101.5.56,16.44,1.35,32.91,1.89,49.37-18.98.04-37.95.51-56.91,1.4ZM1188.22,580.39c-37.23-8.37-74.54-16.39-111.98-23.8-111.56-22.09-224.22-37.96-337.67-46.18-6.2-.45-12.41-.87-18.61-1.27-.06-1.63-.11-3.25-.17-4.88-2.74-79.95-5.47-159.9-8.21-239.85,48.21.03,96.41.88,144.61,1.16,57.38.32,114.72-1.12,172.08-1.61,52.4-.45,104.91.19,157.11,5.03.22,9.28.44,18.57.64,27.85,2.01,94.51,2.73,189.04,2.19,283.56ZM1409.79,632.75c-70.49-16.86-140.9-34.09-211.59-50.11.24-39.41.26-78.83.05-118.24-.34-64.82-1.3-129.64-2.84-194.44,1.09.11,2.18.21,3.27.33,54.49,5.82,107.67,17.63,159.78,34.47,31.8,10.27,63.15,21.98,94.46,33.86.4,58.52.62,117.05.64,175.58.01,42.97-.08,85.93-.27,128.89-14.51-3.42-29-6.87-43.5-10.33Z"/>
  </g>
  <g id="Generative_Object" data-name="Generative Object">
    <path class="cls-37" d="M403.48,720.89c.41,5.47-.07,11.02.45,16.55-1.82,16.5-.03,35.15,10.41,48.46,15.97,20.36,50.5,19.91,58.82,47.98-3.66-.73-9.09-1.41-12.67-.95-.5-2.82-1.98-5.39-2.94-8.04-1.31,2.05-2.75,4.21-3.39,6.62-16.7-1.41-33.66-2.02-50.45-1.42-9.47.34-36.69,1.5-44.57,4.25,1.06-3.58,16.87-10.57,17.19-11.58.47-1.47-1.58-4.59-2.94-4.96-9.77-2.71-41.11,14.56-47.74,23.64-.48.23-.93.62-1.36.95-4.61,1.43-14.85,3.5-18.55,6.15h-.45c8.9-11.87,22.92-19.91,35.52-26.95,7.83-4.37,19.02-8.24,26.02-12.76l17.87,8.04c17.19-22.83,3.18-56.68.68-82.73,4.17.23,8.39.15,11.99-2.36,1.88-1.31,7.59-7.69,4.3-9.93.15-.07.59-1.48,1.81-.95Z"/>
    <path class="cls-37" d="M401.67,721.83c3.3,2.23-2.42,8.61-4.3,9.93-3.6,2.51-7.82,2.6-11.99,2.36-.05,0,.15-.92-.23-.95-4.95-.34-9.87-.33-14.71-1.65-.23.44,4.82,5.65,5.43,6.62,6.02,9.6,7.59,40.3,4.52,51.53-1.88,6.89-7.67,15.33-13.57,19.15-7,4.52-18.19,8.39-26.02,12.76-12.6,7.04-26.62,15.08-35.52,26.95-11.97,4.58-5.52,20.33-1.81,29.31-1.62.06-2.24-4.77-2.94-4.73-.27.02-2.08,3.29-4.3,2.84-20.59-54.25,48.63-48.62,70.59-80.13,13.65-19.59,11.87-45.81.9-66.18-1.22-2.27-4.3-4.44-4.98-7.33,10.63.74,29.18,4.27,38.91-.47Z"/>
    <path class="cls-15" d="M296.24,875.94c2.22.46,4.03-2.82,4.3-2.84.7-.04,1.33,4.78,2.94,4.73,16.61,40.16,65.04,73.99,107.46,70.44,43.02-3.6,78.22-52.1,80.77-95.02,3.39.81,2.48-9.74,2.26-12.05-.49-5.25-2.93-9.89-4.07-14.89,17.25,31.44-10.47,86.64-35.07,107.31-54.24,45.58-135.51,3.13-158.59-57.67Z"/>
    <path class="cls-12" d="M489.9,826.31c1.14,5,3.58,9.64,4.07,14.89.22,2.32,1.12,12.86-2.26,12.05.41-6.86,2.27-9.92-4.07-14.18-3.48-2.34-10.33-4.37-14.48-5.2-8.33-28.07-42.85-27.62-58.82-47.98-10.44-13.31-12.22-31.95-10.41-48.46.84,8.83,3.44,22.37,6.79,30.49,13.74,33.35,62.9,28.7,79.18,58.38Z"/>
    <path class="cls-15" d="M409.81,692.05c.33,3.6-6.33,5.63-9.28,6.62-11.09,3.73-50.4,8.4-58.6-.47-.7-2.4,1.93-1.55,3.39-1.42,18.31,1.64,29.13,3.64,47.96-.47,5.39-1.18,11.29-4.77,16.52-4.25Z"/>
    <path class="cls-34" d="M350.99,677.87c0,.07.4.18.45,1.42.04.81.49,1.95.45,2.13-.1.43-6.51,3.66-6.79,5.2,0,.99,6.44,4.17,7.69,2.6,1,.27,1.55-.52,1.81-.47.1.02,0,.72,1.81.95,4.4.54,8.7.57,13.12.47,3.23-.07,6.29-.15,9.5-.47,3.86-.38,7.97-1.05,11.76-1.89,3.54-.78,6.97-2.37,10.41-3.31.68-.19,1.48.26,2.26-.47.51,2.18-1.42,2.92-2.94,3.78-9.36,5.33-43,7.99-52.49,3.78-2.58-1.14-4.3-4.48-5.43-5.2-.63-.4-2.8.86-2.94-.24-.34-2.56,8.61-11.47,11.31-8.27Z"/>
    <path class="cls-34" d="M409.81,692.05c-5.22-.51-11.12,3.08-16.52,4.25-18.83,4.11-29.65,2.11-47.96.47-1.46-.13-4.1-.98-3.39,1.42-2.19-2.37-1.89-5.76-2.04-8.98,11.32,9.78,26.96,8.05,40.72,6.62.68-1.2-.26-.82-.9-.95-3.81-.72-8.4.92-12.22-.47,13.29.2,27.27-.24,38.91-7.56.89,5.77,1.22,2.33,3.39,5.2Z"/>
    <path class="cls-15" d="M403.48,720.89c-1.22-.54-1.66.87-1.81.95-9.73,4.74-28.29,1.21-38.91.47-.02-.08-.87-.6-.45-1.65.32-.8,1.24-.63,1.36-.71.42-.3.88-.79,1.36-.95,1.84-.6,4.82-.49,6.79-.47,5.62.05,11.05,1.8,17.19,1.42,4.09-.25,8.24-.73,11.76-3.07v-13.47c2.71,5.24,2.28,11.74,2.71,17.49Z"/>
    <path class="cls-34" d="M385.38,734.12c2.5,26.04,16.51,59.9-.68,82.73l-17.87-8.04c5.91-3.82,11.7-12.26,13.57-19.15,3.06-11.23,1.5-41.93-4.52-51.53-.61-.97-5.66-6.18-5.43-6.62,4.84,1.32,9.75,1.32,14.71,1.65.37.03.18.94.23.95Z"/>
    <path class="cls-34" d="M359.14,834.34c-.52.18-1.33.63-1.81.95l-31.67,6.15c6.62-9.07,37.96-26.35,47.74-23.64,1.36.38,3.41,3.49,2.94,4.96-.32,1.01-16.13,8-17.19,11.58Z"/>
    <path class="cls-12" d="M352.8,683.07c.54,1.89,1.35,3.75,1.81,5.67-.26-.05-.81.75-1.81.47-6.75-1.85-5.66-3.21,0-6.15Z"/>
    <path class="cls-17" d="M352.8,683.07c-5.66,2.93-6.75,4.29,0,6.15-1.25,1.57-7.69-1.61-7.69-2.6.28-1.54,6.69-4.77,6.79-5.2.04-.18-.41-1.32-.45-2.13,1.3.53,1.04,2.66,1.36,3.78Z"/>
    <g>
      <path class="cls-8" d="M403.03,650.92c-.74,10.55-1.81,21.06-1.81,31.67v1.89c-3.44.94-6.87,2.53-10.41,3.31l3.17-29.31c3.62-1.91,6.32-4.53,9.05-7.56Z"/>
      <path class="cls-31" d="M380.86,704.81c1.57,4.38,3.07,6.12,7.69,4.73-.14,3.44-.08,7.02.45,10.4-6.14.38-11.57-1.36-17.19-1.42l-2.71-13.24c3.93-.15,7.83-.08,11.76-.47Z"/>
      <path class="cls-13" d="M400.76,644.77c2.83,7.47-7.27,12.49-12.9,14.18-10.54,3.17-22.16,3.25-31.67.47-4.32-1.26-7.43-1.7-10.18-6.15.26-1.39-.17-3.1.45-4.49,1.59-3.56,13.03-10.14,17.19-9.22-21.01,7.7-12.04,19.17,5.2,20.33,6.74.45,20.93-1.76,26.24-6.15,8.13-6.71.79-12.64-6.33-14.65-3.77-1.07-12.03-1.57-16.52-1.42,7.29-1.59,24.36-.11,28.51,7.09Z"/>
      <path class="cls-8" d="M400.76,703.39v13.47c-3.52,2.34-7.67,2.82-11.76,3.07-.54-3.38-.59-6.96-.45-10.4.07-1.68,1.18-3.84,0-5.67,1.69-.25,11.05-3.27,11.76-2.6.02.5.27,1.77.45,2.13Z"/>
      <path class="cls-25" d="M403.03,650.92c-2.73,3.03-5.43,5.65-9.05,7.56-2.62,1.38-7.11,3.11-9.95,3.78-4.28,1.02-9.16,1.37-13.57,1.42-7.41.08-15.28-.58-21.72-4.73-.85-.55-1.82-2.26-2.71-1.89-.07-.32-1.37-2.9-1.36-3.07.05-.49,1.2.16,1.36-.71,2.75,4.44,5.86,4.88,10.18,6.15,9.52,2.78,21.13,2.7,31.67-.47,5.62-1.69,15.73-6.71,12.9-14.18,1.46,2.53,1.09,2.91,1.58,5.2l1.13-1.18c.12.88-.39,1.24-.45,2.13Z"/>
      <path class="cls-2" d="M369.09,705.29l2.71,13.24c-1.97-.02-4.95-.12-6.79.47l-4.07-13.71c1.77-.44,5.96.09,8.14,0Z"/>
      <path class="cls-31" d="M348.73,658.96l7.69,30.73c-1.81-.22-1.71-.93-1.81-.95-.46-1.92-1.27-3.79-1.81-5.67-.32-1.12-.05-3.25-1.36-3.78-.06-1.24-.44-1.34-.45-1.42-.94-7.08-3.43-13.84-4.98-20.8.9-.37,1.86,1.34,2.71,1.89Z"/>
      <path class="cls-31" d="M388.55,703.87c1.18,1.84.07,3.99,0,5.67-4.62,1.39-6.13-.35-7.69-4.73,2.49-.25,5.22-.58,7.69-.95Z"/>
      <path class="cls-8" d="M360.95,705.29l4.07,13.71c-.47.15-.94.64-1.36.95l-4.07-14.42c.25-.47.96-.14,1.36-.24Z"/>
      <path class="cls-15" d="M403.48,684.01c-.78.74-1.58.29-2.26.47v-1.89c.95-.24,2.04.49,2.26,1.42Z"/>
      <g>
        <path class="cls-22" d="M372.26,637.68c4.49-.15,12.74.35,16.52,1.42,7.13,2.02,14.46,7.94,6.33,14.65-5.31,4.39-19.51,6.6-26.24,6.15-17.25-1.16-26.21-12.63-5.2-20.33,3.1-1.14,5.01-1.77,8.6-1.89Z"/>
        <path class="cls-13" d="M370.67,642.41c4.3-.17,13.82,4.33,7.01,8.27,4.45-6.84-12.02-8.6-13.57-1.89,1.79,2.93,3.9,1.52,6.33,2.36-10.8,2.86-10.07-8.34.23-8.75Z"/>
        <path class="cls-13" d="M388.77,640.99c1.4,3.75-6.03,14.87-9.5,14.18-.09-.02-.91-.71-.45-.95,5.47-.78,7.31-8.85,9.95-13.24Z"/>
      </g>
      <path class="cls-31" d="M384.02,662.27l-4.98,27.42c-3.22.32-6.27.41-9.5.47-.1-3.18-.5-6.25-.45-9.45,2.9.63,1.9-6.11.9-7.56.3-3.08.6-6.37.45-9.45,4.41-.05,9.29-.4,13.57-1.42Z"/>
      <g>
        <path class="cls-31" d="M393.98,658.48l-3.17,29.31c-3.79.84-7.9,1.51-11.76,1.89l4.98-27.42c2.84-.68,7.34-2.4,9.95-3.78Z"/>
        <path class="cls-11" d="M385.61,664.16c1.3-.34,1.58,2.55.45,2.84-1.3.34-1.58-2.55-.45-2.84Z"/>
      </g>
      <g>
        <path class="cls-2" d="M370.45,663.68c.15,3.09-.16,6.37-.45,9.45-.25,2.61-.86,4.81-.9,7.56-.05,3.2.35,6.28.45,9.45-4.42.09-8.72.07-13.12-.47l-7.69-30.73c6.44,4.14,14.31,4.81,21.72,4.73Z"/>
        <path class="cls-8" d="M363.43,668.88c.62-.01.76.3,1.13.71-1.34,19.03-5.65-.61-1.13-.71Z"/>
        <path class="cls-8" d="M369.09,680.7c.04-2.75.65-4.95.9-7.56,1,1.45,1.99,8.2-.9,7.56Z"/>
      </g>
    </g>
    <g>
      <path class="cls-17" d="M491.71,853.25c-2.54,42.92-37.75,91.42-80.77,95.02-42.43,3.55-90.85-30.28-107.46-70.44-3.71-8.98-10.16-24.73,1.81-29.31h.45c-3.65,2.61-4.05,6.02-4.07,9.93-.2,38.88,57.26,82.03,91.63,86.04,52.23,6.09,95.32-44.87,96.15-96.91.06-3.68,1.67-4.22-1.81-7.09v-1.42c6.34,4.26,4.48,7.32,4.07,14.18Z"/>
      <path class="cls-1" d="M324.3,842.38c-.12.09-.71,1.2-.9,1.42-2.99-.85-6.56,3.37-7.24,5.91s-1.73,13.04,1.81,13c1.34,11.35,7.12,23.15,12.22,33.09-9.25-8.58-15.29-20.12-14.93-33.33-.38-.9-12.04-1.93-13.57-4.02.02-3.91.42-7.32,4.07-9.93s13.94-4.71,18.55-6.15Z"/>
      <path class="cls-20" d="M489.45,847.58c-.83,52.04-43.92,103-96.15,96.91-34.36-4-91.83-47.16-91.63-86.04,1.54,2.09,13.19,3.12,13.57,4.02-.36,13.21,5.68,24.75,14.93,33.33.97.9,1.58,1.97,2.71,2.84l19.46,19.38c-.28.5-2.29,5.52-2.04,5.67,2.8-.4,5.67-1.09,8.37-1.89,4.21,3.66,9.74,6.3,14.93,8.04.83.28.78,1.31,1.81.47.58,1.14,7.72,3.67,9.73,4.25,9.65,2.79,21.76,3.75,31.67,2.36.38-.05.18-.94.23-.95.26-.04.48.29,1.81,0,25.22-5.4,45.23-28.81,52.49-53.89.13-.18.32-.73.45-.95,3.56-5.99,5.32-19.32,4.52-26.24.59-1.87,1.71-1.51,2.71-2.13,3.16-1.94,7.31-2.89,10.41-5.2Z"/>
      <g>
        <path class="cls-38" d="M357.33,835.29c-8,5.15-13.74,24.69-9.05,33.56-4.76-5.02-12.14-5.82-18.55-4.02,4.35,4.46,9.14,10.15,15.16,12.05,1.2.38,4.2-.49,5.2.24s6.86,19.09,9.05,22.69c2.52,4.13,6.24,7.7,10.41,9.93-.5.89-7.38-1.57-7.92-2.13-.67-.68-1.42-4.15-2.49-5.44-1.45-1.75-7.63-8.53-9.05-5.67s.36,8.2,2.26,10.64c-7.22-2.09-13.19-3.73-19.46-8.51-1.13-.86-1.74-1.94-2.71-2.84-5.1-9.94-10.88-21.75-12.22-33.09-.8-6.79.89-13.74,5.43-18.91.19-.22.78-1.33.9-1.42.42-.32.88-.71,1.36-.95l31.67-6.15Z"/>
        <path class="cls-1" d="M341.72,882.56c1.86-.65,8.13.96,8.82,3.55.61,2.27-1.8,6.85-3.85,7.33-6.84,1.6-9.88-9.15-4.98-10.87Z"/>
        <path class="cls-30" d="M333.12,852.31c7.19-1.45,6.13,12.1-.9,7.56-3.15-2.03-1.84-7.01.9-7.56Z"/>
      </g>
      <path class="cls-38" d="M323.39,843.8c-4.54,5.17-6.23,12.12-5.43,18.91-3.54.04-2.5-10.4-1.81-13s4.25-6.76,7.24-5.91Z"/>
      <path class="cls-10" d="M487.64,840.49c3.48,2.87,1.87,3.41,1.81,7.09-3.09,2.31-7.25,3.26-10.41,5.2-.49-1.27-1.69.61-2.26-.71-1.59-3.62-.17-12.69-3.17-16.55.16-.95,2.82.03,3.39.24,1.95.7,9.37,3.68,10.63,4.73Z"/>
      <g>
        <path class="cls-23" d="M460.49,832.92c1.54,8.77-2.59,13-2.71,21.51.1.43.78.15.9.24.48.34.42.47.45.47-1.89,1.23-2.17,3.56-2.49,5.67,5.74-5.66,11.5-6.91,19.23-5.44.13.95-7.98,5.59-9.28,5.91-2.37.58-9.24-.02-9.95.47-1.03.71-3.18,7.56-2.49,8.51.35.49,1.83.44,1.81.71-.48.21-3.51,1.71-3.62,1.89s.45,2.14-.45,4.02c-.37.77-4.92,8.37-3.85,8.98,8.25-4.99,13.86-8.5,23.75-4.73-.13.22-.33.77-.45.95-3.44,4.77-9.97,7.76-15.61,7.09-8.07-.96-6.74-6.95-13.35,3.78-1.11,1.8-1.82,3.77-3.17,5.44.1,1.04,7.92,1.66,8.82-.24l.23.95c-2.26,2.96-9.66-.54-10.18-.47-.7.1-3.25,3.89-3.85,4.73-.36.5-.59.91-.9,1.42-5,8.14-6.93,17.96-5.88,27.66-2.48.67-1.65-4.77-1.81-5.91-.11-.74.12-1.64,0-2.36-1.15-6.95,5.89-16.3,6.33-21.75.1-1.19.46-.89.45-.95,2.14.56,3.18-4.03,4.98-4.96-.41-.46-.9-.77-1.36-1.18,3.34-1.92,1.54-8.86,0-11.82,2.92,3.26,1.95,7.38,2.49,11.35l8.82-12.05c-2.58-1.3-4.72-1.94-7.24-3.55l7.92,1.89c-1.39-1.25-1.03-3.85-1.58-5.2l2.26,4.02,3.17-10.4c-1.22-2.38-3.94-1.16-5.2-1.65-3.62-1.43-3.99-2.2-6.56-4.73-1.62-1.38-5.05-11.79-3.85-12.76,3.77,2.05,10.02,4.41,12.44,8.27,1.86,2.97,1.56,6.83,3.39,9.69.72-.03,3.07-9.13,3.39-10.4.3-1.17.59-1.59.9-3.31.26-1.44,1.47-6.31,1.36-7.33-.58-5.35-6.38-5.54-3.62-15.84.64-2.41,2.08-4.57,3.39-6.62.97,2.65,2.45,5.22,2.94,8.04Z"/>
        <path class="cls-1" d="M473.16,833.87c4.15.83,11,2.86,14.48,5.2v1.42c-1.27-1.05-8.69-4.03-10.63-4.73-.57-.2-3.23-1.19-3.39-.24,3,3.86,1.58,12.92,3.17,16.55.58,1.31,1.77-.57,2.26.71-1.01.62-2.13.26-2.71,2.13.8,6.92-.96,20.25-4.52,26.24-9.9-3.77-15.51-.26-23.75,4.73-1.07-.61,3.47-8.21,3.85-8.98,8.92.35,13.41-6.1,18.55-12.53-.32-2.39-16.3,1.12-16.29,5.91-.69-.95,1.46-7.8,2.49-8.51.72-.49,7.58.11,9.95-.47,1.29-.32,9.4-4.96,9.28-5.91-7.73-1.47-13.49-.23-19.23,5.44.32-2.11.6-4.44,2.49-5.67,7.26,1.48,15.17-8.6,15.16-15.6-9.85,1.07-11.48,7.29-15.61,15.13-.13-.09-.8.19-.9-.24.13-8.5,4.26-12.74,2.71-21.51,3.57-.47,9.01.21,12.67.95Z"/>
        <path class="cls-23" d="M353.25,881.14c.3.96.58,1.89.9,2.84,3.92,11.43,9.99,25.39,23.08,26.24-7.51-6.04-11.84-12.6-7.69-22.69,3.68,3.56,6.42,8.36,7.24,13.71.46,3.04-1.62,6.07,1.13,9.22,1.44-3.11,4.54-6.55,5.66-9.69,4.42-12.52-2.08-6.81-8.37-11.58-3.2-2.42-4.55-6.72-5.2-10.64,8.63-.7,12.02,5.94,15.16,13,1.48-.24.69-10.36-.68-11.82l.45-1.42c.28.81.51,1.51.68,2.36.21.03.71-4.09,2.49-3.31v.47c-2.47,1.72-1.12,9.65-1.13,12.76,3.14-2.61,2.68-8.48,7.01-9.93-.86.72-3.74,4.39-3.62,5.44,0,.08,1.47-.22,1.36.47-.09.53-3.05,2.54-2.71,3.31l2.04.71,5.66-1.89c-2.93,2.11-9.01,2.57-9.95,4.02-.28.43-2.36,9.76-2.04,10.16.5.26.82-.62,1.13-.47.03.01-.17.33.45.47-1.93-.56-6.94,7.28-6.79,7.8.38,1.27,3.95,1.44,5.43.24,4.49,4.59,9.27.31,8.6-5.67,3.04.32-1.12,6.63-2.26,7.8,9.03,3.33,18.02,7.46,23.75,15.84,2.51-6.28-3.75-10.34-4.3-15.36-.37-3.39,1.26-9.18,2.71-12.29,11.44,11.26-2.63,22.99,5.43,34.75-1.33.29-1.55-.04-1.81,0-1.93-5.17-5.56-9.46-9.73-12.76-4.18,7.01-6.91,10.38-15.38,10.87,1.81-7.88,6.8-12.11,14.71-11.11-.77-.97-7.45-5.5-7.92-5.44-.33.05-2.93,4.64-3.85,5.67l2.71-5.44c-.13-1.6-1.27-.94-1.81-1.18-4.8-2.15-11.44-2.15-16.52-3.78-2.11,3.1-5.46,14.29-3.85,17.49-1.03.84-.98-.2-1.81-.47l2.94-17.49c-6.84-3.24-7.24,4.16-11.31,7.09-2.26,1.63-4.1,1.64-6.56,2.36-2.7.8-5.57,1.49-8.37,1.89-.25-.15,1.76-5.18,2.04-5.67,4.74-8.46,10.36-5.64,18.1-6.38-2.51-.47-6.65-2.74-8.82-3.07-.27-.04-3.14,1.4-5.43.95-1.4-.28-2.76-2.05-3.85-2.36-1.9-2.43-3.69-7.77-2.26-10.64s7.6,3.92,9.05,5.67c1.07,1.29,1.82,4.75,2.49,5.44.54.55,7.42,3.02,7.92,2.13-4.17-2.23-7.89-5.79-10.41-9.93-2.19-3.6-8.08-21.99-9.05-22.69s-4.01.14-5.2-.24c-6.02-1.9-10.81-7.6-15.16-12.05,6.42-1.8,13.79-1,18.55,4.02.32.61.75,2.71,1.81,2.6-1.62-8.36.32-16.36,6.79-21.75,1.14,5.87,5,13.68-.68,18.2-.9.72-4.04,1.44-4.52,1.89-2.82,2.66.59,8.2,1.58,11.35Z"/>
        <path class="cls-1" d="M393.98,863.65c-3.64,2.44-7.01,9.06-5.88,13.71-1.78-.78-2.28,3.34-2.49,3.31-.17-.86-.4-1.55-.68-2.36-1.88-5.43-2.33-9.19-7.24-12.76l-4.07-3.07.68-.71,23.53-.95-3.85,2.84Z"/>
        <path class="cls-3" d="M456.42,854.67c-.31,1.72-.61,2.14-.9,3.31-1.14-1.59-4-1.74-5.66-2.84-5.76-3.82-7.09-10.56-7.47-17.25,7.71,2.23,11.57,9.26,14.03,16.78Z"/>
        <path class="cls-16" d="M377.69,865.54c4.91,3.57,5.36,7.34,7.24,12.76l-.45,1.42c-.71-.75-6.36-2.25-7.92-3.31-4.63-3.13-5.65-8.52-6.11-13.95,2.69.28,5.06,1.49,7.24,3.07Z"/>
        <path class="cls-16" d="M354.16,883.98c-.33-.95-.6-1.88-.9-2.84,1.39-7.12,4.36-14.08,11.76-15.84.39,9.66-2.98,14.45-10.86,18.67Z"/>
        <path class="cls-16" d="M399.41,862.71c-.99,2.92-.21,6.21-2.26,9.69-2.71,4.59-6.43,3.61-9.05,5.44v-.47c-1.13-4.65,2.24-11.27,5.88-13.71.53-.36,5.65-3.07,5.43-.95Z"/>
        <g>
          <path class="cls-1" d="M454.16,831.51c-2.76,10.3,3.04,10.49,3.62,15.84.11,1.02-1.1,5.88-1.36,7.33-2.46-7.52-6.32-14.55-14.03-16.78.38,6.7,1.71,13.44,7.47,17.25,1.66,1.1,4.51,1.24,5.66,2.84-.33,1.27-2.68,10.37-3.39,10.4-1.83-2.86-1.53-6.72-3.39-9.69-2.43-3.86-8.67-6.22-12.44-8.27-1.21.98,2.23,11.38,3.85,12.76-2.3-2.26-2.84-2.9-4.3-6.15l-35.29,3.31c-.51.25-.92,1.73-1.13,2.36.22-2.12-4.9.59-5.43.95l3.85-2.84-23.53.95-.68.71,4.07,3.07c-2.18-1.59-4.55-2.79-7.24-3.07.45,5.43,1.48,10.82,6.11,13.95,1.56,1.06,7.21,2.56,7.92,3.31,1.37,1.46,2.16,11.58.68,11.82-3.13-7.06-6.53-13.7-15.16-13,.65,3.91,2.01,8.21,5.2,10.64,6.29,4.77,12.79-.93,8.37,11.58-1.11,3.14-4.22,6.58-5.66,9.69-2.75-3.15-.67-6.18-1.13-9.22-.82-5.35-3.56-10.15-7.24-13.71-4.14,10.09.18,16.65,7.69,22.69-13.09-.84-19.16-14.81-23.08-26.24,7.88-4.22,11.25-9.01,10.86-18.67-7.4,1.75-10.37,8.71-11.76,15.84-.99-3.15-4.41-8.69-1.58-11.35.48-.45,3.63-1.18,4.52-1.89,5.67-4.52,1.82-12.33.68-18.2-6.46,5.39-8.4,13.38-6.79,21.75-1.06.11-1.49-1.99-1.81-2.6-4.69-8.88,1.05-28.41,9.05-33.56.48-.31,1.29-.76,1.81-.95,7.88-2.76,35.1-3.92,44.57-4.25,16.79-.6,33.75.01,50.45,1.42Z"/>
          <path class="cls-10" d="M374.75,850.41c1.42-.2,2.47,1.38,2.71,1.42,1.55.23,4.22-1.19,5.66,1.65,4.11,8.14-13.74,9.79-11.31,0,.12-.46,2.56-3.02,2.94-3.07Z"/>
        </g>
        <path class="cls-1" d="M352.35,907.14c1.08.31,2.45,2.08,3.85,2.36,2.29.46,5.16-.99,5.43-.95,2.17.33,6.32,2.6,8.82,3.07-7.74.74-13.36-2.07-18.1,6.38l-19.46-19.38c6.27,4.78,12.24,6.42,19.46,8.51Z"/>
        <path class="cls-3" d="M433.34,904.78c.31-.51.55-.92.9-1.42,8.94-1.24,15.99,5.26,14.93,14.89-6.89-.88-12.87-6.88-15.84-13.47Z"/>
        <path class="cls-3" d="M446.46,875.94c.55,1.35.19,3.95,1.58,5.2l-7.92-1.89c-5.04-3.2-8.05-8.41-7.47-14.65,6.12,2.02,11.21,5.01,13.8,11.35Z"/>
        <path class="cls-3" d="M451.89,876.89c.9-1.88.34-3.84.45-4.02s3.14-1.68,3.62-1.89c.02-.27-1.46-.22-1.81-.71,0-4.79,15.97-8.3,16.29-5.91-5.14,6.43-9.63,12.88-18.55,12.53Z"/>
        <path class="cls-3" d="M436.06,883.51c1.54,2.96,3.34,9.9,0,11.82-6.89-6.14-9.49-7.84-7.92-18.91,3.14,1.69,6.18,3.75,7.92,7.09Z"/>
        <path class="cls-3" d="M459.13,855.14s.03-.14-.45-.47c4.13-7.84,5.76-14.06,15.61-15.13,0,7-7.9,17.08-15.16,15.6Z"/>
        <path class="cls-3" d="M448.27,899.11l-.23-.95c-.9,1.9-8.72,1.28-8.82.24,1.35-1.66,2.06-3.64,3.17-5.44,4.68-2.65,9.86-3.13,14.93-1.18-2.7,2.77-5.33,6-9.05,7.33Z"/>
        <path class="cls-3" d="M425.65,924.16c.12.73-.11,1.62,0,2.36l-4.3,6.15c-6.49-2.08-4.61-13.61.9-14.18,2.71-.28,2.98,3.24,3.39,5.67Z"/>
        <path class="cls-3" d="M432.44,901.47c0,.05-.36-.25-.45.95-1.76-1.54-2.25-1.47-4.07-1.42.04-.3-.07-.75,0-.95.34-.91-6.69-8.72-4.3-12.29,1.89.88,3.87,1.8,5.2,3.55,1.05,1.36,3.53,8.65,3.62,10.16Z"/>
        <path class="cls-28" d="M386.28,902.89c-.62-.14-.42-.46-.45-.47,3.77-6.53,8.44-10.15,16.06-8.98-2.2,8.44-7.52,11.32-15.61,9.45Z"/>
        <path class="cls-3" d="M396.69,888.71l-5.66,1.89-2.04-.71c-.33-.77,2.63-2.78,2.71-3.31.11-.69-1.35-.39-1.36-.47-.12-1.05,2.76-4.71,3.62-5.44,2.58-2.17,5.7-3.21,9.05-2.6-1.85,4.2-2.5,7.87-6.33,10.64Z"/>
        <g>
          <path class="cls-1" d="M440.13,863.18c2.57,2.53,2.94,3.3,6.56,4.73,1.26.5,3.98-.72,5.2,1.65l-3.17,10.4-2.26-4.02c-2.59-6.33-7.68-9.32-13.8-11.35-.58,6.24,2.43,11.45,7.47,14.65,2.52,1.6,4.66,2.24,7.24,3.55l-8.82,12.05c-.53-3.97.43-8.09-2.49-11.35-1.73-3.34-4.78-5.4-7.92-7.09-1.57,11.07,1.03,12.77,7.92,18.91.46.41.94.72,1.36,1.18-1.8.93-2.84,5.53-4.98,4.96-.09-1.52-2.57-8.8-3.62-10.16-1.34-1.75-3.31-2.66-5.2-3.55-2.39,3.57,4.64,11.38,4.3,12.29-4.86-.49-10.47-4.61-14.93-1.18,4.61,4.73,9.89,2.26,14.93,2.13,1.82-.05,2.32-.12,4.07,1.42-.44,5.45-7.48,14.8-6.33,21.75-.41-2.44-.68-5.96-3.39-5.67-5.52.58-7.4,12.11-.9,14.18l4.3-6.15c.16,1.14-.67,6.58,1.81,5.91-1.05-9.69.89-19.51,5.88-27.66,2.97,6.6,8.95,12.6,15.84,13.47,1.06-9.64-5.99-16.13-14.93-14.89.6-.83,3.15-4.63,3.85-4.73.52-.07,7.92,3.43,10.18.47,3.72-1.32,6.35-4.56,9.05-7.33-5.07-1.94-10.25-1.47-14.93,1.18,6.61-10.73,5.28-4.74,13.35-3.78,5.64.67,12.17-2.32,15.61-7.09-7.26,25.09-27.27,48.5-52.49,53.89-8.06-11.76,6.01-23.49-5.43-34.75-1.45,3.11-3.09,8.9-2.71,12.29.55,5.03,6.81,9.09,4.3,15.36-5.74-8.38-14.73-12.51-23.75-15.84,1.15-1.17,5.3-7.48,2.26-7.8-4.65.15-6.1,3.64-8.6,5.67-1.48,1.2-5.05,1.04-5.43-.24-.16-.52,4.86-8.37,6.79-7.8,8.09,1.86,13.41-1.02,15.61-9.45-7.62-1.17-12.3,2.45-16.06,8.98-.31-.15-.63.73-1.13.47-.32-.4,1.75-9.73,2.04-10.16.94-1.45,7.03-1.91,9.95-4.02,3.84-2.76,4.48-6.44,6.33-10.64-3.35-.61-6.47.43-9.05,2.6-4.34,1.44-3.87,7.32-7.01,9.93,0-3.11-1.34-11.04,1.13-12.76,2.62-1.82,6.34-.84,9.05-5.44,2.05-3.48,1.28-6.77,2.26-9.69.21-.63.62-2.12,1.13-2.36l35.29-3.31c1.46,3.25,2,3.88,4.3,6.15Z"/>
          <path class="cls-20" d="M407.78,867.91c4-.66,6.58,7.9,1.81,8.98-6.73,1.53-5.05-8.45-1.81-8.98Z"/>
          <path class="cls-16" d="M427.91,900.05c-.07.2.04.65,0,.95-5.04.14-10.32,2.61-14.93-2.13,4.47-3.42,10.07.69,14.93,1.18Z"/>
        </g>
        <path class="cls-3" d="M384.93,910.93c2.5-2.03,3.95-5.53,8.6-5.67.68,5.98-4.11,10.26-8.6,5.67Z"/>
        <path class="cls-1" d="M395.79,916.6c-6.94,1.21-12.66,4.07-16.29,10.64,5.66,2.79,11.38.51,15.38-4.02.92-1.04,3.51-5.63,3.85-5.67.47-.07,7.15,4.47,7.92,5.44-7.9-1-12.89,3.23-14.71,11.11,8.47-.49,11.2-3.86,15.38-10.87,4.17,3.31,7.8,7.59,9.73,12.76-.05,0,.15.89-.23.95-9.92,1.39-22.03.43-31.67-2.36-2.01-.58-9.15-3.11-9.73-4.25-1.62-3.2,1.73-14.39,3.85-17.49,5.08,1.63,11.71,1.63,16.52,3.78Z"/>
        <path class="cls-1" d="M373.62,929.83c-5.2-1.73-10.72-4.38-14.93-8.04,2.46-.73,4.3-.73,6.56-2.36,4.07-2.93,4.48-10.33,11.31-7.09l-2.94,17.49Z"/>
        <path class="cls-28" d="M394.88,923.22c-4,4.53-9.72,6.81-15.38,4.02,3.63-6.56,9.35-9.43,16.29-10.64.54.24,1.68-.42,1.81,1.18l-2.71,5.44Z"/>
      </g>
    </g>
  </g>
  <g id="Generative_Object-2" data-name="Generative Object">
    <path class="cls-29" d="M71.91,842.11c4.17,6.16,8.25,12.41,12.44,18.56,15.21,22.31,30.5,44.57,45.52,67.03,2.88.33,6.24,4.93,8.73,7.3.29.28,3.22,1.38,3.35,1.51.83.85,2.74,5.11,3.71,6.28.07.08,1.9.75,1.96.83.08.1-.6.97.15,1.91,15.76,19.86,42.28,62.65,63.53,72.57,24.03,11.23,50.01-1.3,71.86-11.34-23.17,17.75-49.99,35.77-71.67,54.83l-144.38-215.14c1.72-2.49,2.95-2.65,4.8-4.33Z"/>
    <path class="cls-33" d="M178.8,772.93c3.06,4.24,6.38,8.41,9.79,12.4,50.11,58.75,103.65,119.88,154.64,182.66,1.49,1.84,2.57,4.57,4.88,6.59l-1.71,1.26c-2.08-.31-4.19.19-6.26.21-4.61.05-9.26-.35-13.9-.25l-119.53-156.08c30.03,36.49,60.65,72.61,90.74,109.06,10.46,12.66,21.8,26.7,30.93,39.02l2.69,1.65c-10.99-15.3-23.1-30.14-35.08-44.79-36.69-44.9-75.85-89.26-110.68-134.9-3.4-4.45-7.95-8.33-10.44-13.51,1.28-1.12,2.66-2.18,3.93-3.32Z"/>
    <path class="cls-33" d="M182.87,769.03l77.32,88.84c.11-1.98-1.09-1.45-1.16-1.55-5.98-8.04-11.96-14.73-18.12-23.17-.14-.19-2.83-.86-2.07-3.51,39.3,47.61,78.61,95.21,117.85,142.87l-140.58,92.33c-1.5,1.2-2.74,1.39-4.58.97-.16-.31,1.21-1.89,1.46-2.11,6.83-5.99,19.23-13.17,27.25-19.1.81,1.39,1.77.48,2.66-.08,34.98-21.88,68.41-46.85,103.51-68.67l1.71-1.26c-2.31-2.02-3.38-4.75-4.88-6.59-50.99-62.78-104.53-123.91-154.64-182.66-3.41-3.99-6.73-8.17-9.79-12.4.39-.35.65-.74,1.24-1.23l171.41,203.15c.05-.81,1.21-.96,1.09-1.89-.05-.36-3.58-5.4-4.08-6.06-2.35-3.15-6.6-6.7-9.53-10.31-45.76-56.3-94.81-114.23-142.56-168.88-5.01-5.73-10.04-11.51-14.74-17.45.53-.42.7-.82,1.24-1.23Z"/>
    <path class="cls-29" d="M172.54,778.13c50.83,64.67,96.56,133.62,146.92,198.69,1.09,2.22,3.2,3.82,2,6.29-18.21,13.66-36.3,27.46-54.46,41.17-8.94,6.74-17.77,13.65-26.78,20.32-8.02,5.93-20.42,13.11-27.25,19.1-.24.21-1.62,1.8-1.46,2.11,1.84.43,3.08.23,4.58-.97l140.58-92.33c-39.24-47.66-78.55-95.26-117.85-142.87-15.21-18.42-30.37-36.93-45.85-55.12.41-2.63,1.58,1.15,1.71,1.23,2.55,1.67,3.78,1.35,6.4,4.19,1.68,1.81,2.8,5.4,3.93,6.65,9.1,10.08,17.98,19.71,26.85,30.47.09.1-.63,1.17.58,2.65.56.68,2.43,1.05,2.98,1.72,2.2,2.68,4.5,5.32,6.69,8,1.67,2.03,3.14,5.89,4.37,7.39.1.12,1.75.13,2.77,1.36,1.32,1.6,1.44,3.65,2.26,4.65.31.38,1.41-.04,1.53.09.77.94.86,2.33.95,2.43.07.08,1.28,0,1.96.83,1.56,1.87,2.89,5.5,4.15,7.02.49.59,1.69.39,1.75.46.94,1.14,2.01,2.16,2.91,3.26.19.23-.69.57-.51.8.11.13,3.08.77,1.67,2,2.05,1.08,4.3,3.77,5.75,5.57.08.11-.3,1.56.58,2.65,1.42,1.74,4.01,2.94,4.66,3.73,1,1.21,1.99,3.78,2.84,4.8,6.97,8.39,16.05,16.43,21.61,26.59,3.77.21,3.07,3.43,4.58,5.26,1.68,2.03,4.92,4.38,7.1,7.02-1.67,1.7-1.36-1.79-2-1.31-.71.53,2.71,5.31,3.42,6.2,12.83,16.14,27.82,32.38,41.04,49.49,1.36,1.76,3.73.59,2.84,3.55-38.91,26.04-78.38,51.19-117.95,76.21-7.84,4.96-16.72,12.7-25.32,16.96-5.56,2.76-6.64.45-2.18-3.69,30.4-28.31,72.06-51.83,103.83-79.33l1.75-3.27-155.18-210.99c.2.01.72-.58.91-.54,3.1.64,6.35,7,8.33,9.53Z"/>
    <path class="cls-9" d="M67.11,846.44l144.38,215.14c-1.48,1.3-2.71,3.45-4.44,4.12-40.07-59.79-80.47-120.22-119.89-179.53-3.83-5.76-9.3-11.91-13.17-18.13-3.64-5.83-11.28-15.26-6.88-21.6Z"/>
    <path class="cls-33" d="M174.87,776.25c2.49,5.18,7.05,9.06,10.44,13.51,34.83,45.63,74,90,110.68,134.9,11.97,14.65,24.08,29.5,35.08,44.79l-2.69-1.65c-9.13-12.32-20.47-26.36-30.93-39.02-30.1-36.45-60.72-72.57-90.74-109.06l119.53,156.08c-1.89.04-5.59-.63-6.77,1.01-50.37-65.06-96.09-134.01-146.92-198.69,1.04-.36,1.57-1.21,2.33-1.87Z"/>
    <path class="cls-33" d="M181.64,770.26c4.69,5.94,9.72,11.72,14.74,17.45,47.75,54.64,96.8,112.57,142.56,168.88,2.93,3.61,7.18,7.16,9.53,10.31.49.66,4.03,5.7,4.08,6.06.12.93-1.04,1.08-1.09,1.89l-171.41-203.15c.57-.47,1-.97,1.6-1.44Z"/>
    <path class="cls-33" d="M192.99,774.51c15.48,18.2,30.64,36.7,45.85,55.12-.76,2.65,1.94,3.32,2.07,3.51,6.15,8.45,12.14,15.13,18.12,23.17.08.1,1.28-.42,1.16,1.55l-77.32-88.84c.69-.52,2.44-2.45,3.17-2.12l7.2,9.69c.68-.45-.43-.96-.25-2.09Z"/>
    <g>
      <path class="cls-35" d="M163.3,769.14l155.18,210.99-1.75,3.27c-31.77,27.5-73.44,51.01-103.83,79.33-4.45,4.15-3.38,6.45,2.18,3.69,8.6-4.27,17.48-12,25.32-16.96,39.57-25.02,79.05-50.17,117.95-76.21.89-2.96-1.47-1.79-2.84-3.55-13.22-17.11-28.21-33.35-41.04-49.49-.71-.89-4.13-5.67-3.42-6.2.65-.48.33,3.01,2,1.31,5.39,6.52,11.27,13.3,16.63,19.82,1.13,1.38.07,1.81.15,1.91,8.06,9.83,21.64,22.93,28.16,32.69,1.01,1.51,1.45,3.25,2.55,4.72l-144,93.61c-3.77,3.07-8.46,2.11-9.5-2.36,1.73-.67,2.96-2.82,4.44-4.12,21.69-19.07,48.5-37.08,71.67-54.83,8.5-6.51,19.56-13.79,27.32-20.64.61-.54,2.52-1.81,1.6-2.69-.71-.68-16.23,3.61-18.99,4-40.85,5.8-108.36-13.56-139.06-42.12-3.57-3.32-.83-1-.04-4.21l75.42-58.04c.58-1.42,2.03-2.78,2.04-4.44,0-1.45-4.82-8.46-6.04-9.39-1.04-.79-3.64-.5-4.88-.36-21.65,16.61-43.86,32.68-65.01,49.9-18.78-10.52-36.81-20.51-51.92-36.33-5.96-6.24-11.24-13.34-16.74-20.01-.39-.47-1.84-2.43-2.51-1.75-4.19-6.15-8.27-12.4-12.44-18.56,25-22.79,53.18-42.55,77.89-65.49.53-.49,2.17-.25,2.26-.34.49-.49-.95-.78-.65-1.11.65-.72,8.27-6.08,9.02-6.33.14-.05,2.41.26,2.87.29Z"/>
      <path class="cls-18" d="M159.04,778.14c.72-.15,4.07,4.23,4.66,4.97,17.41,22.02,41.25,53.12,56.03,76.51,3.41,5.4,4.52,6.03-1.96,7.89-30.77,8.82-73.29-14.15-102.75-22.23-3.94-1.08-23.04-3.98-24.23-6.11-1.6-2.86,3.65-7.2,5.09-9.24l63.16-51.79Z"/>
    </g>
    <path class="cls-35" d="M155.52,918.76c-2.77,2.26-13.92,10.08-13.72,13.34s7.96,14.29,12.19,8.99c-.79,3.21-3.53.89.04,4.21,30.7,28.56,98.21,47.92,139.06,42.12,2.76-.39,18.28-4.68,18.99-4,.92.88-.99,2.16-1.6,2.69-7.76,6.85-18.82,14.13-27.32,20.64-21.85,10.03-47.83,22.56-71.86,11.34-21.25-9.93-47.77-52.72-63.53-72.57-.75-.94-.06-1.81-.15-1.91-.07-.08-1.9-.75-1.96-.83-.97-1.17-2.88-5.42-3.71-6.28-.13-.13-3.06-1.23-3.35-1.51-2.49-2.37-5.86-6.97-8.73-7.3-15.02-22.46-30.31-44.72-45.52-67.03.68-.67,2.12,1.29,2.51,1.75,5.5,6.67,10.78,13.76,16.74,20.01,15.11,15.83,33.14,25.81,51.92,36.33Z"/>
    <path class="cls-4" d="M326.23,975.8c4.64-.09,9.29.31,13.9.25-18.56,13.42-37.28,26.91-56.5,39.38-4.61,2.99-10.7,7.1-15.43,9.62-1.5.8-.61.19-1.2-.79,18.16-13.71,36.26-27.51,54.46-41.17,1.2-2.48-.91-4.08-2-6.29,1.17-1.64,4.88-.97,6.77-1.01Z"/>
    <path class="cls-4" d="M346.39,975.85c-35.1,21.81-68.52,46.79-103.51,68.67-.89.56-1.84,1.46-2.66.08,9.01-6.66,17.84-13.57,26.78-20.32.59.97-.3,1.58,1.2.79,4.72-2.52,10.82-6.63,15.43-9.62,19.23-12.47,37.94-25.96,56.5-39.38,2.07-.02,4.18-.52,6.26-.21Z"/>
    <g>
      <path class="cls-27" d="M153.99,941.09c-4.23,5.3-11.99-5.77-12.19-8.99s10.95-11.09,13.72-13.34c21.15-17.22,43.37-33.29,65.01-49.9,1.24-.15,3.83-.44,4.88.36,1.22.93,6.05,7.94,6.04,9.39,0,1.66-1.45,3.02-2.04,4.44l-75.42,58.04Z"/>
      <g>
        <path class="cls-9" d="M216.68,873.13c.95-.61,3.53-2.35,4.37-2.58,2.99-.82,9.73,7.33,7.64,10.43-25.47,20.05-50.95,40.55-77.2,59.6-2.8.73-10.61-8.74-6.04-11.88,24.3-16.11,47.12-39.91,71.24-55.57Z"/>
        <path class="cls-27" d="M220.75,879.19c.7-.46,1.47-.84,2.18-1.29-3.86,3.98-8.85,7.84-13.39,11.4-17.7,13.91-36.41,29.17-54.57,42.23-1.03.74-3.01,2.33-4.29,2.29l70.07-54.63Z"/>
      </g>
    </g>
  </g>
  <g id="Generative_Object-3" data-name="Generative Object">
    <g>
      <path class="cls-24" d="M1528.84,557.65c-30.72,109.82-101.99,253.52-188.77,345.1-18.17,19.17-66.26,69.46-101.45,58.24-40.08-12.78-15.73-99.76-8.99-126.1l-2.57-1.44c-3.1,9.52-4.15,19.24-6.42,28.88-.11.45-3.76,6.28-3.85,6.74-.29,1.46.37,9.45,0,11.55-1.57,9.02-5.59,24.55-6.42,33.69-.79,8.67,3.65,23.07,1.28,30.8-.82,2.68-6.35,5.4-6.42,5.78-.36,1.92,4.63,2.18,1.28,6.74-2.22,3.03-6.68-2.02-6.42,3.85.9,20,19.16,33.42,44.95,35.14l28.89-10.59c120.54-85.25,194.38-212.86,243.35-330.18,19.17-45.93,35.88-92.81,44.95-140.54-3.23-.6-4.84-.74-7.7-2.41-1.68-7.69,3.69-32.43-1.28-37.54-.29-.3-3.44-1.56-3.85-.96-2.34,7.63-1.36,16.16-2.57,22.14-.29,1.46-3.73,9.05-3.85,9.63-.32,1.46.26,9.44,0,10.59-.71,3.11-4.72,10.86-5.14,12.51-2.27,8.93-2.31,21.01-8.99,28.4Z"/>
      <path class="cls-26" d="M1517.29,655.84c-48.97,117.32-122.81,244.93-243.35,330.18l-28.89,10.59c23.51,1.57,35.87-1,56.5-7.7-2.77-3.75,4.28-3.53,7.06-3.85,3.97,1.7.47,8.52,2.57,9.63,3.99,2.1,85.69-1.61,97.6,0,1.77-.94-.07-12.85.64-15.4l-64.21-1.93c-3.56.91-24.99,4.31-25.68.48,19.38-15.07,37.59-31.16,53.93-48.13,19.9-20.66,39.95-44.65,56.5-66.9,7.68-10.33,13.69-21.59,21.83-31.77l21.83-33.69c5.61-20.2,31.77-57.34,42.38-79.42,14.03-29.19,26.37-59.09,37.24-89.04-4.9,11.33-12.02,22.39-15.41,34.17l-20.55-7.22Z"/>
      <path class="cls-26" d="M1482.61,404.6c-54.06,31.42-119.69,134.96-147.68,183.38-43.98,76.08-84.47,165.43-105.3,246.91-6.74,26.35-31.09,113.32,8.99,126.1-2.46-2.59-6.31-6.19-7.7-9.14-37.56-79.86,86.27-324.01,137.4-403.34,21.16-32.83,105.73-156.47,160.52-150.65-11.68-9.93-34.73.05-46.23,6.74Z"/>
      <path class="cls-24" d="M1482.61,404.6c11.5-6.69,34.55-16.67,46.23-6.74,2.85.3,2.61-2.19,7.7,2.41,26.56,23.98,1.04,126.14-7.7,157.39,6.68-7.39,6.72-19.47,8.99-28.4.42-1.65,4.43-9.4,5.14-12.51.26-1.15-.32-9.13,0-10.59.13-.58,3.56-8.17,3.85-9.63,1.21-5.98.23-14.51,2.57-22.14.41-.59,3.56.66,3.85.96,4.98,5.12-.39,29.85,1.28,37.54,2.86,1.67,4.47,1.81,7.7,2.41.73.14,1.8-.12,2.57,0l6.42-81.34c-3.65-4.31-8.81-14.54-10.27-19.25-.19-.6,3.16-.01,2.57-1.93-.62-2.01-4.37-4.36-5.14-6.74-.19-.61,2.77-.36,2.57-.96-1.49-4.46-5.95-11.57-7.7-16.36-.74-2.04-.95-12.85-1.28-13.48-4.69-8.81-32.82-12.8-41.73-7.22-3.81,2.38-.44,5.08-.64,5.29-5.06,5.34-10.54,11.45-15.41,16.36-.6.6-5.23.92-5.78,1.44-2.95,2.85-3.17,5.94-4.49,7.22-3.15,3.03-12.96,5.01-8.35,10.11l7.06-3.85Z"/>
      <path class="cls-6" d="M1564.8,515.3c-.77-.12-1.83.14-2.57,0-9.07,47.73-25.77,94.61-44.95,140.54l20.55,7.22c3.39-11.78,10.51-22.85,15.41-34.17,5.61-12.95,38.2-106.96,31.46-111.66-6.09-.95-14.14-1.02-19.9-1.93Z"/>
      <g>
        <path class="cls-26" d="M1409.42,979.28c-.72,2.55,1.12,14.46-.64,15.4-11.91-1.61-93.6,2.1-97.6,0-2.1-1.11,1.4-7.93-2.57-9.63-2.78.32-9.83.1-7.06,3.85,1.43-.46,4.07-3.03,5.14-1.44l.64,8.18h303.06c.76-.4,1.18-12.93.64-13.96-2.08-4.03-40.56-2.32-48.8-2.41-50.47-.56-101.11,1.21-151.53-.96-.52,1.34-1.27.9-1.28.96Z"/>
        <path class="cls-19" d="M1444.09,950.4l-24.4,16.85c-2.45,3.81-7.39,6.92-8.99,11.07,50.42,2.18,101.06.41,151.53.96-22.97-12.56-60.81-26.57-89.89-28.88-8.09-.64-19.82-.17-28.25,0Z"/>
        <path class="cls-21" d="M1451.79,831.04c-8.14,10.17-14.15,21.44-21.83,31.77v86.64c-.64,2.43,10,1.04,14.13.96,8.43-.17,20.16-.64,28.25,0,1.26-15.63.09-31.46,0-47.17l-1.28,44.76-16.69-.96-2.57-116Z"/>
        <path class="cls-32" d="M1451.79,831.04l2.57,116,16.69.96,1.28-44.76c-.16-26.78-5.26-82.3,1.28-105.89l-21.83,33.69Z"/>
        <path class="cls-6" d="M1345.21,977.36l64.21,1.93c.02-.07.77.38,1.28-.96,1.6-4.15,6.54-7.26,8.99-11.07l24.4-16.85c-4.12.08-14.76,1.47-14.13-.96-12.48,4.28-26.36,5.83-39.17,9.63-14.47,4.29-33.62,15.24-45.59,18.29Z"/>
      </g>
      <g>
        <path class="cls-36" d="M1528.84,397.86c-54.79-5.82-139.36,117.82-160.52,150.65-51.13,79.33-174.97,323.48-137.4,403.34,1.39,2.96,5.24,6.55,7.7,9.14,35.18,11.22,83.28-39.07,101.45-58.24,86.78-91.58,158.05-235.28,188.77-345.1,8.74-31.24,34.27-133.4,7.7-157.39-5.1-4.6-4.86-2.1-7.7-2.41Z"/>
        <path class="cls-7" d="M1393.36,523.96c-54.08,82.26-101.31,168.31-131.63,257.5-12.53,36.88-41,133.1-24.4,166.53,13.78,27.75,59.03-11.79,71.91-23.1,32.57-28.6,57.91-64.43,82.19-97.22l1.93-303.71Z"/>
        <path class="cls-7" d="M1526.92,403.63c-8.97-2.07-27.54,4.86-32.75,11.07l-.64,221.88c21.46-55.87,44.85-119.13,46.87-177.6.33-9.48.36-52.15-13.48-55.35Z"/>
        <polygon class="cls-7" points="1465.28 436.36 1446.66 455.13 1444.73 740.55 1464.64 703.49 1465.28 436.36"/>
      </g>
    </g>
  </g>
</svg>