<?xml version="1.0" encoding="UTF-8"?>
<svg xmlns="http://www.w3.org/2000/svg" viewBox="0 0 1045.74 774.98">
  <defs>
    <style>
      .cls-1 {
        fill: #ecc5a2;
      }

      .cls-2 {
        fill: #a3a3ad;
      }

      .cls-3 {
        fill: #00522e;
      }

      .cls-4 {
        fill: #fffbdc;
      }

      .cls-5 {
        fill: #66500a;
        stroke: #000;
      }

      .cls-5, .cls-6 {
        stroke-miterlimit: 10;
      }

      .cls-6 {
        fill: #0065c7;
        stroke: #1b0000;
      }

      .cls-7 {
        fill: #6a6965;
      }
    </style>
  </defs>
  <g id="Layer_31" data-name="Layer 31">
    <path class="cls-1" d="M330.14,460.22c-32.84,10.81-54.36,31.57-81.83,62.67-79.29,89.76-78.92,119.43-123.62,136.66-19.71,7.59-34.19,7.38-50.69,22.9-22.06,20.76-35.69,58.33-22.44,76.32,13.31,18.09,49.49,10.61,94.01.88,80.41-17.58,136.26-29.78,154.08-71.37,22.35-52.16-33.58-107.47-4.34-140.15,14.47-16.17,32.22-7.16,59.2-31.33,19.25-17.24,36.82-45.66,28.73-57.45-9.06-13.2-47.27-1.05-53.1.87Z"/>
  </g>
  <g id="Layer_56" data-name="Layer 56">
    <g>
      <g>
        <path class="cls-6" d="M356.06,277.95l-17.4,9.6-7.8-.6-29.39-78.59-54,82.18-28.21,202.76-185.37,81.57-27,64.19L.51.5l1040.74,2.11,4,519.36h-38.4s-44.45-46.49-44.45-46.49l-99.02,22.22c-43.8-11.31-104.42-28.78-125.29-44.47-1.52-1.15-2.5-2.03-2.86-2.36-16.21-14.9-10.89-38.72-12.04-65.68-.44-10.31-7.95-35.7-22.98-86.48-6.02-20.33-10.55-34.24-15.32-33.94-8.13.51-8.5,41.67-18.61,42.69-6.65.67-13.38-16.45-14.23-18.61-13.26-33.77,6.1-56.77-7.66-84.29-1.47-2.95-3.02-5.34-15.32-18.61-32.09-34.61-59.83-59.62-72.24-71.16-14.71-13.67-35.47-34.06-59.11-61.31l-102.91,87.57-26.27,21.89-12.46,115Z"/>
        <g>
          <polygon points="499.07 52.11 366.62 166.58 357.63 277.7 331.81 287.8 294.78 187.9 239.78 302.38 215.07 489.82 25.37 567.25 5.16 637.96 6.28 772.65 1043.37 774.98 1044.52 517.95 953.61 453.97 726.88 441.6 729.14 350.69 678.64 246.3 655.06 292.32 648.34 198.03 499.07 52.11"/>
          <path class="cls-2" d="M338.59,10.49c20.36,3.92,34.11,46.18,29.25,80.47-3.92,27.64-21.76,63.04-50.3,70.41-25.47,6.58-39.97-14.19-58.52-3.66-18.94,10.75-11.59,36.78-32.92,48.46-16.76,9.18-32.33-.85-38.41,8.23-6.75,10.07,11.51,23.78,8.23,43.89-3.53,21.6-30.35,41.04-43.9,35.66-18.52-7.36-6.17-58.7-24.68-64.93-10.03-3.37-17.3,10.45-47.55,18.28-14.89,3.85-23.07,5.97-30.18,1.83-5.33-3.11-10.29-9.89-11.88-64.01-1.3-44.13,1.72-49.01,4.58-52.12,13.02-14.14,32.37-1.94,56.7-18.28,16.4-11.02,11.41-19.13,24.69-27.43,31.18-19.49,70.45,17.84,93.27,0,16.51-12.9,5.64-40.03,23.78-49.38,10.89-5.61,17.46,2.81,35.66,1.83,33.93-1.82,43.64-32.82,62.18-29.26Z"/>
          <path class="cls-2" d="M851.58,87.35c-8.67-2.46-56.03-15.9-74.07,1.82-22.8,22.4,8.59,87.32,12.79,96.02,41.41,85.65,109.19,96.06,108.8,148.15-.26,35.92-32.7,59.76-20.12,76.81,7.76,10.52,26.66,10.32,38.41,7.32,40.18-10.28,55.19-68.42,58.53-81.38,12.44-48.18-6.68-54.4.92-120.7,5.69-49.65,17.87-58.91,10.98-92.36-6.66-32.36-24.5-54.94-33.83-66.76-8.44-10.68-29.64-37.53-40.23-32.92-15.07,6.55,7.91,69.49-11.89,80.47-9.88,5.48-19.84-7.82-50.29-16.46Z"/>
          <path class="cls-2" d="M44.36,440.56c-4.72-9.92-.92-24.7,6.87-28.86,8.13-4.33,15.61,5.56,26.11,1.38,9.92-3.96,7.98-14.69,17.18-18.55,10.93-4.58,17.96,8.77,33.67,8.25,19.76-.66,25.69-22.37,39.16-19.92,11.37,2.07,22.13,20.25,18.55,33.67-4.6,17.23-29,12.1-50.85,35.72-18.73,20.25-18.05,42.67-27.49,42.6-8.52-.07-7.52-18.33-25.42-32.98-17.02-13.94-31.83-8.78-37.79-21.3Z"/>
          <path class="cls-2" d="M595.83,48.16c10.76-26.52,48.66-37.91,61.89-27.45,11.13,8.8.17,29.42,14.38,41.4,10.1,8.52,20.99,2.62,28.33,11.77,7.6,9.47,5.8,28.09-1.75,31.82-11.62,5.74-27.21-28.69-54.48-27.46-20.14.91-27.86,20.43-39.23,16.12-11.34-4.29-16.33-28.51-9.15-46.2Z"/>
          <polygon class="cls-7" points="526.76 91.21 493.21 158.84 525.65 152.79 553.7 157.75 537.21 124.2 526.76 91.21"/>
          <polygon class="cls-7" points="679.61 280.93 670.26 319.97 682.91 332.62 718.65 338.68 679.61 280.93"/>
          <polygon class="cls-7" points="251.8 284.75 304.04 211.61 329.88 286.4 251.8 284.75"/>
          <polygon class="cls-7" points="383.37 161.32 498.81 56.4 460.83 116.36 383.37 161.32"/>
          <polygon class="cls-7" points="501.8 59.4 472.32 117.86 505.3 122.36 524.79 87.38 543.77 120.86 552.26 132.36 570.25 134.86 501.8 59.4"/>
          <polygon class="cls-4" points="454.01 128.74 366.22 177.73 359.87 270.09 455.06 228.5 454.01 128.74"/>
          <polygon class="cls-4" points="459.65 126.62 459.99 222.86 470.57 219.34 472.69 175.62 500.54 135.79 459.65 126.62"/>
          <polygon class="cls-4" points="556.95 141.79 574.93 144.61 577.39 172.11 561.88 153.77 556.95 141.79"/>
          <polygon class="cls-4" points="580.92 149.55 591.14 160.83 639.44 215.48 643.31 288.8 583.38 241.21 580.92 149.55"/>
          <polygon class="cls-4" points="253.04 290.05 318.62 290.88 288.32 306.24 268.79 473.11 223.55 487.22 253.04 290.05"/>
          <polygon class="cls-4" points="467.24 244.4 440.67 258.1 423.22 447.8 456.84 443.66 467.24 244.4"/>
          <polygon class="cls-4" points="433.2 287.57 434.03 262.66 294.54 322.01 275.02 466.89 291.63 464.81 293.29 415.41 316.95 412.93 354.32 367.27 387.94 381.38 422.81 370.18 433.2 287.57"/>
          <path class="cls-4" d="M572.59,182.1c-20.09-18.9-45.72-27.05-66.71-19.46-12.47,4.51-19.74,13.28-21.13,15.01-16.55,20.57-9.3,47.26-8.34,50.59l-10.58,210.7,122.3,7.79-15.54-264.62Z"/>
          <polygon class="cls-4" points="587.59 261.04 608.71 277.72 609.82 300.52 588.7 300.51 587.59 261.04"/>
          <polygon class="cls-4" points="690.43 338.88 726.57 349.45 736.56 446.18 711.55 446.73 704.88 365.01 690.43 338.88"/>
          <polygon class="cls-4" points="614.83 309.41 697.65 387.25 695.42 455.63 604.25 447.28 596.48 313.3 614.83 309.41"/>
          <polygon class="cls-4" points="587.59 261.04 701.67 372.51 691.33 436.78 600.39 393.73 587.59 261.04"/>
          <polygon class="cls-4" points="352.59 374.52 321.22 413.95 297.48 424.26 295.2 464.1 417.81 451.52 425.25 376.39 384.38 387.53 352.59 374.52"/>
          <polygon class="cls-5" points="354.24 383.62 326.07 415.97 325.14 458.56 389.15 452.52 383.8 390.37 354.24 383.62"/>
          <polygon class="cls-5" points="393.81 400.15 416.15 399.91 414.06 447.4 399.39 447.86 393.81 400.15"/>
          <polygon class="cls-5" points="317.22 454.61 301.4 456.93 302.33 429.93 320.02 426.21 317.22 454.61"/>
          <path class="cls-7" d="M368.99,424.08c-2.23.98-2.91,4.46-1.21,6.18,1.27,1.29,3.71,1.43,5.21,0,1.19-1.13,1.53-3,.73-4.48-.94-1.76-3.15-2.39-4.73-1.7Z"/>
          <path class="cls-7" d="M338.81,426.75c-1.08.48-2.16,1.58-2.3,3.03-.22,2.33,2.17,3.73,2.42,3.88,1.33.76,3.79,1.28,5.21-.24,1.26-1.35.96-3.51.12-4.85-1.11-1.77-3.53-2.67-5.45-1.82Z"/>
          <polygon points="354.67 383.91 353.89 455.69 357.1 455.3 356.21 384.04 354.67 383.91"/>
        </g>
      </g>
      <polygon class="cls-3" points="22.68 747.26 38.51 609.68 248.84 511.65 362.7 481.62 528.75 470.56 558.29 456.17 563.59 487.23 582.52 464.51 608.28 482.69 632.52 464.51 671.9 491.02 767.34 472.85 767.35 453.92 798.4 478.92 818.09 463.01 943.97 467.51 992.1 543.96 1003.41 652.97 993.5 750.66 22.68 747.26"/>
    </g>
  </g>
</svg>