<?xml version="1.0" encoding="UTF-8"?>
<svg id="Layer_44" data-name="Layer 44" xmlns="http://www.w3.org/2000/svg" viewBox="0 0 868.39 1314.81">
  <defs>
    <style>
      .cls-1 {
        stroke: #fff;
      }

      .cls-1, .cls-2 {
        stroke-miterlimit: 10;
      }

      .cls-1, .cls-3 {
        fill: #c9bfce;
      }

      .cls-2 {
        fill: #d9f4ef;
        stroke: #000;
      }

      .cls-4 {
        fill: #010605;
      }

      .cls-5 {
        fill: #9b66ff;
      }

      .cls-6 {
        fill: #fff;
      }

      .cls-7 {
        fill: #ff7cef;
      }

      .cls-8 {
        fill: #a3ffff;
      }

      .cls-9 {
        fill: #b5e2ff;
      }

      .cls-10 {
        fill: #f97cff;
      }

      .cls-11 {
        fill: #b8a3ff;
      }

      .cls-12 {
        fill: #c7827c;
      }
    </style>
  </defs>
  <path class="cls-4" d="M573.21,151.55c-8.81-.94-31.85-3.12-56.86,7.93-32.59,14.4-59.04,47.07-66.12,80.66-3.37,15.95-1.09,26.05-9.48,45.19-6.84,15.61-12.15,17.53-17.73,33.14-1.45,4.05-7.38,21.49-5.4,43.93,1.75,19.8,7.43,18.28,13.1,49.32,3.24,17.75,1.6,19.42,5.39,32.37,3.77,12.86,7.35,17.9,4.62,23.12-2.08,3.99-7.17,6.82-26.97,8.48-20.47,1.71-36.42.48-42.39,0-41.21-3.36-41.37-5.27-50.09-3.86-6.34,1.02-22.42,4.64-43.93,25.43-64.29,62.15-96.14,199.55-99.46,214.35-10.26,45.71-8.9,65.15-22.41,87.36-3,4.93-10.97,16.97-10.08,32.48.74,12.86,7.39,24.97,7.84,25.76,6.74,12.02,13.11,14.03,12.32,19.04-.68,4.34-6.28,8.05-33.6,14.56-34.42,8.2-44.27,6.78-56,15.68-10.68,8.1-15.07,18.79-17.92,25.76-117.01,285.32-20.83,361.27-20.83,361.27,56.85,44.9,151.3,12.41,298.27-38.15,29.18-10.04,65.61-24.44,105-52.49,39.01-27.77,77.9-55.47,95.46-102.6,26.38-70.84-24.08-108.75,9.56-159.87,18.75-28.49,39.41-24.31,78.75-73.96,22.37-28.24,27.35-44.31,35.8-42.95,18.02,2.9,1.33,77.01,33.39,164.65,26.22,71.66,50.68,58.47,73.96,131.25,17.35,54.23,17.62,104.86,49.62,118.47,2.78,1.18,14.26,6.07,24.48,1.36,15.98-7.36,18.19-33.26,19.04-44.88,4.75-64.76-32.63-133.28-32.63-133.28-69.24-126.95-68.37-316.59-67.96-406.63.11-24.49,1.65-74.5-29.91-106.08-28.5-28.52-55.75-40.8-55.75-40.8-3.17-1.43-21.72-9.66-40.8-25.84-7.26-6.16-10.88-10.32-12.95-16.16-4.51-12.75-.41-30.08,10.23-36.88,9.59-6.13,17.14.98,24.48-5.44,9.14-7.98,2.13-23.11,11.21-29.1,5.94-3.91,11.32.99,17.86-3.06,8.03-4.98,8.32-17.6,8.67-21.43,3.31-36.08,83.69-73.12,82.82-74.77-.96-1.81-92.85,52.38-105.51,37.39-7.64-9.05,23.67-31.37,24.05-68.11.52-51.52-60.06-106.07-121.11-112.6Z"/>
  <path class="cls-5" d="M301.69,641.56c10.72-37.17,13.42-62.85,20.06-62.83,7.72.02,5.63,34.74,24.06,42.78,21.85,9.53,53.48-26.74,58.82-21.39,4.07,4.08-10.32,29.12-32.09,49.46-15.67,14.64-21.23,13.83-48.13,33.42-31.08,22.63-41.03,36.35-45.46,33.42-5.63-3.73,8.9-26.93,22.73-74.86Z"/>
  <path class="cls-5" d="M516.84,675.55c-.3-1.73,13.33-3.59,31.08-14.71,1.12-.7,1.16-.75,7.35-5,28.58-19.6,31.81-21.29,34.09-20.05,6.72,3.67-2.5,28.56,2,30.41,4.95,2.03,16.43-27.93,27.07-26.73,10.04,1.13,13.06,29.27,20.04,65.16,17.04,87.49,32.21,90.32,23.71,111.72-14.72,37.08-58.97,25.34-92.01,78.49-14.47,23.28-18.75,46.06-19.98,53.85-4.65,29.41,1.64,50.29,3.47,62.54,7.57,50.73-39.65,99.86-75.58,137.24-99.37,103.38-235.3,151.95-245.84,135.49-8.08-12.63,57.32-64.08,47.56-77.46-9.61-13.16-78.03,29.69-92.64,12.51-14.18-16.68,37.67-71.95,21.29-92.63-12.99-16.41-55.44,5.95-67.6-11.27-11.85-16.78,19.75-50.37,7.52-65.09-10.4-12.52-40.18,3.4-47.57-7.52-9.58-14.14,31.62-53.8,25.04-61.34-6.93-7.94-55.3,33.15-67.6,22.53-9.01-7.78.77-43.76,25.04-66.34,21.88-20.36,41.7-16.97,96.39-33.79,24.32-7.48,47.7-14.67,73.86-28.79,39.15-21.13,66.18-47.87,104.89-86.17,31.56-31.23,29.72-33.78,44.47-43.19,23.44-14.95,48.13-20.33,96.55-30.48,45.03-9.44,71.57-11.48,78.77-29.21.24-.6,4.08-10.35-.02-14.61-4.5-4.68-14.63,1.38-37.3,4.32-12.37,1.61-23.77,1.68-24.05.12Z"/>
  <path class="cls-3" d="M639.85,848.35c-5.12-5.2-35.31,11.03-55.85,35.07-22.6,26.46-27.72,55.62-30.01,69.69-4.34,26.7-2.12,55.2,2.76,55.85,4.69.62,5.71-25.25,24.93-60.92,11-20.42,16.97-23.64,38.31-58.61,15.38-25.21,23-37.87,19.85-41.07Z"/>
  <path class="cls-3" d="M537.06,239.95c-15.05,11.47-22.74,17.33-31.51,18.27-9.23.99-9.86-4.51-25.84-5.67-8.85-.64-15.17-1.1-20.8,2.52-6.32,4.07-5.26,9.1-13.24,26.47-4.66,10.15-5.28,9-12.61,23.95-5.46,11.15-8.19,16.72-10.09,22.69-4.57,14.38-3.85,26.52-3.15,36.55,1.23,17.75,4.55,19.46,10.71,47.9,6.61,30.5,4.04,34.3,10.71,45.38,3.19,5.3,13.42,20.43,32.14,26.47,13.28,4.28,23.85,1.74,44.11-3.15,21.43-5.16,37.33-9,51.68-22.05,16.88-15.37,28.92-27.11,28.92-27.11,1.83-1.78,6.18-6.05,13.13-8.56,3.18-1.15,5.71-1.5,12.15-2.14,19.74-1.96,19-.95,20.8-1.89,11.17-5.83,3.34-25.83,15.13-34.03,8.03-5.59,15.37,1.13,22.69-5.04,7.04-5.93,2.78-14.26,8.19-26.47,7.45-16.79,25.92-24.46,25.84-24.58-.11-.15-24.99,25.89-44.12,20.16-8.99-2.69-8.66-9.98-20.79-25.21-3.22-4.04-24.48-30.14-57.34-42.86-17.8-6.89-29.44-6.15-32.77-15.13-3.49-9.42,5.94-19.41,0-27.1-3.6-4.66-10.17-5.02-10.71-5.04-5.74-.23-9.99,3.2-13.23,5.67Z"/>
  <path class="cls-3" d="M609.52,433.87c-6.03-2.72-15.1,21.69-41.1,39.95,0,0-34.26,24.07-78.78,19.4-11.18-1.17-20.99-2.2-31.39-8.57-6.59-4.03-8.67-7.29-14.84-9.13-11.72-3.5-22.8,2.73-27.97,5.14-30.7,14.32-56.18-11.14-93.04-2.86-21.21,4.76-34.24,18-49.67,33.67-65.97,67.04-75.49,171.81-97.73,250.2-4.34,15.3-6.93,24.41-12.11,37.02-5.5,13.37-7.51,14.92-8.54,21.36-2.62,16.38,4.74,35.41,15.66,44.85,24.61,21.28,73.1-1.13,87.57-7.82,48-22.19,45.44-44.73,103.95-87.56,39.03-28.57,61.41-44.95,96.11-51.25,26.74-4.86,52.98-12.28,79.74-17.08,10.92-1.96,31.08-5.4,33.46-15.66.64-2.78.07-6.41-2.14-8.54-4.66-4.52-14,.19-26.34,2.85-17.46,3.76-37.26,2.64-38.44-1.43-.75-2.59,6.48-6.53,39.87-23.49,32.88-16.69,46.55-23.36,45.57-29.9-.54-3.58-5.25-5.6-7.12-6.41-9.9-4.26-20.73,1.43-30.61,6.4-25.12,12.64-47.19,22.2-47.7,21.35-.45-.75,14.57-11.73,36.31-26.34,19.09-12.82,36.49-23.82,34.89-32.03-.79-4.07-3.56-5.7-3.56-5.7-2.79-1.65-6.27-.54-7.83,0-23.68,8.14-37.73,18.51-37.73,18.51-20.7,15.27-36.26,23.56-36.31,23.49-.06-.08,17.4-18.02,46.28-34.17,9.08-5.08,20.59-10.71,19.94-17.08-.31-2.96-3.16-5.36-5.69-6.41-7.48-3.1-16.45,3.81-25.62,10.32-27.57,19.56-44.79,26.81-44.87,26.7-.08-.12,18.31-9.23,17.09-17.8-.52-3.69-4.63-6.8-8.54-7.83-9.77-2.57-17.93,7.9-36.31,20.64-12.13,8.41-15.97,8.97-27.05,15.66-25.8,15.56-40.08,33.66-55.53,49.83-10.26,10.73-46.14,46.86-96.12,71.9-40.15,20.11-74.72,25.72-74.75,25.62-.02-.07,18.23-4.05,39.16-16.37,9.95-5.86,22.9-13.67,32.75-28.47,4.98-7.48,7.35-14.03,11.39-27.76,10.59-36.01,10.15-44.96,16.38-64.78,7.82-24.9,22.64-55.7,32.13-54.04,7.57,1.32,4.34,22.01,17.58,28.47,2.48,1.21,7.35,2.81,35.17-5.86,22.58-7.04,31.92-12,35.17-8.37,4.13,4.61-6.07,18-3.35,20.1,3.59,2.78,21.42-20.57,51.09-31.82,8.97-3.4,17.06-4.95,25.12-2.51,8.18,2.48,8.41,6.67,14.24,7.54,13.58,2.03,18.91-19.72,36.01-21.77,9.22-1.11,16.76,4.29,31.82,15.08,9,6.44,17.57,12.58,16.75,19.26-1.03,8.33-16,12.1-15.08,15.07.92,2.95,15.06-2.77,21.77,3.35,9.08,8.28-2.3,32.03,2.51,34.34,4.36,2.1,13.62-17.54,21.77-15.91,7.37,1.48,7.45,19.06,15.07,51.09,5.07,21.29,12.27,43.94,14.23,43.55,3.13-.62-7.47-59.83-5.02-60.3,1.84-.35,10.56,32.77,17.58,69.51,7.08,37.05,9.76,63.8,11.72,81.23,5.4,48,11.72,104.3,26.64,157.72,7.07,25.31,3.42,4.72,50.85,122.44,19.74,48.99,55.44,92.33,65.91,144.1.68,3.37,2.57,13.37,8.47,15.07,10.63,3.06,29.73-22.04,37.68-42.38,8.92-22.86,6.48-46.69-29.18-137.5-28.22-71.84-37.03-83.25-46.14-123.38-2.84-12.5-4.69-23.33-10.35-81.94-11.35-117.49-17.03-176.24-17.88-191.19-3.2-56.34-3.36-95.18-28.24-123.38-17.24-19.54-35.79-30.14-35.79-30.14-11.72-6.7-17.37-7.41-48.03-20.72-27.86-12.1-30.71-14.77-32.96-17.9-13.74-19.06.64-46.27-5.92-49.23Z"/>
  <path class="cls-3" d="M70.59,1014.5c7.24-3.45,20.02,1.9,24.85,10.17,4.12,7.05-.21,11.66,3.39,20.9,3.96,10.16,11,9.2,18.07,18.64,10.71,14.3.56,24.55,10.16,41.79,8.59,15.42,21.79,16.36,20.89,23.72-.98,8.09-17.12,8.48-41.23,20.33-28.86,14.18-33.65,27.34-41.23,24.28-11.54-4.65-.39-35.18-1.69-105.61-.55-29.83-3.02-49.56,6.78-54.22Z"/>
  <path class="cls-3" d="M156.98,1139.73c-6.38,1.12-19.62,3.87-41.24,13.43-28.65,12.67-42.98,19-48.74,28.43-10.63,17.38,2.36,28.36,0,79.67-1.09,23.66-4.05,25.58-.63,32.18,14.86,28.66,87.25,24.51,133.71-1.86,8.53-4.84,25.25-14.57,24.37-25.62-1.07-13.5-27.17-13.45-39.99-36.24-10.71-19.05-5.04-41.43-4.06-45.3,6.43-25.37,25.01-34.02,20.94-42.17-4.72-9.45-33.01-4.49-44.36-2.5Z"/>
  <path class="cls-10" d="M609.48,617.48c-.26-2.93-1.21-5.75-2.69-8.28,3.77-2.6,3.05-9.18-2.45-9.21-1.23,0-2.46.02-3.68.06,1.15-1.45,1.81-3.21,1.79-5.52-.03-3.72-.8-7.84-1.91-11.38-2.1-6.66-6.6-12.47-13.82-13.66-3.97-.66-7.63.33-11.24,1.56-1.02-.7-2.39-1.02-4.05-.66-3.67.81-7.34,1.61-11.01,2.42-4.21.92-4.4,5.55-2.18,8.1.54,1.76,2.05,3.17,4.58,3.21,6.11.09,11.26-2.51,16.99-4.15,6.05-1.72,9.51.58,11.27,6.48.49,1.64,1.96,5.68,1.33,7.27-.78,1.99-6.28,3.86-8.49,5.06-.51.27-1.01.55-1.52.82-5.68,1.39-10.99,4.54-15.44,8.38-1.21.66-2.42,1.31-3.63,1.97-4.15,2.25-2.51,9.84,2.52,9.32,10.7-1.11,21.16-3.24,31.35-6.5,1.22,1.52,2.12,3.4,2.34,5.27.46,3.89-2.32,5.79-5.08,7.93-5.96,4.62-9.13,9.99-6.47,17.25-1.36.37-2.69.93-3.96,1.63-4.48,1.16-8.96,2.34-13.43,3.56-4.97-.22-9.81,1.1-14.08,4.06-4.46,3.1-1.89,10.76,3.85,9.14,3.71-1.05,7.43-2.08,11.16-3.09.56.08,1.13.19,1.71.34,2.31.61,4.14-.35,5.19-1.86,1.13.9,2.66,1.38,4.38,1.08,1.39-.24,2.74-.54,4.09-.9-.02.12-.04.24-.06.35-.3,2.16-.49,4.31-.6,6.47-2.26,5.75-3.21,11.82-2.68,18.13.11,1.29.56,2.32,1.2,3.1-1.72-.26-3.48.41-4.49,2.5-6.02,12.48-10.93,25.49-14.64,38.84-1.32-8.34-5.11-15.63-13.96-15.89-7.1-.21-16.82,1.86-22.98,5.44-6.36,3.71-5.56,10.3-3.77,16.41,1.79,6.12,2.89,13.36-.02,19.34-.59,1.22-1.71,3.44-3.09,3.96-1.68.64-2.64-1.08-3.39-2.69-1.57-3.38-1.52-7.43-1.69-11.07-.51-10.9-4.71-27.11-18.97-25.39-14.7,1.77-17.68,21.76-18.1,33.38-.3,8.31,2.48,17.34.38,25.48-.44,1.73-1.15,3.38-2.21,4.82-.33.44-2.83,2.65-2.6,3.12-1.25-.87-.36-10.5-.27-11.66.59-7.67,2.31-15.29,2.07-23.01-.17-5.45-.87-13.94-5.85-17.33-5.34-3.64-12.4.85-16.28,4.72-4.49,4.48-7.22,10.46-9.14,16.43-4,12.43-6.19,26.03-7.39,39.27-.04-7.41-.09-14.82-.13-22.23-.05-9.14,0-18.28-.17-27.42-.11-6.29-1.04-13.55-6.73-17.36-4.8-3.22-11.13-3.19-15.27,1.06-4.49,4.61,2.57,11.69,7.07,7.07,2.29-2.36,4.28,2.83,4.57,4.31.85,4.35.38,9.2.41,13.6.05,9.2.11,18.4.17,27.6.11,18.07.22,36.15.32,54.22.05,8.73-.37,17.63.36,26.34.59,7.05,2.47,14.25,7.85,19.22,9.66,8.92,23.66,5.49,27.9-6.94,5-14.66-6.08-25.68-12.11-37.82-7.28-14.65-5.47-32.09-3.35-47.75,1.16-8.56,2.59-17.11,4.72-25.5,1.61-6.35,3.74-13.67,9.02-18,.52-.43,1.22-.76,1.7-1.21-.08.07.46-.38.84-.76.13.37.25.74.35,1.12.23.77.44,1.54.6,2.33.77,3.77.62,7.7.32,11.51-.61,7.7-2.3,15.34-2.06,23.1.19,6.13,1.2,14.78,9.1,14.91,6.51.11,11.93-5.64,14.38-11.14,3.37-7.55,2.25-15.55,1.63-23.52-.63-8.09-.38-16.96,2.56-24.63,2.21-5.75,7.89-10.89,11.96-3.55,3.31,5.98,2.03,13.45,3.04,19.99.92,5.96,3.81,12.87,9.89,15.17,6.48,2.44,12.25-2.18,15.52-7.49,3.44-5.6,4.23-12.62,3.54-19.04-.34-3.13-.95-6.2-1.84-9.21-.26-.89-1.57-3.64-1.14-4.65.66-1.56,4.85-2.11,6.23-2.49,3.36-.93,8.79-3.02,12.18-1.89,3.56,1.19,4.11,7.91,4.35,11.21.6,8.37-1.27,16.6-3.86,24.51-2.63,8.03-6.02,15.8-8.66,23.83-2.7,8.21-4.25,16.64-5,25.24-.74,8.55-.76,17.17-.71,25.75.04,7.43.49,15.14,4.09,21.82,6.68,12.42,22.5,15.66,32.41,4.97,11.04-11.9,6.12-28.45.43-41.59-3.52-8.13-6.6-15.91-7.18-24.85-.56-8.5-.08-17.13.7-25.6,1.54-16.78,5.19-33.37,10.62-49.31,2.8-8.22,6.12-16.22,9.89-24.04,1.09-2.26.43-4.41-.94-5.84,2.1.21,4.37-.92,5.42-3.48l2.06-5.02c2.36.39,5.16-.98,6.13-3.48,2.27-5.84,3.23-11.93,2.95-18.19-.05-1.18-.4-2.13-.93-2.88,0-1.76-.1-3.53-.29-5.32,1.7-3.27-.57-7.74-4.73-7.34-.03-.07-.05-.14-.08-.2-.36-.73-1.65-1.76-1.77-2.51-.5-3.14,7.35-7.21,9.16-9.36,2.76-3.28,3.94-7.46,3.56-11.71ZM447.82,845.15c3.67,5.8,8.78,12.29,8.17,19.56-.45,5.37-4.22,11.2-10.21,7.92-7.23-3.97-6.95-14.02-7.02-21.1-.08-9.2-.11-18.4-.17-27.6,0-1.15-.01-2.3-.02-3.45,1.4,8.62,4.3,16.87,9.24,24.68ZM569.8,831.21c2.08,7.38,2.51,17.04-4.64,21.93-6.6,4.5-13.08-.75-15.43-7.19-2.81-7.68-1.81-16.89-1.71-24.91.12-9.15.5-18.36,2.4-27.34,1.72-8.11,4.73-15.84,7.66-23.58-.34,4.74-.54,9.5-.55,14.26-.03,8.05.65,16.2,3.23,23.87,2.62,7.8,6.82,15.01,9.05,22.96Z"/>
  <path class="cls-10" d="M572.87,559.78c-3.19-5.99-5.87-14.27-14.06-13.55-4.08.36-8.3,2.09-12.24,3.19-4.38,1.23-8.76,2.47-13.15,3.7-15.43,4.34-31.22,8.08-46.26,13.67-13.62,5.07-25.37,12.24-35.21,22.99-8.48,9.26-16.5,20.91-29.71,23.17-6.33,1.08-3.65,10.72,2.66,9.64,11.72-2,20.33-10.31,27.96-18.84,8.94-9.99,17.45-18.68,29.83-24.39,12.77-5.89,26.75-9.12,40.24-12.91,8.14-2.29,16.28-4.58,24.42-6.87,1.88-.53,3.76-1.06,5.63-1.58,1.34-.38,4.25-1.66,5.63-1.58.73-.95,1.23-.74,1.47.62.28.52.55,1.04.83,1.55,1.12,2.07,2.21,4.15,3.31,6.22,3.03,5.68,11.66.64,8.63-5.05Z"/>
  <path class="cls-10" d="M393.93,825.11c-1.72-4.33-7.36-4.1-9.33-1.32-1.72.6-3.04,2.1-2.89,4.52,1.75,28.35,3.64,59.17-12.42,84.13-3.02,4.69-6.64,8.95-10.84,12.62-5.29,4.62-11.54,7.36-17.69,10.62-11.37,6.03-17.95,15.3-21.72,27.49-1.62,5.23-4.29,12.38-2.98,17.88,1.36,5.68,6.71,7.78,11.84,8.99,10.67,2.52,24.06,2.26,28.44-9.88,3.83-10.62-3.1-22.48,3.4-32.37,3.32-5.04,8.05-9.08,11.69-13.9,3.98-5.28,7.15-11.05,9.79-17.11,6.05-13.88,10.07-28.93,13.45-43.67,3.63-15.82,5.38-32.57-.75-48.01ZM346.92,961.48c.29,4.44,1.35,9.21.48,13.64-1.19,6.11-7.02,6.87-12.36,6.17-2.22-.29-5.82-.59-7.76-1.78-2.61-1.6-.82-5.21-.2-7.77,1.34-5.48,2.94-10.95,5.81-15.84,4.59-7.84,12.43-11.2,20-15.2-4.19,6.02-6.53,12.37-5.97,20.78Z"/>
  <path class="cls-10" d="M298.5,880.25c.26-6.44-9.75-6.42-10,0-.29,7.35-3.34,13.64-7.8,18.97-.7.24-1.39.69-2.02,1.39-1.87,2.11-3.82,4.12-5.82,6.1-2.69,2.12-5.54,4.02-8.41,5.72-12.87,7.64-27.18,15.14-41.63,19.19-14.77,4.14-30.52,2.27-45.18,6.94-13.37,4.26-24.65,12.89-35.12,21.97-10.01,8.69-20.69,18.33-25.04,31.28-4.04,12.03,6.6,21.52,18.38,17.45,5.94-2.06,10.37-6.92,14.91-11.04,5.67-5.14,11.56-10.03,17.7-14.6,11.57-8.61,23.87-16.24,36.74-22.76,14.59-7.39,30.72-11.8,43.97-21.61,10.32-7.64,20.65-15.55,29.85-24.56,10.87-8.7,18.88-19.77,19.47-34.43ZM144.99,989.99c-3.73,3.33-8.83,10.03-14.32,10.26-8.25.34-1.85-9.95.33-13.31,6.91-10.66,18.11-19.68,28.21-27.19,11.8-8.78,23.89-13.34,38.55-14.63,9.97-.88,19.33-1.95,28.6-4.41-5.07,2.14-10.24,4.07-15.26,6.31-24.09,10.78-46.44,25.39-66.11,42.98Z"/>
  <path class="cls-10" d="M543.23,959.89c-.62-.38-3.89-1.72-4.11-2.31-.21-.56,1.92-3.96,2.23-4.65,1.54-3.41,2.82-6.91,3.15-10.67.53-6.06-1.72-12.71-6.91-16.26-5.71-3.9-13.02-2.55-18.6.95-2.75,1.72-5.15,3.97-7.06,6.59-.7.97-5.17,10.27-5.67,9.93-.26-.17-.52-.31-.77-.42-.47-1.27-1.53-2.3-3.31-2.67-6.7-1.41-13.57-1.43-20.19.47-5.82,1.66-13.45,4.87-16.04,10.79-2.49,5.68.86,11.07,5.62,14.19,2.79,1.82,6.13,3.03,9.26,4.11,1.74.6,3.51,1.14,5.29,1.6.59.15,1.32.26,2.08.36-.64.99-1.28,2.03-1.42,2.3-.98,1.92-1.86,3.98-2.36,6.09-.81,3.42-.71,7.03.45,10.35,2.28,6.49,8.22,10.8,14.25,13.51,6.38,2.86,14.24,5.35,20.01-.14,2.17-2.06,3.43-4.47,4.11-7.06,1.2.5,2.46.88,3.77,1.12,7.47,1.37,14.79-1.89,20.75-6.17,13.56-9.73,7.85-24.42-4.53-32.01ZM533.89,936.77c1.4,3.03.77,6.28-.45,9.39-.02-3.06-.47-6.08-1.33-9.1-.53-1.85-1.72-2.92-3.1-3.34,1.96-.12,3.77.67,4.87,3.06ZM522.28,968.31c-.32,1.31-1.03,4-1.92,6.79.52-4.82,1.16-9.63,1.95-14.43.57,0,.36.35.68,1.41.32,1.04.53,2.15.67,3.31-.54.56-.97,1.3-1.22,2.25-.06.22-.1.45-.15.67ZM522.72,936.54c-.09.17-.18.34-.25.52l-.82,2.04c-.31-.22-.63-.39-.96-.53.31-.39.63-.76.99-1.12.32-.31.67-.61,1.04-.91ZM476.6,957.15c-1.98-1.75-.97-2.38,1.13-3.68,2.15-1.33,4.49-2.3,6.92-3,4.83-1.38,9.81-1.5,14.72-.5.36.79.96,1.53,1.85,2.12,2.08,1.39,4.47,1.8,6.76,1.43-.46,1.16-.9,2.33-1.32,3.51-3.36-.09-6.72,1.59-8.17,4.82-.54,1.2-.6,2.36-.33,3.41-1.81-1.97-4.73-2.28-7.59-2.94-4.29-1-10.59-2.19-13.96-5.17ZM509.56,997.21c-3.79-.26-8.63-2.87-11.59-5.2-3.94-3.1-4.93-7.13-3-11.75,1.72-4.1,6-7.68,4.55-12.5,0-.02-.02-.04-.02-.07,1.41,1.5,3.55,2.23,5.32,1.55.4.63.92,1.16,1.52,1.59.2.37.42.73.69,1.07.9,1.15,2.09,2.02,3.42,2.5-.51,4.72-.93,9.45-1.22,14.19-.14,2.3,1.67,4.12,3.67,4.82.31.11.62.2.93.27-.42,2.12-1.57,3.7-4.25,3.52ZM525.89,987.19c.11-.17.21-.34.32-.52,2.73.71,5.99-1.16,6.46-4.73.72-5.51,1.02-11.08.65-16.63,3.97,2.87,9.49,5.08,11.78,9.6,4.14,8.19-12.13,16.66-19.21,12.27Z"/>
  <path class="cls-10" d="M345.05,1113.67c-1.63-5.32-4.85-10.33-9.57-13.4-2.47-1.61-5.06-2.24-7.83-3.07-.38-.12-1.44-.22-1.7-.56-.89-1.16.38.37.66-.66.54-2,1.41-3.94,1.98-5.95,2.73-9.69,7.46-31.24-5.22-35.91-6.15-2.26-13.39-.08-19.24,2.12-4.77,1.79-9.21,4.12-13.37,6.92-.24-8.18.78-17.02-9.17-19.85-12.36-3.52-26.65,8.37-33.7,17.28-1.13,1.42-1.36,3.02-1.02,4.46-1-.6-2.27-.8-3.75-.31-7.21,2.37-13.77,5.93-19.59,10.81-5.28,4.42-11.93,11.2-13.68,18.1-1.74,6.83,3.34,11.97,9.62,13.4,3.37.77,6.62.29,10.01.32,4.62.04,5.48,1.44,3.08,5.61-4.13,7.2-9.09,14.69-10.6,23.01-1.69,9.32,6.44,11.32,13.85,11.38,13.76.13,27.38-3.13,39.65-9.22-.69,8.05-1.4,16.1-1.9,24.15-.56,8.87,3.25,15.15,11.92,17.71,6.56,1.94,16.17,3.21,21.01-2.76,2.64-3.25,3.15-7.56,3.93-11.54l1.93-9.75c8.21,4.77,17.64,5.93,23.92-3.89,6.73-10.53,12.59-25.96,8.77-38.41ZM315.42,1063.36c-1.6,3.95-2.8,8.03-3.56,12.17-2.29.27-4.38,1.93-4.32,4.82.22,10.44.93,20.83,2.06,31.19-.63-1.99-1.23-3.99-1.78-6.02-1.24-4.62-7.25-4.49-9.2-.99-1.33-1.09-3.1-1.42-4.66-1.02-.96-4.16-1.93-8.32-2.92-12.47,1.53-3.01,3.19-5.95,5.05-8.76,3.17-3.58,6.19-7.3,9.06-11.15,1.21-1.62,1.1-3.32.27-4.67.97-.41,1.94-.79,2.93-1.14,2.22-.77,4.66-1.61,7.07-1.96ZM221.52,1097.25c-1.94-.52-1.7-.28-1.56-1.84.12-1.4,1.79-3.16,2.58-4.25,1.84-2.56,4-4.89,6.33-7.01,4.87-4.45,10.65-7.7,16.91-9.76,2.87-.94,3.8-3.59,3.35-5.91,1.74,1.27,4.08,1.41,5.84-.81,2.96-3.74,6.3-7.13,10.29-9.78,3.07-2.04,9.76-6.62,13.63-4.86,3.07,1.4,2.16,6.34,2.1,9.12-.07,3.35-.05,6.7.8,9.93-1.23.48-2.22,1.54-2.58,3.31-.72,3.63-1.53,7.23-2.42,10.81-.3.7-.6,1.41-.89,2.11-.69.6-1.39,1.2-2.09,1.79.03-2.66.07-5.31.1-7.97.04-3.25.61-7.06-.66-10.13-2.27-5.48-8.49-5.6-13.13-3.12-10.65,5.67-18.06,17.23-20.65,28.77-.18.82-.18,1.59-.04,2.29-.96-.68-2.05-1.24-3.25-1.63-4.86-1.59-9.9.24-14.67-1.05ZM304.14,1146.06c-1.44,7.31-2.46,14.87-4.37,22.07-.86,3.25-2.11,3.53-5.3,3.3-2.46-.17-5.21-.47-7.5-1.45-6.04-2.59-3.04-12.18-2.62-17.43.62-7.8,1.25-15.59,1.87-23.39.3-3.77-4.48-6.25-7.52-4.32-11.62,7.38-24.87,11.86-38.67,12.45-1.68.07-3.36.09-5.05.06-.28,0-2.79-.43-3.4.04.26-2.35,3.61-8.73,4.03-9.61,2.78-5.72,8.14-11.43,8.52-18.01.13-2.28-.38-4.41-1.4-6.23,1.11.37,2.37.37,3.62-.09.94.71,1.94,1.23,2.98,1.57-.02.41-.07.82-.08,1.23-.1,2.36,1.66,4.05,3.67,4.82,5.17,1.99,9.91-.7,14.16-3.54.89-.59,1.76-1.2,2.63-1.81-1.19,3.97-2.25,7.99-3.16,12.05-1.43,6.42,7.28,8.52,9.64,2.66,1.15-2.86,2.23-5.74,3.27-8.63,1.61-.28,3.14-1.34,3.96-3.39.3-.74.59-1.49.89-2.23,1.7,7.39,3.35,14.79,4.96,22.2.87,4,4.7,4.35,7.33,2.6.38,1.83.73,3.67,1.04,5.53.96,5.7,9.72,4.13,9.82-1.33.01-.59.02-1.19.03-1.78,1.86,3.89,3.9,7.69,6.11,11.4-.39-.33-.76-.65-1.11-.97-2.6-2.3-7.58-1.73-8.36,2.21ZM335.64,1127.46c-1.33,6.44-4.18,13.4-7.64,18.99-1.32,2.14-2.91,3.07-4.6,3.21.74-.58,1.27-1.43,1.43-2.57,1.94-13.63,1.63-27.15-1.11-40.6,3.1,1.02,6.35,1.54,8.71,4.32,3.93,4.63,4.39,10.94,3.21,16.67Z"/>
  <path class="cls-10" d="M372.93,628.09c-.03-.54-.06-1.09-.1-1.63-.02-.88-.07-1.75-.13-2.64,1.51-3.33,2.26-7.64.83-10.52.2-1.6.27-3.15.22-4.57-.03-.94-.37-1.89-.91-2.72,1.24-3.75,1.46-7.69-.97-10.75-4.65-5.86-12.27-3.45-17.09.62-.05.04-.09.09-.14.13-1.89-1.28-4.57-1.39-6.33.49-3.05,3.25-5.78,6.73-8.18,10.4-1.32-.13-2.67.28-3.7,1.47-3.94,4.57-6.58,9.72-8.57,15.17-1.49.4-2.72,1.48-3,3.39-.54,3.6-.88,7.14-.89,10.78,0,1.26.45,2.29,1.14,3.09.39,4.25,1.02,8.47,1.89,12.67.75,3.63,5.85,4.73,8.32,2.32,2.3,1.24,5.42.72,6.78-2.1,2.39,2.7,7.5,1.37,8.46-2.19.07-.25.12-.5.19-.75,2.11,1.33,4.75.55,6.32-1.26,2.71,1.79,6.81,1.28,7.71-2.52.34-1.42.64-2.84.92-4.27,2.38.39,5.01-.83,5.67-3.5.79-3.16,1.27-6.31,1.43-9.5.13-.48.18-1.02.15-1.61ZM360.07,604.54c.93-.86,3.14-3.57,3.22-1.84.05,1.07-.48,2.38-1.25,3.7-2.62,1.42-5.05,3.09-7.28,4.99-.09-.13-.19-.25-.3-.37.43-.62.87-1.24,1.33-1.83,1.29-1.64,2.74-3.22,4.27-4.64Z"/>
  <path class="cls-4" d="M490.97,304.23c.51,2.38-10.98,7.71-22.39,9.95-7.8,1.53-11.44.82-26.74.62-17.92-.23-26.88-.34-32.34,1.24-18.27,5.3-26.37,20-27.99,18.66-1.86-1.54,6.05-23.16,24.26-31.09,11.33-4.94,16.63-.22,44.78.63,25.6.76,39.87-2.59,40.43,0Z"/>
  <path class="cls-4" d="M666.97,366.44c.35,2.24-15.28,1.7-23.63,13.68-5.89,8.45-3.35,16.22-9.33,19.28-4.95,2.53-12.75.31-15.55-4.35-4.05-6.76,3.33-17.12,8.09-21.77,14.54-14.21,39.99-9.66,40.43-6.84Z"/>
  <path class="cls-4" d="M523.06,312.76c-1.7,1.59,3.18,11.48,9.76,18.94,4.49,5.1,7.4,6.36,18.03,13.87,12.45,8.8,18.67,13.19,21.53,17.16,9.56,13.27,6.8,28.74,8.68,28.51,2.15-.27,8.95-21.02.93-36.31-4.99-9.51-11.31-8.5-31.13-21.94-18.03-12.22-25.94-21.98-27.79-20.24Z"/>
  <path class="cls-9" d="M479.87,310.23c-1.26-.62-2.8-.62-4.37.45-11.41,7.73-28.58,3.84-41.28,2.03-.91-.13-1.86.04-2.76.4-2.56-.8-5.96.66-6.64,3.41-3.5,14.09,10.14,25.17,23.28,19.17,3.07-1.41,5.9-3.77,9.36-3.9,3.62-.14,6.84,1.1,10.44-.09,3.16-1.05,5.72-3.45,8.24-5.52,3.45-2.84,6.89-5.68,10.33-8.52,4.81-3.97-1.71-10.7-6.6-7.42ZM445.71,324.37c.76.09,1.52.18,2.28.26-.73.41-1.47.82-2.21,1.21.03-.48,0-.97-.06-1.47Z"/>
  <path class="cls-9" d="M576.36,361.22c-4.58-1.51-7.41-6.01-10.47-9.47-3.5-3.95-7.57-7.26-11.76-10.44-4.76-3.62-9.62-7.11-14.44-10.66-2.41-1.77-5.24-4.65-8.3-5.16-1.05-3.43-6.62-5.27-9.33-1.29-3.46,5.08-3.96,11.91-.81,17.3,1.76,3.01,4.56,4.73,6.94,7.14,2.47,2.5,4.11,5.65,6.23,8.42,9.65,12.62,25.94,13.81,40.6,13.97,5.8.06,6.58-8.09,1.33-9.82Z"/>
  <path class="cls-7" d="M474.54,316.19c-.37-3.45-4.07-6.64-7.52-4.32-2.52,1.69-5.17,3.75-8.31,2.73-1.33-.43-2.49-.32-3.43.14-.2-.09-.4-.18-.63-.25-2.33-.67-5.78.82-6.15,3.49-.58,4.14-.82,8.59,2.4,11.8,2.73,2.72,7.2,3.42,10.89,3.3,4.08-.13,8-1.52,10.5-4.89,2.59-3.5,2.69-7.85,2.25-12.01Z"/>
  <path class="cls-7" d="M560.85,343.84c-1.34-.98-2.66-1.69-3.95-2.1-.17-2.33-1.76-4.4-4.78-4.14-13.29,1.15-16,20.6-5.87,27.71,4.49,3.14,12.18,5.75,17.71,4.41,4.72-1.15,10.2-8.05,10.08-13.03-.15-5.77-9.22-9.93-13.18-12.84Z"/>
  <path class="cls-6" d="M452.55,309.67c-6.43,0-6.44,10,0,10s6.45-10,0-10Z"/>
  <path class="cls-6" d="M551.21,336.95c-6.43,0-6.44,10,0,10s6.45-10,0-10Z"/>
  <path class="cls-6" d="M558.23,357.81c-.73-.59-1.46-1.05-2.26-1.36-.03-.26-.07-.51-.13-.72-.32-1.16-1.22-2.42-2.3-2.99-2.65-1.4-5.13-.43-6.84,1.79-2.55,3.31-.79,8.38,2.47,10.44.99.63,2.07.86,3.21.97,1.31,1.08,2.88,1.9,4.63,1.77,2.6-.2,5.13-2.16,5-5-.1-2.15-1.62-4.4-3.78-4.9Z"/>
  <path class="cls-6" d="M469.22,327.41c-2.19-2.27-5.42-3.23-8.5-2.44-.76.2-1.44.53-2.08.93-.6-.74-1.43-1.3-2.45-1.58-2.48-.68-5.6.84-6.15,3.49-.9,4.34,1.47,8.55,5.91,9.51,2.06.45,4.13-.13,5.84-1.3.15-.1.69-.52,1.13-.88,4.46,3.19,10.53-3.36,6.3-7.73Z"/>
  <path class="cls-6" d="M436,320.39c-1.84,0-3.68,0-5.52,0-2.62,0-5.12,2.3-5,5,.12,2.71,2.2,5,5,5,1.84,0,3.68,0,5.52,0,2.62,0,5.12-2.3,5-5-.12-2.71-2.2-5-5-5Z"/>
  <path class="cls-6" d="M482.88,310.9c-6.43,0-6.45,10,0,10s6.45-10,0-10Z"/>
  <path class="cls-6" d="M535.12,332.6c-1.86-2.35-4.08-4.27-6.51-6.01-2.14-1.52-5.66-.45-6.84,1.79-1.36,2.58-.49,5.22,1.79,6.84.08.06.5.38.58.43.03.03.06.05.07.06.49.41.96.83,1.42,1.27.87.84,1.67,1.74,2.42,2.68,1.63,2.06,5.39,1.83,7.07,0,2.01-2.19,1.74-4.87,0-7.07Z"/>
  <path class="cls-6" d="M583.93,365.42l-.5-1.19c-.44-.75-1.04-1.35-1.79-1.79-.46-.31-1.01-.5-1.52-.69-.15-.06-.3-.1-.46-.13-.53-.1-1.11-.22-1.66-.2-.48.02-1,.11-1.47.19-.09.02-.19.03-.28.06-.65.15-1.22.45-1.7.89-.54.35-.97.82-1.29,1.4-.37.57-.56,1.19-.59,1.86-.15.66-.12,1.33.09,1.99.39,1.21,1.14,2.38,2.3,2.99.73.39,1.52.6,2.32.64.35.12.71.2,1.08.22.66.15,1.33.12,1.99-.09.65-.15,1.22-.45,1.7-.89.54-.35.97-.82,1.29-1.4.61-1.16.92-2.57.5-3.85Z"/>
  <path class="cls-8" d="M446.1,334.74c-3.72-1.3-8.13-1.14-11.34.62-1.68-4.7-9.84-4.16-9.7,1.67.13,5.36.27,10.73.38,16.09.1,5.04-.58,9.9-.75,14.9-.23,7.08,2.22,16.53,10.37,17.31,1.6.15,3.63-1.03,4.32-2.48,1.45-3.04,2-5.99,1.27-9.33-.86-3.96-3.63-7.02-4.74-10.82-.54-1.17-.63-2.41-.28-3.71.13-.58.27-1.16.43-1.73,1.04,2.25,2.22,4.19,4.61,5.33,2.88,1.37,6.42.33,7.34-2.99,1.2-4.32.62-8.84-2.27-12.35,1.92,1.07,4.48,1.07,5.94-.78,2.3-2.92,3.37-5.38,3.57-9.13.29-5.39-6.69-6.25-9.16-2.6Z"/>
  <path class="cls-8" d="M557.81,369.39c-1.04.7-1.96,1.45-2.8,2.23-.21-.72-.47-1.43-.79-2.13-1.48-3.16-4.81-5.17-8.04-3.97-.42-1.96-2.04-4.05-3.4-5.33-2.01-1.89-5.14-3.31-8.01-3.12-1.87-3.53-8.09-4.13-9.26.8-1.9,7.97-2.85,17.21,4.23,22.97,3.31,2.69,8.38,1.06,8.54-3.54.03-.75.02-1.55.02-2.36.74,1.11,1.73,2.06,2.92,2.63,1.43.69,3.14.89,4.69.52-.32,2.58-1.27,5.52-1.59,6.9-.92,3.95-1.68,7.9-2.15,11.93-.66,5.61-.42,13.5,7.02,14.01,6.76.47,9.63-6.76,9.83-12.37.27-7.21-3.45-15.61,3.84-20.55,5.3-3.59.3-12.26-5.05-8.63Z"/>
  <path class="cls-4" d="M498.88,272.53c-.09-.12-3.89,5.15-10.73,6.31-9.75,1.65-17.63-6.39-20.2-3.79-1.94,1.95,1.58,7.45,0,8.52-2.13,1.45-8.88-8.29-13.57-6.63-2.82,1-1.74,4.99-5.68,10.1-4.5,5.83-10.37,6.43-10.1,7.89.37,2.03,12.16,3.43,24.62.32,22-5.5,35.85-22.51,35.68-22.73Z"/>
  <path class="cls-4" d="M551.91,281.06c.93-.61,7.82,9.27,24.31,27.78,13.26,14.89,16.79,17.48,20.83,19.58,10.52,5.46,20.73,5.67,20.84,8.84.1,3.17-10.1,3.71-11.37,9.15-1.53,6.59,11.43,14.51,10.73,15.47-.45.61-6.32-1.76-14.52-7.89-9.99-7.47-19.53-17.6-36.3-45.46-1.5-2.49-15.94-26.54-14.52-27.47Z"/>
  <path class="cls-4" d="M529.74,310.35c0,1.03,7.07.5,14.96,3.28,14.14,4.98,20.55,16.96,21.51,16.19.8-.64-3.26-9.23-11.27-15.16-2.06-1.53-7.38-5.36-14.96-5.94-5.07-.39-10.24.75-10.24,1.64Z"/>
  <path class="cls-4" d="M492.45,298.87c.49-.51-1.9-5.21-6.35-7.17-7.54-3.33-16.75,3.05-16.6,3.48.12.33,5.7-3.16,12.7-1.64,6.26,1.36,9.72,5.88,10.24,5.33Z"/>
  <path class="cls-4" d="M540.39,318.14c.18-.23,2.69,1.49,11.88,7.58,24.52,16.26,29.94,19.47,29.71,19.88-.32.56-11.05-4.46-21.72-11.48-11.1-7.3-20.23-15.51-19.87-15.98Z"/>
  <path class="cls-4" d="M480.36,297.44c-.37-2.04-30.3.28-30.32,2.46-.01,1.36,11.63,3.9,23.15.62.65-.18,7.35-2.09,7.17-3.07Z"/>
  <path class="cls-4" d="M496.41,290.51c-.2,0-.36,1.62-.4,1.99-.68,6.3-6.11,27-18.02,49.72-10.88,20.75-21.5,32.36-20.36,33.29.86.7,7.35-5.67,11.64-10.34,9.22-10.06,26.33-28.71,28.12-54.29.62-8.8-.44-20.36-.97-20.36Z"/>
  <path class="cls-4" d="M527.44,300.85c-.46-.21-8.37,15.99-16.16,34.26-8.72,20.43-12.97,33.34-10.99,48.15.15,1.15,1.12,8.1,2.26,8.08,1.73-.03,1.98-15.93,3.88-29.73,4.97-36.01,21.6-60.49,21.01-60.76Z"/>
  <path class="cls-4" d="M487.02,405.28c-.35-.55,2.63-4.39,6.85-4.89,3.88-.46,7.42,2.07,7.24,2.74-.17.61-3.42-.63-8.41.39-3.66.75-5.43,2.14-5.67,1.76Z"/>
  <path class="cls-4" d="M469.03,396.09c-4.94-8.81-7.61-13.12-8.02-12.91-.27.13.45,2.22,2.15,6.26"/>
  <path class="cls-4" d="M483.51,440.67c-3.89.32-6.14.15-9.37-2.08-1.37-.95-2.69-1.79-4.27-2.36-.96-.35-2.72-.4-3.48-1.09-4.75-4.32-11.85,2.73-7.07,7.07,1.62,1.48,3.26,2.27,5.34,2.93,2.15.68,3.55,1.54,5.42,2.81,4.12,2.8,8.6,3.13,13.44,2.73,6.37-.53,6.42-10.53,0-10Z"/>
  <path class="cls-12" d="M497.19,441.62c-4.35-3.1-8.77-6.14-13.52-8.52-.32-2.21-1.9-4.26-4.75-4.41l-4.46-.23s-.08-.04-.11-.06c-3.21-1.73-6.46-3.13-10.16-3.34-4.34-.25-8.61,1.02-12.92,1.29-5.82.35-6.38,8.67-1.58,9.87.76.64,1.76,1.06,3,1.13.25.01.49.03.74.04-.27.64-.42,1.4-.35,2.3,1.17,15.05,20.35,17.86,32.1,14.42.95-.28,1.69-.77,2.25-1.38,1.76-.63,2.63-2.03,2.76-3.58.65.38,1.3.75,1.95,1.13,5.67,3.28,10.2-4.96,5.05-8.63ZM474.43,439.99c2.14,1.24,4.29,2.48,6.43,3.73-.68.06-1.37.08-2.05.08-4.14-.77-7.91-2.49-11.48-5.16-.22-.17-.44-.3-.66-.42,2.47.35,4.92.85,7.32,1.61.15.05.29.11.44.16Z"/>
  <path class="cls-11" d="M772.82,459.15c-3.01-1.6-6.36-2.58-9.73-2.84-.44-.16-.88-.32-1.34-.46-6.93-2.11-14.19.43-19,5.69-5.95,6.51-7.21,15.24-8.26,23.66-.73,5.85,8.13,6.38,9.82,1.33,2.13-6.35,5.85-16.08,12.33-19.3,1.24-.61,2.5-.95,3.75-1.07,2.23,1.08,4.2,3.01,5.53,5.39,3.14,5.62,2.7,12.71,2.22,18.88-.07.86-.16,1.71-.25,2.56,0-.2,0-.4,0-.6-.04-6.43-10.04-6.45-10,0,.12,19.45-4.82,45.67-27.75,49.92-10.58,1.96-18.82-4.84-25.87-11.81-7.26-7.18-13.86-15.52-17.67-25.09.25-.97.54-1.93.89-2.87,3.96-10.75,13.15-18.66,18.67-28.53,6.24-11.15,7.42-23.86,7-36.41-.49-14.56-2.59-29.06.38-43.5,2.78-13.5,7.71-26.38,9.55-40.04,6.08,1.19,13.12,2.04,19.15.47,5.14-1.34,8.41-5.08,10.97-9.52,6.63-11.53,10.28-24.46,11.56-37.64.38-3.9-4.49-6.07-7.52-4.32-6.23,3.59-9.55,9.56-11.9,16.15-2.3,6.45-3.35,14.47-8.2,19.64-5.68,6.06-14.45,4.26-20.54-.19.7-5.14,2.24-10.24,3.02-15.39.81-5.36,1.42-10.74,1.79-16.15.71-10.47.52-21-.53-31.44-4.09-40.5-20.9-84.26-51.91-111.85-17.76-15.8-41.65-24.94-65.34-19.05-6.24,1.55-3.6,11.2,2.66,9.64,31.98-7.94,57.85,13.22,75.47,39.58-1.01-1.02-2.06-2.02-3.15-2.96-10.77-9.38-23.71-14.67-36.73-19.85-6.87-5.04-14.46-8.94-22.99-10.02-.74-.39-1.48-.78-2.22-1.19-2.39-1.32-4.67-.53-6.08,1.06-4.9.5-9.99,2.03-13.65,5.01-2.84,2.32-2.49,4.78-2.55,8.23l-.19,9.59c-3.26.56-6.5.85-9.87.88-3.21.03-5.73,3.18-4.82,6.33.94,3.26,1.38,6.48,1.29,9.74-3.95.13-7.77,2.08-10.59,5.26-3.5,3.95-4.3,8.91-4,13.92-.43,1.17-.72,2.4-.82,3.66-.25,3.31.69,6.32,2.56,9.05,1.83,2.67,4.63,4.72,4.64,8.2,0,6.36-4.31,12-3.92,18.58.37,6.2,3.98,10.77,8.85,14.26.37,4.12,4.73,5.57,7.57,4.3,4.35,2,8.89,3.51,12.7,4.77,4.9,1.63,9.9,2.6,14.96,2.64.39.12.8.21,1.23.23,5.76.18,11.52.56,17.25,1.22-.37,1.3-.74,2.6-1.07,3.91-.33,1.32-.69,2.68-.98,4.04-.76.16-1.52.33-2.28.48-3.56.72-4.98,5.97-2.21,8.36,2.48,2.13,5.08,3.57,7.73,4.46.66.58,1.36,1.11,2.07,1.62-1.53-.07-3.01.68-3.84,2.62-1.05,2.47-2.09,4.96-3.12,7.46-15.91,11.71-27.18,28.89-31.15,48.37-.95,4.65,4.71,8.69,8.36,4.86.34-.36.67-.72,1.01-1.08-4.29,12.98-7.18,26.37-7.62,40.3-.24,7.43.18,15.52-.55,23.31-1.04,1.85-2.15,3.66-3.33,5.43-3.44,5.15-10.98,16.62-18.53,15.25-6.21-1.12-5-14.51-6.66-19.16-1.92-5.38-9.36-4.37-9.82,1.33-.64,7.99-.37,15.95.87,23.88,1,6.41,3.62,11.87,10.48,13.28,12.32,2.55,23.85-6.19,29.96-16.14,3.89-6.33,5.72-13.33,6.6-20.53.02-.03.03-.06.05-.09,1.23-2.29,2.37-4.63,3.43-7.01.15.45.3.91.46,1.36-.95,1.03-1.59,2.39-1.73,4.24-.16,2.19.2,4.56.8,6.95-6,9.29-10.89,19.27-14.48,29.81-2.99,8.77-4.9,18.2-2.99,27.43,1.69,8.16,6.47,15.34,11.89,21.51,10.91,12.43,26.13,21.63,42.38,24.95,7.99,1.63,16.84,1.93,23.93-2.74,2.13-1.41,4-3.16,5.57-5.15,1.04,1.17,2.13,2.3,3.27,3.38,3.08,6.26,7.98,11.39,15.29,14.7,12.05,5.46,27.75,7.64,40.82,5.85,8.34-1.14,14.97-4.69,20.3-9.75,18.72-9.67,31.95-28.25,34.46-50.28,1.8-15.74-2.55-36.9-17.79-45ZM588.22,254.5c-.24-.68-.48-1.36-.72-2.04.48.45.95.89,1.43,1.34-.25.21-.49.44-.71.7ZM595.13,244.51c-.04-.09-.08-.16-.11-.25-.54-1.39-.69-2.79-.57-4.16,1.42,2.32,2.8,4.67,4.12,7.04l-3.44-2.63ZM602.62,211.96c.1-.38.21-.77.33-1.15.24-.02.47-.06.7-.1-.35.41-.7.82-1.03,1.24ZM604.4,174.66c0-.47.02-.93.03-1.4.12-.06.23-.12.35-.18.04.37.12.73.23,1.08l-.61.5ZM608.84,225.02c-.38-.79-.79-1.56-1.18-2.35.08-.18.17-.36.25-.53.12-.11.23-.21.35-.32-.09.91.1,1.9.73,2.9-.05.1-.11.19-.15.29ZM701.92,234.99c7.18,21.06,10.54,43.27,9.84,65.51-.27,8.44-1.13,16.85-2.61,25.15-2.01-6.02-4.55-11.86-7.63-17.43.25-.67.5-1.34.73-2.01,8.06-23.51,6-48.12-4.83-70.31-.27-5.88-.8-11.81-2.11-17.49,2.6,5.68,4.81,11.28,6.61,16.58ZM670.39,197.13c5.22,4.3,9.32,9.28,12.12,15.06-4.57-5.96-9.55-11.65-14.75-17.11.89.66,1.77,1.34,2.63,2.05ZM663.34,502.24c-3.29-1.24-6.89-1.47-10.36-.5.63-.58,1.11-1.32,1.32-2.22.76-3.23,1.07-6.58.78-9.84,2.73.52,5.51.91,8.31,1.16-.21,3.8-.21,7.61-.05,11.4ZM661.59,479.55c1.93-2.87,3.67-5.84,5.23-8.9.17-.22.34-.44.5-.67-1.25,3.49-2.15,7.09-2.79,10.76-.98-.4-1.96-.81-2.94-1.2ZM625.03,454.45c.16.18.32.36.48.54-.14.59-.26,1.19-.4,1.78-.46-1.14-.9-2.3-1.32-3.46.4.39.82.77,1.24,1.14ZM633.17,482.09c.79.41,1.59.81,2.39,1.2.77.76,1.54,1.53,2.3,2.29,1.68,1.67,3.79,1.79,5.5.94.31.11.61.22.91.32.57,1.47.85,3.1.9,4.75-4.98-1.94-9.46-4.77-13.28-8.35.38-.44.81-.83,1.27-1.15ZM636.9,467.99c-1.25-.84-2.48-1.71-3.69-2.61.11-.41.22-.83.33-1.24,1.14.26,2.39.14,3.5-.32.05.03.1.05.16.07-.15,1.35-.24,2.72-.3,4.1ZM671.98,332.14c.66-.12,1.31-.42,1.92-.93.34.37.56.76.63,1.18-.86.08-1.72-.01-2.55-.25ZM650.42,340.6c2.87-1.89,5.88-3.58,8.98-5.06.43.41.88.8,1.34,1.18-3.51,1.12-6.95,2.41-10.32,3.88ZM652.56,327.17c-.9.38-1.79.78-2.67,1.19.77-.57,1.54-1.14,2.31-1.7.12.17.24.34.36.51ZM665.31,304.8c.01-1.41.03-2.83.04-4.24.01,0,.03,0,.04.01.1,1.1.2,2.19.3,3.29.04.47.16.91.33,1.33-.25.02-.5.04-.76.06.01-.15.04-.29.04-.44ZM649,269.7c.06.33.12.65.18.98-1.16.17-2.23.77-2.91,1.89-.11-.59-.36-1.14-.72-1.62,1.15-.41,2.3-.83,3.45-1.25ZM641.83,254.68c.06.06.12.11.17.17-.87-.02-1.74-.03-2.61-.04-.02-.06-.05-.12-.07-.18.83,0,1.67.03,2.5.05ZM571.48,465.4c1.12.41,2.31.68,3.53.8-1.34.06-2.6-.14-3.53-.8ZM621.07,525.11c-6.22-4.94-12.06-11.01-15.81-18.07-4.56-8.6-3.75-17.65-1.05-26.69,2.46-8.24,5.91-16.2,10.15-23.73.72,1.95,1.49,3.89,2.3,5.8-.06,1.19.38,2.45,1.51,3.57.03.03.06.06.09.09.45.98.89,1.96,1.36,2.93-.3-.04-.59-.08-.88-.12-4.06-.46-5.84,4.51-4.32,7.52,1.59,3.15,3.5,6.08,5.67,8.79-1.64,7.07-.87,15.4.18,21.65,1.43,8.51,4.56,17.03,9.53,24.14-3.05-1.74-5.98-3.71-8.72-5.88ZM664.86,537.01c-4.38,2.84-11.45.5-15.59-1.66-4.98-2.6-9.17-6.62-12.21-11.32-5.27-8.13-8.7-19.93-8.21-30.24,5.66,4.35,12.22,7.53,19.3,9.22.47.11.96.14,1.45.11-4.63,2.76-1.13,10.42,4.15,8.95,2.28-.63,4.7-.68,7.01-.21,1.62,1.02,2.96,2.73,3.95,4.54.55,3.01,1.38,5.89,2.44,8.64.64,4.56.66,10.06-2.27,11.96ZM675.77,509.56c-.67-.72-1.38-1.4-2.13-2.04-.4-4.74-.38-9.58-.21-14.38.45,4.43,1.42,8.77,2.85,12.96-.21,1.14-.37,2.3-.5,3.46ZM669.64,395.02c-2.7-.84-5.38-.61-7.83.33-1.83-.59-3.88-.7-6.1-.15-2.02.5-3.8,2.69-3.67,4.82.1,1.55.2,3.1.3,4.65-3.61,8.13.19,16.62,1.21,24.92-1.2-1.09-2.94-1.67-4.75-1.36-3.71.63-7.41,1.36-11.08,2.16-1.84-1.79-4.77-1.82-6.65-.1-.33-.03-.65-.06-.98-.08-1.25-2.99-5.07-4.86-7.8-1.9-1.72-5.69-2.76-11.59-3.34-17.18-.16-1.55-.28-3.11-.38-4.66.51-2.56.96-5.14,1.33-7.72.41-2.83.74-5.68,1.02-8.52,4.32-11.79,12.38-22.01,22.43-29.56,5.64-4.24,11.96-7.75,18.55-10.26,5.21-1.98,11.96-2.93,14.59-8.19,2.32-.34,4.61-1.26,6.8-2.91,4.63-3.51,7.84-9.59,10.64-14.55.03-.05.05-.1.08-.14,2.4,11.41,3.3,23.11,3.49,34.86.15,9.09.33,18.44.08,27.75-.91-.55-1.95-.84-2.96-.77-.19-1.79-.41-3.59-.7-5.38-.69-4.12-7.39-4.98-9.14-1.19-3.21,6.95-5.9,14.08-8.07,21.35-1.41-2.84-3.7-5.14-7.06-6.18ZM677.05,452.51c.44-1.14.85-2.29,1.23-3.45.16-.14.31-.27.46-.44,3.82-4.35,7.16-9.03,10.01-13.96l-.02.06c-.81,1.65-1.68,3.27-2.66,4.85-2.76,4.48-5.96,8.66-9.02,12.94ZM697.91,439.11c1.67-3.97,3.26-7.98,4.75-12.02.33,5.49.65,10.98.6,16.49-.07,7.7-.96,15.62-4.29,22.67-3.1,6.56-7.87,12.15-12.16,17.93-1.22,1.65-2.4,3.34-3.52,5.06-.47-17.31,7.96-34.25,14.63-50.13ZM687.46,537.26c-1.51-4.13-1.85-8.71-2.01-13.05,0-.1,0-.2-.01-.31,7.5,11.05,18.25,22.47,30.82,26.83-10.58-1.78-20.74-6.41-28.8-13.48ZM751.81,544.72c-.35.42-.71.83-1.08,1.22-3.62,1.77-7.47,3.15-11.46,4.1,8.86-3.5,15.21-9.77,19.65-17.46-1.84,4.39-4.12,8.54-7.11,12.14ZM779.03,511.69c-1.73,6.23-4.44,11.88-7.93,16.85,3.46-10.61,5.26-21.96,6.4-31.66.59-4.98.98-10.66.58-16.21,3.88,9.71,3.67,21.18.94,31.02Z"/>
  <path class="cls-11" d="M583.99,145.57c-8.62-3.68-18.29-5.57-27.55-6.81-2.46-3.62-6.48-5.78-10.92-7.04-.49-.14-1-.26-1.5-.39,6.75.77,13.47,1.79,20.16,3.03,6.29,1.17,8.99-8.46,2.66-9.64-21.06-3.93-43.1-6.44-64.53-4.71-20.34,1.64-38.09,9.1-53.99,21.79-6.62,5.28-12.72,11.19-18.24,17.6-.43.32-.85.63-1.28.95-12.52,9.38-24.29,20.32-31.96,34.13-8.46,15.22-11.97,33.38-6.59,50.23.48,1.51,1.52,2.5,2.75,3.04-2.72,3.21-7.11,4.76-11.02,5.91-.9.26-3.06,1.16-4.78,1.57-2.6-4.04-3.63-8.81-3.92-13.71-.1-4.86.09-9.72.49-14.57.48-6.43-9.47-6.37-10,0-.48,5.84-.66,11.69-.39,17.54.22,4.9-.05,11.26,2.34,15.69,1.45,2.68,3.58,4.1,6.03,4.7,3.01,3.45,7.03,6.07,12.37,7.39,9.54,2.35,16.7-1.79,22.08-8.21,2.24,1.15,5.33.68,6.7-1.8,3.15-5.69,6.63-11.15,10.42-16.36,6.49-6.29,12.72-12.84,18.68-19.64-2.09,4.95-3.9,10.03-5.35,15.26-.71,2.57.87,5.48,3.49,6.15,7.6,1.94,16.2,3.53,23.89,1.16,3.36-1.03,6.48-2.84,8.86-5.45.5-.55,1.29-1.95,2.15-3.47.88,3.48,2.51,6.67,5.45,8.95,5.13,3.99,13.48,3.64,20.53,2.27.48.4,1.06.72,1.76.94,11.3,3.56,19.58-6.31,24.78-14.94,2.5-4.15,5.63-9.87,11.01-10.35,4.36-.39,8.11-.05,10.91-4.12,2.02-2.93,2.34-6.5,2.58-9.96.12-1.82-.47-6.7,1.23-7.9.6-.43,2.63-.38,3.34-.62,1.12-.39,2.39-1.09,3.25-1.93,1.53-1.5,2.31-3.67,2.44-5.78.28-4.59-.76-9.6-1.75-14.42,4.52-1.76,7.77-6.69,10.01-11.17,1.98-3.97,4.33-5.8,8.82-6.26,3.79-.39,8.44,1.24,11.27-1.92,5.7-6.39-.45-14.48-6.66-17.14ZM447.01,159.82c-.52.37-1.03.75-1.55,1.13-3.17,2.04-6.23,4.21-9.14,6.53.1-.12.2-.25.3-.37,3.47-2.6,6.97-5.03,10.39-7.29ZM496.72,146.85c1.66-2.63,1.08-6.45-2.68-7.42-1.36-.35-2.71-.6-4.05-.76,2.94-.65,5.94-1.13,9.02-1.35,8.41-.62,16.87-.04,25.23,1.01-4.89.81-9.63,2.17-14.05,4.26-4.56,1.18-9.06,2.61-13.48,4.27ZM398.42,223.09c-.27.04-.53.1-.8.16.68-8.7,3.73-16.84,8.29-24.37-3.21,7.83-5.73,15.95-7.5,24.22ZM387.13,262.5c.27-.1.54-.2.8-.29,7.99-2.93,14.9-7.95,17.05-16.59,1.07-4.33,1.12-8.94,1.82-13.34.06-.39.14-.78.2-1.17.09-.12.18-.23.26-.36,10.88-17.63,22.5-34.86,36.04-50.58,4.32-5.02,8.81-9.98,13.56-14.66,5.57-3.15,11.4-5.94,17.27-8.49-.21.37-.41.74-.6,1.13-6.99,4.24-13.62,9.08-19.79,14.46-13.1,11.42-24.17,25.23-32.94,40.21-4.45,7.61-8.27,15.55-11.6,23.71-2.81,6.88-5.07,14.4-9.7,20.35-3.38,4.35-7.92,6.35-12.38,5.61ZM438.83,204.23c5.73-7.94,12.14-15.32,19.31-21.97-1.96,2.45-3.97,4.85-6.02,7.23-4.33,5-8.81,9.87-13.29,14.75ZM448.75,212.44c-.57-.8-1.36-1.43-2.27-1.78,3.62-3.95,7.23-7.91,10.77-11.93-3.04,4.45-5.89,9.02-8.49,13.72ZM475.47,175.37c2.2-3.38,4.25-6.85,6.1-10.45,2.05-1.18,4.15-2.32,6.29-3.4-1.84,2.03-3.66,4.06-5.48,6.06-2.34,2.57-4.64,5.17-6.91,7.79ZM543.79,160.13c-.12-.07-.25-.13-.37-.19-.19-.22-.41-.43-.62-.63.37.04.74.08,1.11.12-.04.23-.08.46-.12.69Z"/>
  <path class="cls-11" d="M448.81,254.55c-4.8.87-9.4.31-13.9-1.27-1.57-2.38-5.08-3.66-7.79-1.13-6.11,5.7-11.37,12.35-15.29,19.74-1.93,3.64-3.58,7.48-4.91,11.38-1.43,4.2-1.72,8.51-5.98,10.79-7.08,3.8-16.23,3.84-23.57.77-.73-.3-1.6-.77-2.53-1.36-1.31-2.85-1.75-5.96-1.44-9.3.5-5.36.62-9.42-2.84-13.81-1.39-1.76-4.27-1.74-6.06-.78-9.42,5.05-9.8,17.21-3.75,25.03,1.91,2.46,4.24,4.55,6.84,6.28,1.75,2.68,3.94,5.07,6.52,7.06,9.69,7.47,22.98,7.34,33.44,1.49,2.56-1.43,4.95-3.23,7.08-5.23,1.08-1.02,2.04-2.26,3.22-3.16,2.41-1.85.4-.68,2.17.45,4.62,2.94,9.75,3.46,14.1-.63,4.69-4.41,6.22-12.26,8.81-17.93,3.34-7.29,7.22-14.29,11.52-21.05,2.54-3.98-1.64-8.07-5.65-7.35ZM415.21,290.35c.18.15.37.28.57.4-.28.11-.55.22-.81.35.08-.25.16-.5.24-.75Z"/>
  <path class="cls-11" d="M538.78,501.39c-3.52-1.8-7.1-.63-10.34,1.11-2.05,1.1-4.06,2.25-6.07,3.43-4.39.25-8.23,3.13-10.03,7.52-1.73,4.23,3.88,7.64,7.35,5.65,1.38-.79,2.79-1.56,4.21-2.34.45.69.8,1.45.81,1.66.2,2.9-2.52,4.95-4.87,6.06-.12.05-.24.1-.35.15-1.11.24-2.22.42-3.33.51-4.33.36-8.71-.1-13.03-1.12-11.45-4.5-18.94-15.33-25.98-24.84-9.24-12.49-18.48-24.98-27.72-37.47.94-6.82-4.96-14.93-7.4-20.6-3.94-9.17-7.37-18.57-10.34-28.1-4.53-14.51-7.93-29.35-10.19-44.38-.47-4.99-1.1-9.98-1.92-14.97-.27-1.67-1.34-2.72-2.68-3.22.43-1.5.82-3.02,1.16-4.55.44-1.99-.55-4.03-2.07-5.29,1.87-4.47,3.3-9.17,4.6-13.76,1.77-6.2-7.88-8.85-9.64-2.66-1.8,6.33-3.63,12.77-7.06,18.45-3.48,5.77-8.46,8.94-14.48,11.66-11.81,5.35-21.6,12.38-29.58,22.72-10.01,12.98-15.59,27.97-19.12,43.59-5.77,11.91-7.82,25.52-5.57,39.11,1,6.02,9.24,3.78,9.82-1.33,1.29-11.33,2.65-23.15,5.16-34.63,2.87-5.51,6.57-10.1,10.84-14.12-.48,1.77-.92,3.55-1.31,5.35-2.19,10.16-3.14,20.52-4.55,30.79-1.02,7.4-1.44,18.53-8.8,22.64-4.38,2.44-2.36,9.3,2.52,9.32,3.54.02,7.06.22,10.58.53,5.24,1.14,10.52,1.97,15.82,2.51-3.02,6.57-5.78,13.27-8.47,19.99-1.66,4.13-3.29,8.27-4.95,12.4-.96,2.37-1.92,4.74-2.91,7.1-.42,1.01-1.12,2.15-1.37,3.22-.08.24-.18.46-.29.68-3.91-.83-8.02,4.65-4.59,8.62,2.28,2.64,5.81,2.87,8.77,1.2,3.56-2.01,4.87-5.7,6.38-9.27,3.63-8.59,6.96-17.3,10.48-25.94,2.37-5.81,4.86-11.58,7.59-17.23,1.89.22,3.77.42,5.66.59-.88,5.88-1.02,11.91-.71,17.76.88,16.14,3.92,33.53,14.09,46.59,9.23,11.85,25.23,18.96,39.99,14.1,5.59-1.84,4.18-9.22-1.33-9.82-19.19-2.09-29.63-21.6-32.46-38.71-1.62-9.78-1.42-19.82-1.05-29.7,6.81-.54,13.59-1.86,19.93-4.38,1.18-.47,2.45-1,3.76-1.6,8.64,15.58,19.64,29.71,34.06,40.73,9.49,7.26,20.57,13.33,32.3,16.26,8.23,2.91,18.13,3.64,25.36-.22,7.23-2.42,13.49-7.13,16.82-14.55,2.48-5.54,2.8-13.98-3.52-17.21ZM534.06,511.59c.09.5-.09,1.17-.34,1.84-.27-.72-.61-1.41-1.01-2.06.74-.63,1.13-.97,1.35.22ZM411.31,434.76c-.73-.41-1.55-.56-2.38-.49-.42-3.67-.77-7.34-1.07-11.02.06-.04.11-.09.17-.13.29.54.59,1.09.89,1.62.72,3.36,1.52,6.7,2.38,10.02ZM420.04,463.63c.13.08.25.16.38.24.15.42.31.84.46,1.26-.24.03-.47.06-.71.09-.05-.53-.08-1.06-.13-1.59ZM395.53,464.24c.18.77.35,1.54.53,2.31-.65-.01-1.31-.02-1.96-.04.47-.76.95-1.52,1.44-2.26ZM427.43,431.96c-2.2-6.11-4.3-12.26-6.3-18.44.05-.43.1-.86.15-1.29,2.13,7.08,4.51,14.1,7.12,21.05-.32-.44-.65-.88-.97-1.32ZM444.03,474.4c.32-1.01.37-2.13.03-3.23,3.8,5.14,7.61,10.28,11.41,15.42,4.77,6.45,9.48,12.94,14.29,19.36-10.47-8.85-18.87-19.71-25.73-31.55Z"/>
  <path class="cls-4" d="M617.87,213.74c5.72-9.37,24.33,2.47,53.3-7.61,22.37-7.78,35.77-23.37,47.59-37.11,32.85-38.19,34.59-71.48,42.84-70.43,9.65,1.24,18.82,48.25,3.8,90.42-12.23,34.35-36.2,53.37-44.74,59.96-16.43,12.69-33.35,25.75-54.25,22.84-32.53-4.53-56.39-45.19-48.54-58.06Z"/>
  <path class="cls-4" d="M506.51,161.38c1.73,18.11-13.27,31.48-14.28,32.36-18.12,15.68-48.82,12.34-63.77-1.91-14.26-13.6-10.77-38.57-3.8-88.52,5.46-39.12,8.51-59.02,23.8-76.14,19.16-21.44,49.07-31.13,53.3-25.69,2.89,3.71-7.95,12.27-18.09,32.36-5.22,10.35-25.83,51.17-11.43,82.8,10.64,23.37,32.27,23.89,34.26,44.74Z"/>
  <path class="cls-2" d="M499.26,162.17c-1.83-11.68-13.3-12.99-24.12-27.2-15.78-20.74-13.56-47.15-12.82-55.94,3.57-42.55,37.3-66.67,32.34-71.84-3.7-3.86-25.86,5.99-41.06,24.63-3.96,4.86-12.92,17.03-21.56,79.54-6.04,43.72-3.71,52.57.51,60.04,6.64,11.76,22.94,28.94,41.57,24.64,15.41-3.56,27.23-20.61,25.15-33.87Z"/>
  <path class="cls-2" d="M761.5,107.28c-4.19-.23-2.83,23.26-18.48,53.37-5.64,10.85-21.63,40.64-54.92,56.45-12.77,6.07-31.79,15.09-50.81,8.72-5.7-1.91-9.77-4.66-11.29-3.08-3.35,3.48,8.24,25.42,28.22,35.93,3.53,1.86,11.09,5.73,21.04,6.16,24.18,1.05,42.29-19.09,56.97-35.4,10.05-11.18,25.01-27.8,32.34-54.39,9.28-33.69,1.93-67.46-3.07-67.74Z"/>
  <path class="cls-1" d="M627.66,217.67c29.8-6.52,62.39-12.7,63.7-8.45,1.11,3.62-20.95,13.19-20.29,14.65,1.09,2.41,61.49-23.2,62.57-20.85,1.01,2.2-50.2,27.99-49.04,30.44,1.02,2.16,40.33-19.09,46.79-10.71,4.19,5.43-6.28,22.2-18.6,32.13-16.61,13.4-43.55,19.98-64.83,8.45-3.48-1.89-21.25-11.52-23.11-29.31-.73-6.95,1.22-12.78,2.82-16.35Z"/>
  <path class="cls-1" d="M502.72,172.7c.92-9.58-5.22-16.84-9.98-23.29-19.34-26.19-23.34-48.82-26.62-47.7-2.47.85,1.8,13.05,0,35.49-.26,3.3-1.85,23.05-5.55,23.29-2.64.17-4.59-9.73-9.98-26.62-7.84-24.59-13.53-42.43-18.39-42.15-5.84.33-11.28,26.84-8.44,51.91,2.04,18.02,4.6,40.65,22.7,50.61,15.38,8.46,37.39,5.23,48.66-6.48,1.58-1.64,6.83-7.1,7.59-15.06Z"/>
</svg>