<?xml version="1.0" encoding="UTF-8"?>
<svg id="Layer_47" data-name="Layer 47" xmlns="http://www.w3.org/2000/svg" xmlns:xlink="http://www.w3.org/1999/xlink" viewBox="0 0 1187.84 1115.38">
  <defs>
    <style>
      .cls-1 {
        fill: #776dff;
      }

      .cls-2 {
        fill: #c5fffd;
      }

      .cls-3 {
        fill: #97c4ff;
      }

      .cls-4 {
        fill: #d5d6ff;
      }

      .cls-5 {
        fill: #6fd8ff;
      }

      .cls-6 {
        fill: #6d8aff;
      }

      .cls-7 {
        fill: url(#linear-gradient-2);
      }

      .cls-8 {
        fill: #85cbff;
      }

      .cls-9 {
        fill: #f2eeff;
      }

      .cls-10 {
        fill: #26c5ff;
      }

      .cls-11 {
        fill: #a7c6ff;
      }

      .cls-12 {
        fill: #b0c3ff;
      }

      .cls-13 {
        fill: #ac91ff;
      }

      .cls-14 {
        fill: url(#linear-gradient);
      }

      .cls-15 {
        fill: #63a4ff;
      }

      .cls-16 {
        fill: #a7beff;
      }

      .cls-17 {
        fill: #43c6ff;
      }

      .cls-18 {
        fill: #b0edff;
      }

      .cls-19 {
        fill: #b3c4ff;
      }

      .cls-20 {
        fill: #ff2f0a;
      }

      .cls-21 {
        fill: #ff42f1;
      }

      .cls-22 {
        fill: #fbd0ff;
        opacity: .18;
      }

      .cls-23 {
        fill: #18ffda;
      }

      .cls-24 {
        fill: #fff;
      }

      .cls-25 {
        fill: #ff880a;
      }

      .cls-26 {
        fill: #7d7cff;
      }

      .cls-27 {
        fill: #b2d5ff;
      }

      .cls-28 {
        fill: #693cff;
      }

      .cls-29 {
        fill: #5aadff;
      }

      .cls-30 {
        fill: #8ac7ff;
      }

      .cls-31 {
        fill: #ccceff;
      }

      .cls-32 {
        fill: #edf9ff;
      }

      .cls-33 {
        fill: #46c4ff;
      }

      .cls-34 {
        fill: #ff8813;
        stroke: #0afe5b;
        stroke-miterlimit: 10;
      }

      .cls-35 {
        fill: #2ffdff;
      }

      .cls-36 {
        fill: #e0fbff;
      }

      .cls-37 {
        fill: #c3c8ff;
      }

      .cls-38 {
        fill: #cbd5ff;
      }
    </style>
    <linearGradient id="linear-gradient" x1="2160" y1="7386.37" x2="2184.41" y2="7390.86" gradientTransform="translate(-2915.11 -12676.57) scale(1.81)" gradientUnits="userSpaceOnUse">
      <stop offset="0" stop-color="#648bff"/>
      <stop offset="1" stop-color="#40d0ff"/>
    </linearGradient>
    <linearGradient id="linear-gradient-2" x1="2160.17" y1="7385.03" x2="2143.69" y2="7389.86" gradientTransform="translate(-2915.11 -12676.57) scale(1.81)" gradientUnits="userSpaceOnUse">
      <stop offset="0" stop-color="#59a1ff"/>
      <stop offset="1" stop-color="#6b88ff"/>
    </linearGradient>
  </defs>
  <g>
    <g>
      <rect class="cls-34" x="41.22" y="35.43" width="1119.6" height="1077.63"/>
      <polygon class="cls-20" points="839.98 293.16 717.76 339.59 585.75 388.47 392.63 483.78 263.06 681.77 99.27 852.86 55.26 1050.86 47.92 1104.63 1133.24 1109.62 1081.93 838.28 888.84 593.82 839.97 364.04 839.98 293.16"/>
      <polygon class="cls-1" points="139.77 776.38 121.16 545.37 100.69 258.46 80.21 44.21 41.09 60.97 39.15 878.84 139.77 776.38"/>
      <polygon class="cls-1" points="124.51 46.96 142.08 385.08 170.96 718.18 213.69 710.64 226.31 205.35 225.06 49.48 124.51 46.96"/>
      <polygon class="cls-1" points="280.37 77.14 260.23 329.79 248.9 620.14 310.49 579.93 353.26 199.07 358.3 45.72 280.37 77.14"/>
      <polygon class="cls-1" points="416.12 79.67 382.16 368.76 374.6 470.58 458.82 439.16 481.47 194.06 478.97 57.05 416.12 79.67"/>
      <polygon class="cls-1" points="535.53 63.34 530.48 274.5 514.13 403.97 594.58 368.78 580.77 148.81 573.24 53.28 535.53 63.34"/>
      <polygon class="cls-1" points="632.31 75.91 632.3 215.44 629.78 344.9 682.57 324.8 678.81 209.16 668.77 62.09 632.31 75.91"/>
      <polygon class="cls-1" points="727.49 314.79 726.35 270.6 724.2 64.85 774.15 61.66 767.75 303.95 727.49 314.79"/>
      <polygon class="cls-1" points="1098.53 886.74 1120.86 333.12 1129.45 38.31 1168.88 40.03 1155.09 951.88 1098.53 886.74"/>
      <polyline class="cls-1" points="1067.69 737.62 1084.89 86.3 968.33 101.71 915.15 609.05 1060.83 766.76"/>
      <polygon class="cls-1" points="860.83 430.82 863.14 250.09 881.58 102.75 937.98 108.51 904.56 591.98 860.83 430.82"/>
      <path class="cls-21" d="M2.92,102.43c12.38,32.34,60.79,39.47,71.86,41.1,23.98,3.53,42.82-.65,49.96-2.17,85.7-18.21,180.59-12.22,181.38-6.5.81,5.79-93.98,16.58-93.41,28.23.53,10.82,83.3,22.07,164,7.62,37.9-6.79,68.94-12.35,102.1-34.75,32.55-21.99,35.3-38.68,59.74-42.35,28.97-4.35,38.45,17.1,92.32,26.07,8.64,1.44,28.42,4.22,53.37,2.91,46.55-2.45,54.03-16.15,83.14-11.87,33.72,4.96,32.79,24.67,60.94,26.35,40.21,2.4,57.68-36.89,84.5-27.69,17.33,5.95,14.45,23.88,37.38,43.29,19.36,16.39,38.1,17.72,64.92,23.61,90.54,19.9,107.98,55.51,135.74,41.33,25.1-12.82,29.19-51.32,33.45-91.48,4.36-41.09,9.19-86.56-15.73-111.16-31.57-31.17-85.14-3.4-188.87,4.9-60.89,4.87-82.02-1.53-181.98-8.87-373.63-27.45-369.64,40.57-586.27,1.92C155.43,2.93,72.48-16.37,27.52,27.67,10.12,44.71-6.99,76.53,2.92,102.43Z"/>
      <path class="cls-27" d="M845.2,371.49c-24.35-.61-60.33,1.29-100.3,15.04-62.19,21.38-103.14,60.76-170.52,143.75-104.42,128.59-167.8,233.15-187.25,265.78-71.34,119.7-95.21,183.96-103.67,255.76-2.69,22.81-3.3,41.93-3.35,55.17l508.19,8.4-81.89-254.1s-41.77-244.07-1.65-307.59c40.13-63.52,143.78-123.69,143.78-123.69l-3.34-58.51Z"/>
    </g>
    <path class="cls-22" d="M1076.93,333.82c-51.59-28.79-183.9,320.82-486.2,397.28-141.39,35.76-284.67,2.84-288.74,29.59-2.82,18.53,64.13,46.32,115.98,59.24,72.08,17.95,101.67,3.84,229.51.02,118.92-3.55,219.64,2.49,219.64,2.49,77.53,4.65,129.79,12.03,133.26.01,5.86-20.26-134.98-67.5-128.32-98.72,5.19-24.37,92.07-.87,145.61-54.28,16.77-16.73,26.45-37.2,41.96-130.79,21.69-130.88,32.54-196.32,17.29-204.83Z"/>
    <path class="cls-22" d="M500.26,271.46c6.42,22.76,16.86,38.52,35.29,62.92,55.25,73.15,82.88,109.72,118.14,131.97,70.14,44.26,133.68,32.5,133.49,42.98-.24,13.38-103.92,34.89-208.68,6.12-44.7-12.27-73.8-20.27-93.6-47.58-23.55-32.49-17.04-85.52-3.05-190.27,9.32-69.78,17.6-98.34,18.42-98.2,1.02.17-13.63,43.8,0,92.07Z"/>
    <path class="cls-22" d="M349.86,605.95c-2.96-12.74,49.31-46.97,107.41-46.02,44.4.72,57.03,21.41,105.87,36.84,98.71,31.17,178.27-11.93,182.6,1.55,3.89,12.1-56.55,58.36-127.36,56.76-42.75-.96-50.48-18.48-110.48-33.77-93.2-23.74-154.93-1.95-158.05-15.36Z"/>
    <path class="cls-22" d="M266.96,1015.64c-10.07-57.65,264.37-185.6,420.45-118.12,30.01,12.98,30.69,22.39,30.69,24.55-.14,48.15-353.07,83.3-352.93,84.36.21,1.51,702.51-111.74,711.99-68.99,2.81,12.67-55.02,40.19-107.42,52.16-92.89,21.21-130.5-15.18-220.96-10.76-103.69,5.06-107.59,55.48-222.5,76.7-112.28,20.73-252.49-.82-259.32-39.92Z"/>
  </g>
  <g id="Generative_Object" data-name="Generative Object">
    <g>
      <path class="cls-30" d="M1054.81,700.51s.31.42.88.23c.05.37-.03.76,0,1.13-1.43,1.73-3.53,3.03-5.56,4.3-6.12-2.61-13.86-3.61-20.48-1.47l9.51-.79c3.42.85,7.18,1.17,10.09,2.94-.48.28-1.01.44-1.46.68-3.56-1.11-8.01-2.31-11.85-2.49-1.64-.08-5.75.11-6.73.68,5.47-.12,11.89.23,16.24,2.94-.42.17-.75.29-1.17.45-5.96-1.25-11.97-3.28-18.28-2.49l8.78,1.13c1.99.88,5.11,1.14,6.58,2.49-.57.16-1.68.32-2.34.45-1.76-1-3.79-1.25-5.85-1.58-2.76-1.38-9.91-1.94-12.87,0-.44.07-.9.6-.88-.23.79-.46,1.23-.63,1.32-.68.35-.2,5.83-2.68,3.22-2.49-.12,0,.11.5-1.32.45,1.47-.74,2.9-1.8,4.39-2.49,9.47-4.39,17.3-6.44,27.79-3.17Z"/>
      <path class="cls-9" d="M987.82,734.22c-4.04.52-11.79,3.81-14.63,6.11-.22.18-1.38.68-1.17,1.02,2.16-.27,1.26-.06,1.76.57l-1.76.45c-.2-.43-.4-.98-.59-1.36,4.73-2.62-1.01-5.88-2.78-8.6,5.06-1.5,9.21-3.32,14.63-1.36l4.53,3.17Z"/>
      <path class="cls-11" d="M946.87,725.17c-2.78-.48-6.05,1.27-8.19,2.49-.29.06-.57.16-.88.23.34-1.69,3.11-2.47,4.68-3.28-4.38-.08-7.87,3.37-11.12,4.86-.52.24-1.14.36-1.61.68l-.15-.57c1.76-.84,3.12-2.39,4.83-3.28,3.57-1.86,6.91-2.75,11.12-2.04.16.03,1.96.42,1.32.91Z"/>
      <path class="cls-11" d="M1047.79,707.52c-.88.46-1.38.73-2.34,1.13-4.35-2.71-10.77-3.06-16.24-2.94.98-.57,5.09-.76,6.73-.68,3.84.18,8.28,1.38,11.85,2.49Z"/>
      <path class="cls-11" d="M917.91,731.51c.03-.14-.05-.39,0-.45.74-.99,4.21-2.47,4.83-3.85.81.32,2.41-.64,2.93-1.36l8.34-1.7c-1.45.52-3.14.87-4.53,1.47-1.76.76-10.87,5.82-11.56,5.88Z"/>
      <path class="cls-11" d="M1044.28,709.11c-.97.36-1.89.85-2.93,1.13-1.47-1.35-4.59-1.61-6.58-2.49l-8.78-1.13c6.31-.79,12.33,1.24,18.28,2.49Z"/>
      <path class="cls-38" d="M937.8,727.89c-1.67.38-4.3,2.07-6.44,1.58,3.25-1.5,6.74-4.95,11.12-4.86-1.57.81-4.34,1.59-4.68,3.28Z"/>
      <path class="cls-11" d="M1050.13,706.17c-.28.18-.48.45-.88.68-2.91-1.77-6.67-2.1-10.09-2.94l-9.51.79c6.62-2.13,14.35-1.14,20.48,1.47Z"/>
      <path class="cls-38" d="M946.87,725.17c4.61.8-5.61,2.37-7.17,2.72-.58.13-.85-.26-1.02-.23,2.14-1.22,5.41-2.97,8.19-2.49Z"/>
      <path class="cls-11" d="M1039.02,710.69c-.66.13-1.12.38-1.76.45l-4.1-2.04c2.06.33,4.09.59,5.85,1.58Z"/>
      <path class="cls-8" d="M978.75,696.66c.46,1.47.95,2.85,1.46,4.3l-1.76.23c-.38-.82-2.26-6.27-2.63-6.45-1.02-.48-1.88,1.33-.88,1.92-.04-.07-1.21-.7-1.02-1.36-2.54-1.02.34,5.39,1.32,3.51-.45-.41-.26-1.83-.29-1.92l11.12,29.3-9.36-21.95c-4.23-.04,1.2,4.42.73,6.22-1.3-1.53-1.91-3.55-3.07-5.09-.18-.24-.68.01-.88-.23-.05-.06.45-.79-.29-1.36-.79-.61-1.5-.41-1.46.45.03.73,7.17,10.93,8.19,13.12.55,1.19,3.36,8.36,3.22,9.05-.33,1.63-1.38-2.55-1.46-2.72-2.53-5.19-5.65-10.5-8.78-15.5-.74-1.18-1.57-2.25-2.34-3.39-.82-1.22-1.42-2.18-2.34-3.39-.61-.81-1.07-1.68-1.76-2.49-.36-.43-1.8-2.64-2.19-2.72l-2.49,1.36c-.83-.8-1.27-1.63-2.63-2.04,6.22-1.75,12.46-3.03,19.01-3.85.71.78-.64.25-.88.57-.43.58,1.22,3.65,1.46,4.41Z"/>
      <path class="cls-30" d="M1028.78,690.1c-13.22,6.11-24.44,15.82-28.96,27.38-.39-.11-.73-.32-.73-.68.02-2.09,4.71-9.68,6.29-11.77,4.46-5.88,11.34-11.19,18.43-15.16,1.71.03,3.28.1,4.97.23Z"/>
      <path class="cls-11" d="M1032,690.33c-12.17,5.82-23.27,13.61-28.96,23.98-1.55.46-1.75,4.18-4.1,4.86.1-.61.66-1.14.88-1.7,4.52-11.56,15.74-21.26,28.96-27.38,1.08.08,2.14.11,3.22.23Z"/>
      <path class="cls-8" d="M1036.97,691.01c-2.06,1.09-4.51,1.61-6.73,2.49-9.35,3.72-17.73,10.04-23.4,16.86-.98,1.17-1.89,4.02-3.8,3.96,5.69-10.37,16.79-18.16,28.96-23.98,1.69.18,3.31.4,4.97.68Z"/>
      <path class="cls-8" d="M1019.12,689.88c-1.56.49-4.6,3.69-5.85,4.75-3.94,3.34-6.54,5.96-9.36,9.96-3.13,4.45-5.61,9.16-7.02,14.14l-.88.23,1.17-4.07c1.53-2.79,2.24-5.82,3.8-8.6,3.48-6.2,8.87-11.63,14.63-16.63,1.07,0,2.58-.18,3.51.23Z"/>
      <path class="cls-8" d="M1015.03,689.65c-2.64,1.1-4.02,3.18-6,4.75-.25.2-.62-.44-1.61.11-1.53.86-5.98,8.72-6.58,8.94-.3.11-2.02.07-2.19-.34l8.78-13.24c2.53-.08,5.09-.18,7.61-.23Z"/>
      <path class="cls-11" d="M1053.06,696.89c1.63,1.3,2.36,1.92,2.63,3.85-.57.2-.83-.21-.88-.23-.85-1.54-5.63-2.41-7.46-2.49-6.83-.31-14.98,2.48-20.33,5.66-1.49.69-2.92,1.75-4.39,2.49-.33-.01-.38.45-.88-.11,1.05-.94,3.44-1.59,4.39-2.49.3-.29-.63-.41-.59-.45.52-.53,6.78-3.53,7.9-3.96,3.7-1.42,9.48-3.08,13.6-2.94,1.93.06,4.01,1.04,6,.68Z"/>
      <path class="cls-38" d="M948.62,712.73c.56.3,1.23.6,1.76.91,5.76,3.33,12.69,8.12,16.67,12.44-1.4-.31-3.52-3.98-4.39-2.04-5.15-4.58-11.56-8.22-18.43-11.09-.78-.32-2.23-1.11-2.93-1.36,2.36-.51,5.24,3.05,7.31,1.13Z"/>
      <path class="cls-11" d="M1023.8,689.88c-7.09,3.97-13.97,9.28-18.43,15.16l-1.46-.45c2.82-4,5.42-6.61,9.36-9.96-.12.65.7.52,1.17.34,1.11-.43,5.92-4.35,6.73-5.32.94-.05,1.82.21,2.63.23Z"/>
      <path class="cls-30" d="M946.58,700.06c2.06.91,4.34,1.98,6.14,3.17.83.55,1.82,1.62,2.63,2.26l-2.63,1.02c1.56.65,2.81,1.99,4.1,2.83l-13.16-7.92c.98-.43,1.89-.93,2.93-1.36Z"/>
      <path class="cls-11" d="M981.39,695.08c.52,2.53,1.56,5.46,2.05,7.47.53,2.22.82,4.54,1.02,6.79-1.5-1.7.3-6.36-3.36-5.66-.32-.89-.56-1.82-.88-2.72-.52-1.45-1-2.83-1.46-4.3.07-.85,1.77-1.19,2.63-1.58Z"/>
      <path class="cls-5" d="M990.75,690.78l-3.22,8.26-1.17.23-.29-3.05c.12-.35.23-1.64.29-2.15.02-.18-.59-.09-.59-.11.08-.96.41-1.98.59-2.94,1.49-.13,2.92-.12,4.39-.23Z"/>
      <path class="cls-30" d="M1050.13,695.08c.87.2,2.26,1.28,2.93,1.81-1.99.37-4.07-.61-6-.68-4.12-.14-9.9,1.52-13.6,2.94.72-1.14,8.29-2.11,3.36-2.49,3.95-1.02,9.12-2.56,13.31-1.58Z"/>
      <path class="cls-5" d="M996.89,695.53c.89-1.72,1.43-3.57,2.63-5.2,1.48-.07,3.2-.4,4.68-.45l-3.22,4.64-4.1,1.02Z"/>
      <path class="cls-3" d="M1042.23,692.14c-1.43-.17-7.9,2.56-8.34,2.49-.28-.05,0-.64-.29-.68-.69-.09-2.49.76-3.22,1.13-.57-.48.78-.54.73-.79-.02-.09-1.13-.22-.88-.79,2.22-.88,4.67-1.4,6.73-2.49,1.86.31,3.46.67,5.27,1.13Z"/>
      <path class="cls-8" d="M944.53,708.43c-.13.44.22.49.59.68-.76.54-1.33.51-.88,1.36-1.69-.77-3.16-1.43-4.97-2.04-2.33-.77-4.51-1.45-7.02-1.81.78-.38,1.54-.77,2.34-1.13,3.26.86,6.86,1.78,9.95,2.94Z"/>
      <path class="cls-11" d="M959.15,695.53c1.36.4,1.8,1.23,2.63,2.04.69.67,1.34,1.37,2.05,2.04,1.52,1.42,2.07,3.24,4.39,1.81.92,1.22,1.52,2.18,2.34,3.39l-1.76.45c-.95-1.06-1.81-2.3-3.51-2.72-1.01-1.16-2.12-2.28-3.22-3.39s-2.27-2.55-3.8-3.39c.32-.09.59-.14.88-.23Z"/>
      <path class="cls-5" d="M982.56,691.23c.95.75-.71,3.38,1.17,3.39-.97.73-.58,2.45-.59,3.62,0,1.44.48,2.85.29,4.3-.49-2.01-1.52-4.94-2.05-7.47-.25-1.2-.54-2.43-.88-3.62.68-.08,1.37-.16,2.05-.23Z"/>
      <path class="cls-30" d="M955.06,710.01c-.04.32-1.06.72-1.32.68-.45-.08-5.85-3.84-7.17-4.53-.83-1.27-.36-.8.88-1.58,2.95,1.77,5.02,3.4,7.61,5.43Z"/>
      <path class="cls-5" d="M956.23,696.44c.52.26.78.57,1.17.91-3.04.16,2.38,4.3,3.22,5.2-1.19-.21-.86-.79-1.76.23-1.04-.9-2.1-1.88-3.22-2.72-1.45-1.09-1.77-2.17-4.1-2.04,1.54-.55,3.11-1.09,4.68-1.58Z"/>
      <path class="cls-30" d="M958.57,707.98c-.97-.96-2.14-1.64-3.22-2.49-.81-.64-1.8-1.71-2.63-2.26l1.17-1.13c1.48,1.08,7.81,4.76,4.68,5.88Z"/>
      <path class="cls-11" d="M958.57,707.98c.27.27,1.48,1.16,1.46,1.24s-1.64.65-1.61,1.24c-.47-.44-1.05-.77-1.61-1.13-1.28-.84-2.53-2.17-4.1-2.83l2.63-1.02c1.08.85,2.24,1.53,3.22,2.49Z"/>
      <path class="cls-30" d="M993.67,694.85c.02-.07-.02-.16,0-.23l1.46-4.3c1.15-.07,2.38-.17,3.51-.23-1.72,1.68-1.3,5.48-4.97,4.75Z"/>
      <path class="cls-5" d="M942.48,701.87c1.7.85,3.38,1.76,4.97,2.72-1.24.78-1.71.31-.88,1.58-.49-.26-.97-.45-1.46-.68-2-.93-3.56-2.32-6.14-2.04.9-.8,2.36-1.08,3.51-1.58Z"/>
      <path class="cls-30" d="M951.84,712.73l-1.46.91c-.52-.3-1.2-.6-1.76-.91-1.45-.79-2.85-1.56-4.39-2.26-.46-.85.12-.82.88-1.36,2.28,1.22,4.51,2.3,6.73,3.62Z"/>
      <path class="cls-8" d="M962.08,699.15c1.1,1.11,2.21,2.23,3.22,3.39v.23c-1.04-.63-.89-.16-2.05.23-1.34-1.32-2.46-1.85-3.36-2.49-.77-.55-3.88-1.96-2.19-2.72.36.3,2.31,2.01,2.49,2.04.58.07.64-1.23,1.9-.68Z"/>
      <path class="cls-5" d="M949.5,698.93c.79.82,1.95,1.37,2.93,2.04.54.37.96.77,1.46,1.13l-1.17,1.13c-1.8-1.19-4.08-2.25-6.14-3.17.99-.4,1.93-.75,2.93-1.13Z"/>
      <path class="cls-30" d="M955.64,700.06c-.68-.16-1.32.88-1.61.91-.45.05-1.46-1.11-1.61,0-.98-.67-2.14-1.21-2.93-2.04.68-.26,1.33-.65,2.05-.91,2.32-.13,2.64.95,4.1,2.04Z"/>
      <path class="cls-5" d="M995.14,690.33l-1.46,4.3-2.63-.57,1.46-3.51c.89-.06,1.75-.17,2.63-.23Z"/>
      <path class="cls-3" d="M986.07,696.21s-.48-.09-.59.11c-.42.82.23,2.01-2.34,1.92,0-1.17-.38-2.89.59-3.62.62-.46,1.52-.28,2.05-.68,0,.02.61-.07.59.11-.07.51-.17,1.8-.29,2.15Z"/>
      <path class="cls-30" d="M992.8,697.34c-.3.87-1.25,5.1-1.46,5.32-.14.14-1.65.2-2.05.57.16-1.63.31-3.24.59-4.86l1.9.57,1.02-1.58Z"/>
      <path class="cls-5" d="M962.08,699.15c-1.26-.56-1.33.75-1.9.68-.18-.02-2.13-1.74-2.49-2.04-.02-.02.07-.14-.29-.45-.39-.34-.65-.65-1.17-.91.68-.21,1.35-.48,2.05-.68,1.53.85,2.67,2.25,3.8,3.39Z"/>
      <path class="cls-38" d="M972.9,708.2c-2.18,1.17-3.02-1.74-4.1-2.94l1.76-.45c.77,1.14,1.6,2.21,2.34,3.39Z"/>
      <path class="cls-5" d="M974.95,696.66c.03.06-.03.16,0,.23.04.09-.16,1.52.29,1.92-.97,1.88-3.85-4.53-1.32-3.51-.18.66.99,1.28,1.02,1.36Z"/>
      <g>
        <path class="cls-38" d="M1015.61,689.65c-5.76,5-11.15,10.43-14.63,16.63-1.56,2.78-2.27,5.81-3.8,8.6l-1.17,4.07.88-.23c1.41-4.99,3.89-9.7,7.02-14.14l1.46.45c-1.58,2.08-6.27,9.68-6.29,11.77,0,.36.34.57.73.68-.22.55-.78,1.09-.88,1.7,2.35-.68,2.55-4.4,4.1-4.86,1.91.06,2.82-2.78,3.8-3.96,5.68-6.82,14.05-13.14,23.4-16.86-.25.57.86.7.88.79.05.25-1.3.31-.73.79.72-.37,2.52-1.22,3.22-1.13.28.04,0,.63.29.68.44.07,6.91-2.66,8.34-2.49,2.76.71,5.68,1.42,7.9,2.94-4.19-.97-9.36.56-13.31,1.58,4.93.38-2.64,1.35-3.36,2.49-1.12.43-7.38,3.43-7.9,3.96-.05.05.89.17.59.45-.95.9-3.34,1.55-4.39,2.49.5.57.55.1.88.11,1.43.05,1.2-.44,1.32-.45,2.61-.19-2.86,2.29-3.22,2.49-.08.05-.53.22-1.32.68-.58.34-5.11,3.03-4.97,3.28,2.57-.41,5.26-.95,7.9-1.02.48.22,1.87.64,2.34.11-.71-.19-1.6-.13-2.34-.11-.04-.02-.72-.38-.44-.45l3.51-.23c-1.29-1.11-4.54-.21-6.44-.68,3.75-.9,7.65-.24,11.41.23,1.25.15,3.92,1.28,5.12,1.36-5.13.75-10.36.68-15.5,1.36-.33-.54-5.99-.31-6.29-.23-.88.24-2.41,2.35-3.07,2.94-7.91,7.07-10.75,14.17-9.07,23.65-.7.34-.53-.35-.88-.79,0-.28.73-.47-.29-.45-.04-.05.05-.17,0-.23-2.7-3.08-8.01-3.98-12.58-3.39l-4.53-3.17c-5.41-1.97-9.57-.14-14.63,1.36,1.77,2.72,7.51,5.98,2.78,8.6-.02-.04-.45-.42-.59-.68,2.52-.96-3.16-7.77-3.95-7.92-2.44-.48.6,1.19-.15,1.81-.55-.59-1.13-1.27-1.76-1.81-2.67-4.24-9.48-8.11-15.07-9.96-7.26-2.4-15.16-2.92-22.96-3.05l7.17-1.02c3.65-.19,9.84,2.38,12.87,2.49.45.02,1.07,0,.59-.45l-2.49-.79c.29-.4,2.12.03,2.49.11,6.24,1.46,14.37,7.15,18.72,10.86l-.15-1.02c-7.66-6.76-17.82-11.83-29.25-13.8,1.56-1.53,5.32.86,6.29.79.27-.02.02-.67.29-.68,4.05-.15,21.73,10.92,24.57,14.26-1.21-2.16-3.4-4.32-5.41-6.11.87-1.95,2.99,1.73,4.39,2.04.72.78,1.26,1.83,2.34,2.38-3.65-6.43-10.47-11.5-17.55-15.73-2.21-1.32-4.45-2.4-6.73-3.62-.36-.19-.71-.24-.59-.68.85.32,1.93.55,2.78.91.9.37,4.66,2.98,4.97,2.94.12-.02.84-1.45,1.76-1.36,1.51.15,16.12,14.42,17.26,16.74-3.18-6.59-9.89-12.66-16.24-17.65-2.59-2.03-4.66-3.66-7.61-5.43-1.59-.96-3.28-1.87-4.97-2.72.43-.19.86-.32,1.17-.45l13.16,7.92c.56.36,1.13.69,1.61,1.13-.03-.59,1.59-1.16,1.61-1.24s-1.19-.97-1.46-1.24c3.13-1.12-3.2-4.81-4.68-5.88-.5-.37-.92-.76-1.46-1.13.15-1.11,1.16.05,1.61,0,.29-.03.93-1.06,1.61-.91,1.12.84,2.18,1.81,3.22,2.72,1.41,1.23,2.25,3.39,4.53,3.39.58-.44-2.28-3.09-2.78-3.62-.84-.9-6.26-5.04-3.22-5.2.37.32.27.43.29.45-1.69.75,1.42,2.16,2.19,2.72.9.64,2.03,1.17,3.36,2.49.99.98,1.73,2.14,2.63,3.17,5.77,6.59,9.99,13.58,14.19,20.82-2.1-7.27-6.87-15.54-12.43-21.72-.67-.75-1.46-1.96-2.34-2.49v-.23c1.7.42,2.56,1.66,3.51,2.72,1.08,1.2,1.92,4.11,4.1,2.94,3.13,5,6.25,10.3,8.78,15.5.08.16,1.13,4.35,1.46,2.72.14-.69-2.66-7.86-3.22-9.05-1.02-2.19-8.16-12.4-8.19-13.12-.03-.87.67-1.06,1.46-.45.74.56.24,1.3.29,1.36.2.24.7-.01.88.23,1.16,1.54,1.78,3.56,3.07,5.09.47-1.8-4.96-6.26-.73-6.22l9.36,21.95-11.12-29.3c-.03-.07.03-.16,0-.23-1-.59-.14-2.41.88-1.92.37.18,2.25,5.62,2.63,6.45,2.15,4.67,4.71,9.27,6.14,14.14.76.36.61-.34.59-.68-.16-2.46-3.13-8.24-4.1-10.97,3.67-.71,1.87,3.96,3.36,5.66-.21-2.25-.49-4.57-1.02-6.79.19-1.45-.29-2.86-.29-4.3,2.57.09,1.92-1.1,2.34-1.92.1-.2.58-.09.59-.11l.29,3.05,1.17-.23,3.22-8.26c.51-.04,1.16-.19,1.76-.23l-1.46,3.51,2.63.57c-.02.07.02.16,0,.23-.28.83-.59,1.66-.88,2.49l-1.02,1.58-1.9-.57c-.28,1.62-.42,3.23-.59,4.86-.75,7.49-.36,15.28,2.05,22.51-.81-6.38-2.33-14.73-.59-21.04.86-3.11,2.03-1.42,2.63-1.81.29-.19.66-3.01.88-3.39.54-.96,1.81-2.38,2.63-3.96l4.1-1.02,3.22-4.64c1.07-.04,2.13.03,3.22,0l-8.78,13.24c.17.41,1.9.45,2.19.34.6-.22,5.06-8.08,6.58-8.94.99-.56,1.36.09,1.61-.11,1.98-1.57,3.36-3.65,6-4.75.19,0,.39,0,.59,0Z"/>
        <g>
          <path class="cls-8" d="M1033.17,709.11l4.1,2.04c-.31.03-1.57.24-1.76.23-1.2-.08-3.87-1.2-5.12-1.36-3.75-.47-7.65-1.13-11.41-.23,1.9.47,5.15-.43,6.44.68l-3.51.23c-.28.07.4.43.44.45-2.63.07-5.33.61-7.9,1.02-.13-.25,4.4-2.94,4.97-3.28-.02.83.44.3.88.23,4.69-.73,8.12-.76,12.87,0Z"/>
          <path class="cls-9" d="M970.86,740.33c-1.09-2.07-2.27-4.17-4.1-6.11.74-.62-2.3-2.29.15-1.81.79.15,6.46,6.96,3.95,7.92Z"/>
          <path class="cls-30" d="M1020,712.73c-3.45.45-6.49,1.03-9.36,2.72.66-.59,2.19-2.7,3.07-2.94.3-.08,5.96-.31,6.29.23Z"/>
          <path class="cls-11" d="M945.11,705.49c.5.23.97.42,1.46.68,1.31.69,6.71,4.45,7.17,4.53.26.04,1.27-.35,1.32-.68,6.35,4.99,13.05,11.06,16.24,17.65-1.14-2.33-15.75-16.6-17.26-16.74-.91-.09-1.63,1.34-1.76,1.36-.31.04-4.08-2.57-4.97-2.94s-1.93-.59-2.78-.91c-3.09-1.16-6.68-2.08-9.95-2.94.24-.11.55-.31.88-.45,1.32-.11,7.06,2.53,7.46,2.49.92-.09.92-2.07,2.19-2.04Z"/>
          <path class="cls-3" d="M999.52,690.33c-1.2,1.63-1.74,3.48-2.63,5.2-.82,1.58-2.1,3-2.63,3.96-.22.39-.58,3.2-.88,3.39-.6.39-1.77-1.3-2.63,1.81-1.75,6.31-.22,14.66.59,21.04-2.41-7.24-2.8-15.02-2.05-22.51.4-.37,1.9-.42,2.05-.57.22-.21,1.16-4.44,1.46-5.32s.6-1.66.88-2.49c3.67.72,3.26-3.07,4.97-4.75.57-.03.64.24.88.23Z"/>
          <path class="cls-11" d="M965.88,706.17l1.76-.91c5.56,6.18,10.33,14.45,12.43,21.72-4.2-7.24-8.42-14.23-14.19-20.82Z"/>
          <path class="cls-11" d="M967.05,726.08c-3.98-4.33-10.91-9.12-16.67-12.44l1.46-.91c7.08,4.22,13.9,9.29,17.55,15.73-1.08-.55-1.62-1.6-2.34-2.38Z"/>
          <path class="cls-3" d="M996.31,703c-1.73,4.73-2.65,9.11-2.93,14.03-.18,3.15-.22,5.91.15,9.05-1.19-6.08-1.94-13.74-.44-19.8.44-1.77.22-3.94,3.22-3.28Z"/>
          <path class="cls-12" d="M993.38,717.03c.28-4.92,1.2-9.3,2.93-14.03.33.07.88-.13,1.17.11l.29,1.13-4.39,12.78Z"/>
          <path class="cls-3" d="M980.22,700.96c.32.89.56,1.82.88,2.72.96,2.73,3.94,8.51,4.1,10.97.02.34.18,1.04-.59.68-1.43-4.87-4-9.48-6.14-14.14l1.76-.23Z"/>
          <path class="cls-30" d="M965.3,702.77c.88.53,1.67,1.74,2.34,2.49l-1.76.91c-.9-1.03-1.64-2.19-2.63-3.17,1.16-.38,1-.85,2.05-.23Z"/>
          <path class="cls-30" d="M960.62,702.55c.5.53,3.35,3.18,2.78,3.62-2.29,0-3.12-2.16-4.53-3.39.89-1.02.56-.44,1.76-.23Z"/>
          <path class="cls-11" d="M994.4,719.29c.91,1.02.36,2.91.29,4.07-.91-1.01-.36-2.91-.29-4.07Z"/>
          <polygon class="cls-3" points="994.99 715.22 995.43 716.69 994.4 719.06 994.99 715.22"/>
          <path class="cls-11" d="M995.57,722.23c.59.33-.04,3.85-.29,3.85-.45-1.29.13-2.57.29-3.85Z"/>
          <path class="cls-30" d="M1002.01,720.42c.49.29-.52,2.18-.88,2.04-.27-.64.44-1.52.88-2.04Z"/>
          <path class="cls-8" d="M1022.34,711.14c.74-.02,1.63-.08,2.34.11-.47.53-1.86.11-2.34-.11Z"/>
          <path class="cls-24" d="M1000.69,738.3s-.44.1-.59-.11c-.21-.31.31-.32.29-.34,1.02-.01.3.17.29.45Z"/>
        </g>
      </g>
      <path class="cls-8" d="M941.31,711.6c.7.24,2.15,1.03,2.93,1.36l-17.55-3.39c.74-.42,1.62-.73,2.34-1.13,4.21.82,8.33,1.78,12.29,3.17Z"/>
      <g>
        <path class="cls-11" d="M944.24,712.95c6.87,2.87,13.28,6.51,18.43,11.09,2.01,1.79,4.2,3.95,5.41,6.11-2.84-3.34-20.52-14.4-24.57-14.26-.27,0-.02.66-.29.68-.97.07-4.73-2.33-6.29-.79,11.43,1.97,21.59,7.05,29.25,13.8l.15,1.02c-4.35-3.71-12.48-9.4-18.72-10.86-.36-.08-2.2-.51-2.49-.11l2.49.79c.48.45-.13.47-.59.45-3.03-.11-9.22-2.67-12.87-2.49l-7.17,1.02c7.8.13,15.71.65,22.96,3.05,5.59,1.85,12.4,5.72,15.07,9.96-7.81-6.72-21.41-11.14-32.32-6.79-3.65,1.45-6.82,4.13-10.24,5.88-1.23.08,2.3-2.48,2.63-2.72,3.42-2.4,8.11-4.5,12.73-5.09-6.82-.74-15.01,2.09-20.04,5.54-.83.57-1.04.69-1.02,1.58-3.08-1.07-7.08-3.3-6.44-6.34l6-4.3.29.45c7.12-2.13,4.39-3.32-.88-.68-1.12.56-4.71,3.2-5.12,4.07-.23-.83.51-1.39.88-2.04,5.67-4.94,12.24-6.72,20.77-5.77,2.54-1.79-6.85-1.17-8.04-1.02-4.29.54-6.78,2.27-10.38,3.85.59-.56.58-.75,1.46-1.36,1.66-1.15,6.48-3.08,8.63-3.39,4.22-.61,9.26-.07,13.16.23-4.2-2.2-12.85-2.04-17.41-.23,1.79-1.84,4.64-3.39,7.02-4.75l17.55,3.39Z"/>
        <g>
          <path class="cls-8" d="M915.27,717.71c.86-1.19,2.85-2.78,4.39-3.39,4.56-1.82,13.21-1.97,17.41.23-3.91-.3-8.94-.84-13.16-.23-2.15.31-6.97,2.25-8.63,3.39Z"/>
          <path class="cls-30" d="M911.47,722.01c.84-1.47,1.02-1.71,2.34-2.94,3.61-1.58,6.1-3.3,10.38-3.85,1.2-.15,10.58-.77,8.04,1.02-8.53-.95-15.1.83-20.77,5.77Z"/>
          <path class="cls-30" d="M933.12,717.25c-.13.02-.68.94-2.19,1.13-1.64.2-3.66-.29-4.97-.23-.28.01-6.7,1.72-4.1-.23.75-.57,9.64-.68,11.26-.68Z"/>
          <path class="cls-30" d="M910.3,724.49c.04-.18.2-.25.29-.45.41-.87,4-3.51,5.12-4.07,5.27-2.64,8-1.45.88.68l-.29-.45-6,4.3Z"/>
          <path class="cls-38" d="M933.12,717.25c4.15,0,7.61-.13,11.41,1.7.04.71-10.25-1.91-11.41-1.7Z"/>
          <path class="cls-38" d="M924.2,724.49l-8.63,5.54c1.8-2.5,5.4-4.29,8.63-5.54Z"/>
        </g>
      </g>
      <g>
        <path class="cls-4" d="M988.41,740.11c2.9.67,5.27,1.64,6.44,3.96.99,1.96,2.99,9.99,3.51,12.44,2.16,10.11,4.3,28.74,2.05,38.58-.65,2.85-2.13,6.02-3.8,8.6-1.97.81-2.79,2.25-4.83,3.17s-5.69,1.01-6.29,2.49c-.89-.19-.83-.13-1.76-.45.45-.82-2.25-2.46-2.34-2.6-2.39-3.81,1.27-27.71.59-34.73,1.41.04.56-.1.59-.57.31-6.69-3.48-15.65-4.68-22.4,0-1.35,1.41-1.87,1.46-2.04.06-.19-1.27-3.42-1.46-3.85-.11-.23-.77,0-.88-.23-.46-.99,2.03-.79,1.46-1.92,4.43-1.35,5.24-1.54,9.95-.45Z"/>
        <path class="cls-37" d="M995.14,736.49c.33.25.36,1.06.59,1.24.84.68,2.24,1.48,2.93.34l1.76-.45c.05.05-.04.17,0,.23.01.02-.5.03-.29.34.14.21.56.08.59.11-.23,11.72,4.57,24.67,4.68,36.77,0,.77-1.02,3.86.29,2.72-.07,4.16,1.31,8.84,1.46,12.9.06,1.48-.06,6.73-.29,8.37-.13.95-1.14,1.88-1.17,2.04-.02.08.64.29.59.68,0,.05-.94.41-.88.68s.88.37.88.45c.1,6.5-10.17,7.56-16.97,7.13-.56-1.69,2.16-1.56,3.36-2.26,2.61-1.52,2.58-1.97,3.95-4.07,1.68-2.58,3.15-5.75,3.8-8.6l4.1.11c1.63-1.78-3.35-38.7-4.39-43.44-.61-2.8-2.24-11.57-6.73-12.11.07-3.38-4.92.31-4.1-4.07,1.45-.02,4.77.07,5.85.91Z"/>
        <path class="cls-9" d="M974.07,742.14c3.8,6.9,7.17,21.98,7.9,29.42.69,7.02-2.97,30.92-.59,34.73.09.15,2.79,1.78,2.34,2.6-10.98-3.84-4.38-21.69-4.1-29.53.42-11.51-2.64-26.12-7.61-37l1.76-.45c.21.26.28.21.29.23Z"/>
        <path class="cls-37" d="M996.6,803.69c-1.37,2.1-1.34,2.55-3.95,4.07-1.2.7-3.93.57-3.36,2.26-1.28-.08-2.57-.42-3.8-.68.6-1.48,4.21-1.55,6.29-2.49s2.85-2.35,4.83-3.17Z"/>
        <path class="cls-16" d="M1000.4,737.62l-1.76.45c.67-1.11-2.55-2.74-3.51-1.58-1.08-.83-4.4-.93-5.85-.91-6.31.09-9.99,2.76-15.07,4.98-.56.25-1.04.53-1.02-.23,2.83-2.3,10.58-5.59,14.63-6.11,4.57-.59,9.88.32,12.58,3.39Z"/>
        <path class="cls-31" d="M993.38,739.65c4.48.53,6.11,9.3,6.73,12.11,1.04,4.74,6.02,41.67,4.39,43.44l-4.1-.11c2.25-9.84.12-28.47-2.05-38.58-.52-2.45-2.52-10.48-3.51-12.44-1.17-2.32-3.54-3.29-6.44-3.96-1.3-.96-2.93-.95-1.02-2.49,2.21-.26,2.31,2.27,3.51,2.49.12.02,2.12-.5,2.49-.45Z"/>
        <path class="cls-38" d="M981.97,771.56c-.73-7.43-4.09-22.51-7.9-29.42,1.38-.56,2.95-1.15,4.39-1.58.57,1.13-1.92.94-1.46,1.92.11.23.77,0,.88.23.2.42,1.53,3.65,1.46,3.85-.05.16-1.46.69-1.46,2.04,1.2,6.75,5,15.71,4.68,22.4-.02.46.82.6-.59.57Z"/>
        <path class="cls-37" d="M989.29,735.58c-.82,4.39,4.17.69,4.1,4.07-.37-.04-2.36.47-2.49.45-1.2-.21-1.3-2.75-3.51-2.49-1.9,1.54-.27,1.53,1.02,2.49-4.71-1.08-5.51-.9-9.95.45-1.44.44-3.01,1.02-4.39,1.58,0-.01-.09.04-.29-.23-.49-.63.41-.84-1.76-.57-.21-.34.95-.84,1.17-1.02-.01.76.46.47,1.02.23,5.07-2.22,8.75-4.89,15.07-4.98Z"/>
        <path class="cls-19" d="M998.65,738.07c-.69,1.14-2.09.34-2.93-.34-.23-.19-.26-.99-.59-1.24.96-1.16,4.18.47,3.51,1.58Z"/>
      </g>
      <path class="cls-11" d="M929.9,707.98c.92.21,6.8,1.87,7.17,1.81.14-.02,1.14-1.71,2.19-1.36,1.82.6,3.29,1.27,4.97,2.04,1.54.7,2.94,1.47,4.39,2.26-2.07,1.92-4.96-1.64-7.31-1.13-3.95-1.39-8.08-2.35-12.29-3.17.32-.17.58-.3.88-.45Z"/>
      <path class="cls-30" d="M938.97,703.45c2.58-.28,4.14,1.1,6.14,2.04-1.28-.03-1.28,1.95-2.19,2.04-.4.04-6.14-2.59-7.46-2.49.96-.41,2.47-1.47,3.51-1.58Z"/>
      <path class="cls-3" d="M939.26,708.43c-1.06-.35-2.06,1.33-2.19,1.36-.37.06-6.25-1.6-7.17-1.81.78-.41,1.5-.95,2.34-1.36,2.51.36,4.69,1.04,7.02,1.81Z"/>
      <path class="cls-30" d="M980.51,691.46c.34,1.19.63,2.42.88,3.62-.87.39-2.56.73-2.63,1.58-.24-.76-1.89-3.84-1.46-4.41.24-.31,1.59.21.88-.57.76-.09,1.58-.14,2.34-.23Z"/>
      <path class="cls-30" d="M1021.17,689.65c-.81.97-5.62,4.89-6.73,5.32-.47.18-1.3.31-1.17-.34,1.26-1.07,4.29-4.26,5.85-4.75.9-.28,1.18-.18,2.05-.23Z"/>
      <path class="cls-30" d="M986.36,691.01c-.18.96-.5,1.98-.59,2.94-.53.4-1.43.22-2.05.68-1.88-.01-.22-2.64-1.17-3.39,1.24-.13,2.57-.12,3.8-.23Z"/>
      <path class="cls-12" d="M1054.81,700.51c-10.5-3.27-18.32-1.22-27.79,3.17,5.35-3.17,13.51-5.96,20.33-5.66,1.83.08,6.61.95,7.46,2.49Z"/>
      <path class="cls-11" d="M1033.17,709.11c-4.75-.76-8.18-.73-12.87,0,2.96-1.94,10.11-1.38,12.87,0Z"/>
      <path class="cls-30" d="M966.47,698.93l-2.63.68c-.71-.67-1.35-1.37-2.05-2.04l2.49-1.36c.4.08,1.84,2.29,2.19,2.72Z"/>
      <path class="cls-3" d="M966.47,698.93c.68.81,1.14,1.67,1.76,2.49-2.32,1.43-2.87-.39-4.39-1.81l2.63-.68Z"/>
    </g>
    <g>
      <path class="cls-28" d="M1017.66,687.84c8.57.12,39.66,1.43,39.49,11.31-.03,1.63-.63,1.7-1.46,2.72-.03-.37.05-.76,0-1.13-.27-1.93-1.01-2.55-2.63-3.85-.67-.53-2.05-1.61-2.93-1.81-2.22-1.53-5.14-2.23-7.9-2.94-1.81-.47-3.4-.82-5.27-1.13-1.66-.28-3.29-.5-4.97-.68-1.08-.12-2.14-.15-3.22-.23-1.69-.12-3.27-.2-4.97-.23-.81-.01-1.69-.28-2.63-.23-.86.05-1.15-.06-2.05.23-.93-.41-2.44-.23-3.51-.23-.19,0-.39,0-.59,0-2.52.05-5.08.15-7.61.23-1.08.03-2.15-.04-3.22,0-1.48.06-3.2.38-4.68.45-.23.01-.31-.25-.88-.23-1.13.06-2.36.16-3.51.23-.89.05-1.74.17-2.63.23-.6.04-1.25.19-1.76.23-1.46.1-2.9.1-4.39.23-1.24.11-2.57.1-3.8.23-.68.07-1.37.15-2.05.23-.76.08-1.58.13-2.34.23-6.55.81-12.79,2.09-19.01,3.85-.29.08-.56.13-.88.23-.69.2-1.37.46-2.05.68-1.57.5-3.14,1.03-4.68,1.58-.72.26-1.37.64-2.05.91-.99.38-1.94.73-2.93,1.13s-1.94.93-2.93,1.36c-.31.13-.74.27-1.17.45-1.15.5-2.61.78-3.51,1.58-1.04.11-2.55,1.18-3.51,1.58-.33.14-.64.35-.88.45-.8.36-1.56.75-2.34,1.13-.84.41-1.56.95-2.34,1.36-.3.16-.56.28-.88.45-.73.4-1.6.71-2.34,1.13-2.38,1.36-5.23,2.91-7.02,4.75-1.54.61-3.53,2.2-4.39,3.39-.88.61-.87.8-1.46,1.36-1.32,1.23-1.5,1.48-2.34,2.94-.37.65-1.11,1.2-.88,2.04-.1.2-.25.27-.29.45-.65,3.04,3.36,5.26,6.44,6.34.34.12.57.37,1.17.23-.05.06.03.31,0,.45-1.51.13-5.49-.6-6.73-1.36-.82-.5-1.81-1.91-2.05-2.72-1.32-4.58,3.72-9.56,7.61-12.67,7.58-6.05,22.35-13.22,32.18-16.97,7.51-2.87,15.56-5.22,23.7-6.79,14.14-2.72,30.43-3.38,45.05-3.17Z"/>
      <path class="cls-35" d="M1025.56,683.99c2.93-.22,4.31,0,7.02.23,2.98.24,5.44.3,8.34,1.13,1.17.34,7.68,3.75,8.04,3.28.4-.96-1.2-3.85.73-3.96.23-.01.12.45.15.45-1.7,1.36.22,2.57,2.05,1.36,1.67,1.55,2.96,3.99,6.44,3.85.82,1.23-.06,7.4-1.17,8.82.16-9.88-30.92-11.19-39.49-11.31l7.31-.34-9.51-.11v-2.49l4.68.23.44-.34c0-.08-.76-.22-.88-.34-1.03-1.01-2.07-1.54-1.76-2.94.85,2.46,2.97,3.51,6.29,3.17.65-.07,1.24-.67,1.32-.68Z"/>
      <path class="cls-29" d="M1003.33,657.52c-9.54-.2-20.07.36-29.11,1.36,3.05.43,6.22.73,9.65-.45l-1.9,4.3c-.92,0-1.9.19-2.93.23-5.14.18-9.68,1.38-13.9,1.58-1.82.09-2.94-1.6-4.24-.23-1.41.51-2.39,2.61-.59,3.39.42.18.57.33,1.17.23-1.33.44-1.7-.11-2.05,0-.1-.21-.65-1.33-.73-1.36-.59-.22-7.92,1.87-9.07,2.26-.53.18-1.61.28-1.02.91-.92-.12-2.03.16-2.93,0,1.09-2.23-.14-3.7,0-4.19.13-.45,5.93-2.54,6.87-2.83,10.66-3.3,22.46-4.27,32.76-5.43l17.99.23Z"/>
      <path class="cls-36" d="M1047.5,669.28c-.09.47-.27.55-.59.91-5.37,1.36-12.13-.34-13.46-4.98.23-.45,1.13-1.34,1.76-1.58,2.07.71,5.8,1.35,7.46,2.04.34.14-.04.75.29.91,1.92.86,1.7.1,3.8,1.81.78.63,1.05-.75.73.91Z"/>
      <path class="cls-32" d="M914.4,684.44c-.17-.15-.28-.21-.29-.23-.11-.13.39-.26.29-.57-.02-.05-.87-.34-.88-.68-.02-.95,2.36-.72,2.49-.79.41-.23.92-1.44,1.76-1.81.74-.33,1.58.1,2.93-.68,2.49-1.43,4.93-4.17,7.46-5.66.19.65,1.33,1.03.88,2.83-.41,1.6-7.07,6.74-9.21,7.13-1.44.26-3.78-.25-5.41.45Z"/>
      <path class="cls-15" d="M944.24,671.09c-2.63,2.38-5.84,2.44-9.65,2.26-.44-.02-3.15-.95-3.66-.91-2.66.22-1.21,3.39-1.02,4.75-4.12,4.51-2.69,5.78-11.12,7.69-.76.17-1.88-.78-2.63,1.36-.44-2.42-.44-.58-1.76-1.81,1.63-.71,3.97-.19,5.41-.45,2.14-.39,8.81-5.53,9.21-7.13.46-1.8-.68-2.18-.88-2.83-.26-.89,1.56-2.43,1.9-2.49.25-.04,1.32.63,1.76.68,4.73.55,8.24,1.4,12.43-1.13Z"/>
      <path class="cls-2" d="M1056.57,689.42c-2.95-2.27-4.91-4.5-2.05-7.69l2.05,1.24,1.76,5.88-1.76.57Z"/>
      <path class="cls-23" d="M1055.11,681.05c-.14.25-.39.46-.59.68-2.86,3.19-.9,5.43,2.05,7.69.56.43,1.24.13,1.76.91-3.47.14-4.77-2.3-6.44-3.85.02-.02.24-.35.29-.45.9-1.72-.22-4,2.49-5.2.38-.17.42.24.44.23Z"/>
      <path class="cls-14" d="M997.77,666.34c3.41.32,2.11,2.07,2.63,3.28.78,1.83,1.87,3.93,3.95,5.09,2.18-.62,3.74-2,5.85-2.72,1.32-.45,4.6-.23,4.53-1.58,3.05.35,8.94-.34,10.82-2.49,4.95,2.92,13.58,12.15,5.85,15.73l1.17.57c-2.71-.22-4.09-.45-7.02-.23.55-.76.34-1.49,0-2.26,1.28-.49-1.98-2.67-2.19-2.72-3.01-.58-5.26.94-7.31,2.26-1.6-.8-6.12-.55-7.31-.91-.59-.18-.14-.62-1.02-.91-1.03-.33-.98-.65-2.34-.68-1.03-.02-1.67.54-3.07.45-2.18-.14-4.73-1.2-6.87-.68-1.16-4.97-12.09-4.81-16.09-2.26-.49-.84.29-1.71.88-2.38,2.7-3.03,12.74-8.03,17.55-7.58Z"/>
      <g>
        <path class="cls-36" d="M1022.93,660.23c3.1,1.53,4.28,4.24,2.34,6.79-2.72,3.56-14.76,3.43-17.84-.23-.63-2.27-1.02-2.9.59-5.09.99-1.34,3.54-2.84,5.56-3.05,2.61-.28,7.14.49,9.36,1.58Z"/>
        <path class="cls-35" d="M1007.42,666.8c3.09,3.65,15.12,3.79,17.84.23.06.19.33.87.29.91-1.88,2.15-7.77,2.83-10.82,2.49-2.74-.31-6.39-1.75-7.9-3.51.1-.19.59-.09.59-.11Z"/>
      </g>
      <path class="cls-23" d="M1033.46,665.21c1.32,4.64,8.09,6.34,13.46,4.98-.06.06.1.44-.44.68-3.42,1.51-10.42.46-12.43-2.38-.71-1-1.14-2.2-.59-3.28Z"/>
      <path class="cls-18" d="M1049.84,685.12c.83.08,2.39.03,2.34.91-.05.1-.27.44-.29.45-1.83,1.21-3.75,0-2.05-1.36Z"/>
      <g>
        <path class="cls-35" d="M1035.21,663.63c-.63.25-1.52,1.13-1.76,1.58-.55,1.09-.12,2.28.59,3.28,2.01,2.84,9.01,3.89,12.43,2.38.54-.24.38-.61.44-.68.32-.36.49-.43.59-.91,3.21-.11,10.19,10.61,9.65,11.2-.06.07-1.51.35-2.05.57-.02,0-.06-.4-.44-.23-2.71,1.21-1.59,3.49-2.49,5.2.05-.88-1.51-.82-2.34-.91-.03,0,.09-.47-.15-.45-1.93.11-.33,3-.73,3.96-.36.47-6.87-2.95-8.04-3.28-2.9-.83-5.36-.89-8.34-1.13l-1.17-.57c7.73-3.58-.9-12.81-5.85-15.73.03-.04-.23-.72-.29-.91,1.94-2.54.76-5.26-2.34-6.79,3.63.45,7.26,1.18,10.68,2.26.58.18,1.51,1.1,1.61,1.13Z"/>
        <path class="cls-36" d="M1037.99,675.85c1.58-.28,2.09,2.02.29,2.04-1.48.01-1.47-1.83-.29-2.04Z"/>
      </g>
      <path class="cls-36" d="M939.85,689.88c.1.02,1.6.61,1.76.68,6.01,4.38-10.37,14.37-12.87,7.69-.36-.95-.4-2.41-.29-3.39.12-1.08.48-1.8,1.17-2.72,3.34-2.04,5.41-3.18,10.24-2.26Z"/>
      <path class="cls-26" d="M942.77,677.2c-5.84,3.39-13.45,7.27-15.5,12.9-1.17.33-1.38.66-1.46.68-2.76.63-3.73.9-6.73.45,2.07-4.35,15.35-16.7,21.79-15.16.13.03.09.61,1.9,1.13Z"/>
      <path class="cls-13" d="M927.27,690.1c2.05-5.63,9.67-9.51,15.5-12.9.9.26,2.18-.56,2.05,1.47-.28,4.33-12.76,10.08-17.55,11.43Z"/>
      <path class="cls-6" d="M919.08,691.23c3,.45,3.97.18,6.73-.45l1.32,2.72c1.38-.14,1.25-.6,2.49-1.36-.69.92-1.05,1.63-1.17,2.72-5.5,1.5-10.46,6.34-11.7-.91-.16-.93.44-2.23-.59-3.39,1.57.21,1.96.53,2.93.68Z"/>
      <path class="cls-29" d="M943.65,692.36c-.37-1.05-.95-1.29-2.05-1.81-.15-.07-1.66-.66-1.76-.68,3.1-2.03,7.25-4.92,11.12-5.88.16-.04.89.65,1.76-.11.6-.53-.38-.85-.29-1.02.03-.07-.03-.16,0-.23,1.06.1,1.83-.61,2.63-.91-1.01,4.82-6.25,8.28-11.41,10.63Z"/>
      <path class="cls-6" d="M959.45,667.93c-2.05.64-4.47,2.07-5.85,3.39-.56-.37-4.21-1.48-4.97-1.58-.59-.63.5-.73,1.02-.91,1.15-.39,8.48-2.48,9.07-2.26.09.03.63,1.14.73,1.36Z"/>
      <path class="cls-6" d="M934.58,673.36c-1.32,1.42-3.38,2.43-4.68,3.85-.19-1.37-1.64-4.53,1.02-4.75.51-.04,3.22.88,3.66.91Z"/>
      <path class="cls-32" d="M918.78,684.9c2.98,1.68-1.88,4.66-2.63,3.17-.16-.32.09-1.33,0-1.81.76-2.13,1.87-1.18,2.63-1.36Z"/>
      <g>
        <path class="cls-26" d="M948.62,669.74c.76.1,4.42,1.22,4.97,1.58,4.03,2.64,2.42,6.75.59,9.84-.24.41-1.52.93-1.76,1.47-.03.07.03.16,0,.23-.8-.59-1.49.48-1.46,1.13-3.87.96-8.01,3.85-11.12,5.88-4.83-.92-6.9.23-10.24,2.26-1.24.76-1.11,1.22-2.49,1.36l-1.32-2.72c.08-.02.29-.35,1.46-.68,4.79-1.35,17.27-7.09,17.55-11.43.13-2.03-1.15-1.21-2.05-1.47-1.81-.52-1.77-1.1-1.9-1.13-6.44-1.54-19.72,10.81-21.79,15.16-.97-.15-1.36-.46-2.93-.68-.38-.05-.62-.45-.73-.45-1.86-.08-3.1.32-4.83.34l5.56-2.38c.75,1.49,5.61-1.49,2.63-3.17,8.42-1.91,7-3.18,11.12-7.69,1.3-1.42,3.36-2.43,4.68-3.85,3.82.18,7.03.12,9.65-2.26.31-.28,1.37-1.16,1.46-1.36.9.16,2.01-.12,2.93,0Z"/>
        <path class="cls-9" d="M952.43,682.86c-.08.17.89.49.29,1.02-.87.76-1.6.07-1.76.11-.02-.66.66-1.72,1.46-1.13Z"/>
        <path class="cls-9" d="M942.92,675.62c1.77-.6,1.7,1.54.29,1.36-.47-.06-1.18-1.06-.29-1.36Z"/>
      </g>
      <path class="cls-33" d="M982.26,685.8c1.97-.1,4.05.39,6.14.23l-.44,2.49c-5.07.54-11.27-.05-15.36,2.49-8.14,1.57-16.18,3.92-23.7,6.79-1.25-.21-7.08,2.6-7.46,2.49-.14-.04-1.34-1.73-1.32-2.04,1.09-.64,1.77-1.7,3.22-2.49,10.49-5.71,26.25-9.32,38.91-9.96Z"/>
      <path class="cls-33" d="M931.66,701.19c-3.04,1.93-6.47,3.4-9.65,5.2-3.53,2-5.88,3.78-9.07,6-.54.38-.47.47-1.17.11,1.79-5.14-5.81-3.03-6.44-.57-.53,2.08.67,2.74,1.17,4.19.53,1.54-.19,1.9,0,3.05.01.09.79,1.09.88,1.58.1.61-1.3,2.28,1.02,3.05l3.95-6.45c1.13-.98,2.7-1.92,3.8-2.83l.59.23c-3.89,3.11-8.92,8.09-7.61,12.67-.56.39-1.19-.28-1.46-.57-5.57-5.77-4.91-14.24-4.1-20.36.08-.57-.18-1.91,0-2.26.43-.85,3.5-.58,4.68-.57-.83,11.06,16.53-3.11,19.6-4.98,1.28.07.94,1.48,1.9,2.04.08.05,1.8.44,1.9.45Z"/>
      <path class="cls-10" d="M1017.66,687.84c-14.62-.21-30.91.44-45.05,3.17,4.08-2.54,10.29-1.95,15.36-2.49l.44-2.49c2.18-.17,4.01-1.25,4.83-1.36,7.5-1.02,18.55,1.17,26.47-.23.12.12.88.25.88.34l-.44.34-4.68-.23v2.49l9.51.11-7.31.34Z"/>
      <path class="cls-10" d="M948.92,697.79c-9.83,3.75-24.6,10.92-32.18,16.97l-.59-.23c1.14-.94,7.97-5.57,7.9-6-.06-.39-2.71-1.06-2.05-2.15,3.18-1.81,6.61-3.28,9.65-5.2,3.25.35,6.06-1.53,8.48-2.94-.03.31,1.18,2,1.32,2.04.38.11,6.21-2.7,7.46-2.49Z"/>
      <g>
        <path class="cls-33" d="M1003.33,657.52c1.46.03,4.82.81,6.87.91.23.01,2.27-.89,3.36.23-2.02.22-4.57,1.71-5.56,3.05-1.61,2.19-1.21,2.82-.59,5.09,0,.02-.48-.08-.59.11,1.51,1.76,5.16,3.2,7.9,3.51.06,1.36-3.21,1.13-4.53,1.58-2.11.72-3.67,2.1-5.85,2.72-2.08-1.16-3.17-3.26-3.95-5.09-.52-1.22.78-2.96-2.63-3.28-1.02-1-4.7-2.43-6.29-2.72-1.44-.26-2.34.43-3.22.23-.48-.11-1.08-1.11-1.17-1.13-.46-.12-4.24,0-5.12,0l1.9-4.3c-3.44,1.18-6.6.88-9.65.45,9.03-.99,19.57-1.56,29.11-1.36Z"/>
        <path class="cls-36" d="M1001.13,665.66c2.74-.96,3.67,3.66.59,2.94-.99-.23-1.53-2.61-.59-2.94Z"/>
        <path class="cls-36" d="M988.85,661.14c1.92-.27,1.73,2.29.29,2.49-1.92.27-1.73-2.29-.29-2.49Z"/>
      </g>
      <path class="cls-33" d="M979.05,676.53c-4.11,3.31,2.47,8.38,6.87,8.82.85.09,3.9.11,4.68,0,3.16-.46,5.35-4.53,4.83-6.79,2.14-.52,4.7.54,6.87.68,1.4.09,2.04-.48,3.07-.45-3.95,2.39,2.67,3.67,2.34.68.89.29.43.73,1.02.91,1.19.36,5.71.11,7.31.91,2.05-1.32,4.3-2.85,7.31-2.26.22.04,3.47,2.23,2.19,2.72-1.33-3.05-7-2.91-7.61-.23-.31,1.4.73,1.93,1.76,2.94-7.93,1.4-18.98-.79-26.47.23-.82.11-2.65,1.19-4.83,1.36s-4.17-.33-6.14-.23c.46-.53.35-.49-.15-.91-2.81-2.38-7.57-3.69-4.53-7.47.05-.06,1.22-1.27,1.46-.91Z"/>
      <path class="cls-36" d="M1025.56,681.73c.34.77.55,1.5,0,2.26-.08,0-.66.61-1.32.68-3.32.34-5.44-.71-6.29-3.17.6-2.69,6.28-2.83,7.61.23Z"/>
      <path class="cls-29" d="M979.05,662.95c-3.98,1.12-8.14,1.84-12.14,2.94-1.77.49-3.54,1.42-5.41,2.04-.6.11-.75-.04-1.17-.23,5.14.33,4.16-4.68.59-3.39,1.31-1.37,2.43.32,4.24.23,4.22-.21,8.76-1.4,13.9-1.58Z"/>
      <path class="cls-32" d="M960.32,667.7c-1.8-.79-.83-2.89.59-3.39,3.58-1.28,4.56,3.72-.59,3.39Z"/>
      <path class="cls-29" d="M928.44,694.85c-.11.99-.06,2.44.29,3.39-.35.05-.63.3-.88.45-3.07,1.87-20.43,16.03-19.6,4.98.05-.67.29-3.08,1.46-2.26,0,.03.51.38.59.45.12.13-.51.36-.15.45,3.9.61,7.66-1.25,6.29-4.53-.47-1.13-1.6-.78-1.76-1.02-.25-.37,1.27-2.56,2.05-2.83,1.24,7.24,6.2,2.4,11.7.91Z"/>
      <path class="cls-32" d="M915.57,697.79c1.16,2.65-1.83,4.79-5.27,4.07-.07-.07-.58-.42-.59-.45-.57-2.82,2.35-5.8,5.85-3.62Z"/>
      <path class="cls-17" d="M916.44,697.79c1.37,3.28-2.39,5.13-6.29,4.53-.37-.1.27-.33.15-.45,3.43.71,6.42-1.42,5.27-4.07-.01-.81.28-.21.88,0Z"/>
      <g>
        <path class="cls-29" d="M914.4,684.44c1.32,1.23,1.32-.61,1.76,1.81.09.48-.16,1.49,0,1.81l-5.56,2.38c1.73-.02,2.97-.42,4.83-.34.11,0,.35.4.73.45,1.03,1.16.43,2.46.59,3.39-.78.27-2.3,2.46-2.05,2.83.16.24,1.28-.11,1.76,1.02-.6-.21-.89-.81-.88,0-3.5-2.18-6.42.8-5.85,3.62-1.17-.82-1.41,1.59-1.46,2.26-1.18-.02-4.25-.28-4.68.57-.18.35.08,1.69,0,2.26-.81,6.12-1.47,14.6,4.1,20.36.27.28.9.95,1.46.57.23.81,1.23,2.21,2.05,2.72-9.18-4.18-10.16-16.21-9.36-23.65.52-4.83,3.91-13.07,6.44-16.52.42-.57.71,0,.88-.23,1.47-1.91,2.66-4.07,4.97-5.54.01.01.13.07.29.23Z"/>
        <path class="cls-32" d="M907.23,694.17c1.56-.44,1.82,1.64,1.17,1.81s-2.13-1.54-1.17-1.81Z"/>
      </g>
      <path class="cls-36" d="M995.43,678.56c.53,2.26-1.67,6.33-4.83,6.79-.78.11-3.83.09-4.68,0-4.41-.45-10.99-5.52-6.87-8.82.07-.06.28-.22.29-.23,4-2.54,14.93-2.7,16.09,2.26Z"/>
      <path class="cls-36" d="M1007.71,679.47c.33,2.99-6.29,1.71-2.34-.68,1.36.03,1.31.35,2.34.68Z"/>
      <path class="cls-29" d="M977.58,677.43c-3.04,3.78,1.72,5.09,4.53,7.47.49.42.6.37.15.91-12.66.64-28.42,4.25-38.91,9.96.25-1.18.71-2.19.29-3.39,5.16-2.36,10.4-5.81,11.41-10.63,6.62-2.41,14.09-3.38,21.21-4.53.52-.08,1.14-.34,1.32.23Z"/>
      <g>
        <path class="cls-7" d="M981.97,662.72c.88,0,4.66-.12,5.12,0,.09.02.69,1.02,1.17,1.13.88.2,1.78-.48,3.22-.23,1.59.28,5.27,1.71,6.29,2.72-4.82-.45-14.85,4.55-17.55,7.58-.59.66-1.37,1.54-.88,2.38-.02.01-.22.17-.29.23-.24-.37-1.41.84-1.46.91-.18-.57-.8-.31-1.32-.23-7.12,1.14-14.59,2.11-21.21,4.53-.8.29-1.57,1-2.63.91.23-.54,1.51-1.06,1.76-1.47,1.83-3.09,3.44-7.2-.59-9.84,1.38-1.32,3.8-2.76,5.85-3.39.35-.11.72.44,2.05,0,1.87-.62,3.64-1.55,5.41-2.04,4-1.11,8.16-1.82,12.14-2.94,1.03-.04,2.01-.23,2.93-.23Z"/>
        <path class="cls-9" d="M967.78,669.51c.21-.12.94.02.73.34-.23.35-1.36.01-.73-.34Z"/>
      </g>
      <path class="cls-35" d="M943.65,692.36c.42,1.21-.05,2.22-.29,3.39-1.45.79-2.13,1.85-3.22,2.49-2.42,1.41-5.23,3.3-8.48,2.94-.1-.01-1.82-.41-1.9-.45-.96-.55-.62-1.97-1.9-2.04.25-.15.53-.4.88-.45,2.5,6.68,18.88-3.31,12.87-7.69,1.1.52,1.68.76,2.05,1.81Z"/>
      <path class="cls-35" d="M916.15,714.54c-1.11.91-2.67,1.85-3.8,2.83l-3.95,6.45c-2.32-.77-.92-2.45-1.02-3.05-.08-.5-.86-1.5-.88-1.58-.19-1.15.53-1.52,0-3.05,2.05.26,4.78-2.23,5.27-3.62.7.36.63.26,1.17-.11,3.19-2.21,5.54-3.99,9.07-6-.66,1.09,1.98,1.76,2.05,2.15.07.43-6.76,5.06-7.9,6Z"/>
      <path class="cls-36" d="M911.76,712.5c-.48,1.39-3.22,3.88-5.27,3.62-.5-1.45-1.7-2.11-1.17-4.19.62-2.46,8.22-4.57,6.44.57Z"/>
    </g>
  </g>
  <path class="cls-25" d="M787.4,140.84c-7.65,58.92-15.31,117.83-22.96,176.75,12.82,17.78,25.63,35.56,38.45,53.34l44.65,63.26,8.07-103.57,1.25-120.93,10.55-60.78-44.65,9.3-35.35-17.37Z"/>
</svg>