<?xml version="1.0" encoding="UTF-8"?>
<svg id="Layer_30" data-name="Layer 30" xmlns="http://www.w3.org/2000/svg" viewBox="0 0 1094.44 1098.11">
  <defs>
    <style>
      .cls-1 {
        fill: #fffbdc;
      }

      .cls-2 {
        fill: #66500a;
        stroke: #000;
        stroke-miterlimit: 10;
      }

      .cls-3 {
        fill: #6a6965;
      }
    </style>
  </defs>
  <polygon points="5.44 8.64 5.44 8.64 5.44 8.64 1094.44 0 1082.79 1094.35 0 1098.11 5.44 8.64"/>
  <path class="cls-1" d="M24.68,35.67c.98,346.96,1.96,693.91,2.95,1040.87,336.84-7.05,673.68-14.1,1010.52-21.16l15.26-1019.62c-342.91-.03-685.82-.06-1028.73-.09Z"/>
  <path d="M108.89,1076.68c-6.95-272.66-13.9-545.32-20.84-817.98C236,189,383.95,119.3,531.91,49.6c154.91,65.08,309.83,130.16,464.74,195.24-13.97,274.21-27.93,548.41-41.9,822.62-281.95,3.07-563.91,6.15-845.86,9.22Z"/>
  <path class="cls-2" d="M181.22,1078.74c-5.56-257.22-11.12-514.45-16.68-771.67,118.39-65.76,236.78-131.51,355.17-197.27,123.96,61.4,247.92,122.79,371.88,184.19-11.18,258.68-22.35,517.37-33.53,776.05-225.61,2.9-451.23,5.8-676.84,8.7Z"/>
  <polygon points="519.71 109.8 498.14 1083.69 564.26 1089.21 519.71 109.8"/>
  <path class="cls-3" d="M629.27,687.96c-12.45,9.16-29.28,30.02-21.51,53.75,6.72,20.51,28.41,32.78,48.38,30.46,32.75-3.8,40.84-44.53,41.22-46.58.98-5.39,5.13-28.07-8.96-41.21-15.44-14.41-43.04-8.27-59.13,3.58Z"/>
  <path class="cls-3" d="M425,696.9c-20.69,9.36-24.01,33.38-25.09,41.21-1.16,8.38-3.61,26.15,7.16,35.84,12.88,11.59,38.09,5.69,51.96-7.16,18.22-16.88,22.94-51.34,5.38-66.3-10.82-9.22-27.63-8.92-39.42-3.59Z"/>
</svg>