<?xml version="1.0" encoding="UTF-8"?>
<svg id="Layer_27" data-name="Layer 27" xmlns="http://www.w3.org/2000/svg" viewBox="0 0 3099.54 2207.48">
  <defs>
    <style>
      .cls-1 {
        fill: #e98bff;
        stroke: #24f7ff;
      }

      .cls-1, .cls-2 {
        stroke-miterlimit: 10;
      }

      .cls-3 {
        fill: #8ef3ff;
      }

      .cls-2 {
        fill: #60ff63;
        stroke: #e98bff;
      }
    </style>
  </defs>
  <rect class="cls-3" x="145.49" width="2846.29" height="2054.4"/>
  <g>
    <path class="cls-1" d="M146.19,1269.3c26.06-23.02,81.2-61.59,108.51-136.62,46.99-129.06-23.58-269.28-12.03-273.26,11.57-3.99,38.62,151.88,124.56,176.82,82.83,24.04,194.83-80.97,253.18-172.77,96.38-151.64,69.35-303.33,100.49-305.4,27.39-1.82,81.93,113.31,68.29,237.1-18.1,164.26-145.01,241.71-116.56,289.32,40.48,67.75,316.84-56.69,357.64,12.09,31.81,53.62-119.15,157.98-84.41,241.1,25.52,61.06,142.02,88.61,225.03,56.28,84.97-33.09,119.6-122.98,152.72-208.95,70.07-181.89,34.82-295.38,84.42-313.44,48.43-17.63,145.37,67.56,188.85,172.81,78.77,190.65-78.92,299.19-16.11,466.14,74.47,197.98,387.3,287.5,421.92,297.4,128.14,36.67,243.25,33.09,285.3,116.56,20.97,41.63,17.6,92.67,4.01,124.57-62.99,147.82-441.68,110.9-759.5,96.38-1024.48-46.8-1263.6,146.16-1426.56-64.42-162.17-209.56-128.28-662.87,40.25-811.73Z"/>
    <path class="cls-1" d="M2994.43,1271.41c-17.04-23.02-53.1-61.59-70.96-136.62-30.73-129.06,15.42-269.28,7.87-273.26-7.57-3.99-25.26,151.88-81.46,176.82-54.17,24.04-127.41-80.97-165.57-172.77-63.03-151.64-45.35-303.33-65.72-305.4-17.91-1.82-53.58,113.31-44.66,237.1,11.84,164.26,94.83,241.71,76.23,289.32-26.48,67.75-207.2-56.69-233.89,12.09-20.81,53.62,77.92,157.98,55.2,241.1-16.69,61.06-92.88,88.61-147.16,56.28-55.57-33.09-78.21-122.98-99.87-208.95-45.83-181.89-22.77-295.38-55.2-313.44-31.67-17.63-95.06,67.56-123.5,172.81-51.51,190.65,51.61,299.19,10.54,466.14-48.7,197.98-253.28,287.5-275.92,297.4-83.8,36.67-159.08,33.09-186.58,116.56-13.72,41.63-11.51,92.67-2.62,124.57,41.19,147.82,288.85,110.9,496.69,96.38,669.98-46.8,826.35,146.16,932.92-64.42,106.06-209.56,83.89-662.87-26.33-811.73Z"/>
    <path class="cls-2" d="M113.57,1647.97c15.12-13.9,47.11-37.19,62.95-82.49,27.26-77.93-13.68-162.6-6.98-165,6.71-2.41,22.4,91.71,72.26,106.77,48.05,14.52,113.02-48.89,146.88-104.32,55.91-91.56,40.23-183.16,58.3-184.41,15.89-1.1,47.53,68.42,39.62,143.16-10.5,99.18-84.12,145.95-67.62,174.7,23.49,40.91,183.81-34.23,207.48,7.3,18.46,32.38-69.12,95.39-48.97,145.58,14.8,36.87,82.39,53.5,130.55,33.98,49.29-19.98,69.38-74.26,88.6-126.17,40.65-109.83,20.2-178.36,48.97-189.26,28.1-10.65,84.33,40.79,109.56,104.35,45.7,115.12-45.78,180.66-9.35,281.47,43.2,119.55,224.68,173.6,244.76,179.58,74.34,22.14,141.12,19.98,165.51,70.38,12.17,25.14,10.21,55.95,2.33,75.22-36.54,89.26-256.23,66.96-440.61,58.2-594.33-28.26-733.04,88.26-827.58-38.9-94.08-126.54-74.42-400.26,23.35-490.14Z"/>
    <path class="cls-2" d="M3008.37,1656.1c-16.22-13.9-50.53-37.19-67.53-82.49-29.24-77.93,14.67-162.6,7.49-165-7.2-2.41-24.03,91.71-77.51,106.77-51.55,14.52-121.24-48.89-157.56-104.32-59.98-91.56-43.16-183.16-62.54-184.41-17.05-1.1-50.99,68.42-42.5,143.16,11.26,99.18,90.24,145.95,72.54,174.7-25.19,40.91-197.18-34.23-222.57,7.3-19.8,32.38,74.15,95.39,52.53,145.58-15.88,36.87-88.38,53.5-140.04,33.98-52.88-19.98-74.43-74.26-95.04-126.17-43.61-109.83-21.67-178.36-52.53-189.26-30.14-10.65-90.46,40.79-117.53,104.35-49.02,115.12,49.11,180.66,10.03,281.47-46.35,119.55-241.02,173.6-262.57,179.58-79.75,22.14-151.38,19.98-177.55,70.38-13.05,25.14-10.95,55.95-2.49,75.22,39.2,89.26,274.87,66.96,472.65,58.2,637.55-28.26,786.36,88.26,887.77-38.9,100.92-126.54,79.83-400.26-25.05-490.14Z"/>
  </g>
</svg>